<svg width="975" height="286" viewBox="0 0 975 286" fill="none" xmlns="http://www.w3.org/2000/svg">
<rect width="975" height="286" fill="#F7F7F7"/>
<circle cx="482" cy="143" r="103" fill="#333293" fill-opacity="0.9"/>
<path d="M443.303 119V117.32H436.604V104.3H434.777V119H443.303ZM454.568 117.425C454.085 117.425 453.875 117.278 453.875 116.711V112.028C453.875 109.529 452.3 108.164 449.57 108.164C446.987 108.164 445.286 109.403 445.034 111.503H446.756C446.966 110.411 447.974 109.697 449.486 109.697C451.166 109.697 452.153 110.537 452.153 111.923V112.658H449.003C446.189 112.658 444.698 113.855 444.698 115.997C444.698 117.95 446.294 119.126 448.646 119.126C450.494 119.126 451.565 118.307 452.237 117.341C452.258 118.391 452.741 119 454.169 119H455.114V117.425H454.568ZM452.153 114.632C452.153 116.417 450.914 117.656 448.772 117.656C447.344 117.656 446.441 116.942 446.441 115.892C446.441 114.674 447.302 114.107 448.835 114.107H452.153V114.632ZM462.107 108.164C460.301 108.164 459.209 108.92 458.579 109.739L458.348 108.29H456.857V119H458.579V113.645C458.579 111.23 459.797 109.739 461.813 109.739C463.682 109.739 464.711 110.915 464.711 113.141V119H466.433V113.036C466.433 109.487 464.522 108.164 462.107 108.164ZM477.491 110.138C476.819 108.941 475.622 108.164 473.816 108.164C470.855 108.164 468.671 110.369 468.671 113.645C468.671 117.131 470.855 119.126 473.816 119.126C475.622 119.126 476.777 118.37 477.491 117.152V118.412C477.491 120.743 476.273 121.793 474.026 121.793C472.241 121.793 471.044 121.037 470.75 119.693H468.986C469.259 122.045 471.17 123.326 473.9 123.326C477.575 123.326 479.213 121.562 479.213 118.475V108.29H477.722L477.491 110.138ZM473.984 117.593C471.863 117.593 470.435 115.976 470.435 113.645C470.435 111.314 471.863 109.697 473.984 109.697C476.084 109.697 477.512 111.335 477.512 113.687C477.512 115.976 476.084 117.593 473.984 117.593ZM489.476 113.645C489.476 116.06 488.3 117.551 486.347 117.551C484.562 117.551 483.554 116.375 483.554 114.149V108.29H481.832V114.254C481.832 117.803 483.701 119.126 486.053 119.126C487.817 119.126 488.846 118.37 489.476 117.572L489.707 119H491.198V108.29H489.476V113.645ZM503.436 117.425C502.953 117.425 502.743 117.278 502.743 116.711V112.028C502.743 109.529 501.168 108.164 498.438 108.164C495.855 108.164 494.154 109.403 493.902 111.503H495.624C495.834 110.411 496.842 109.697 498.354 109.697C500.034 109.697 501.021 110.537 501.021 111.923V112.658H497.871C495.057 112.658 493.566 113.855 493.566 115.997C493.566 117.95 495.162 119.126 497.514 119.126C499.362 119.126 500.433 118.307 501.105 117.341C501.126 118.391 501.609 119 503.037 119H503.982V117.425H503.436ZM501.021 114.632C501.021 116.417 499.782 117.656 497.64 117.656C496.212 117.656 495.309 116.942 495.309 115.892C495.309 114.674 496.17 114.107 497.703 114.107H501.021V114.632ZM514.168 110.138C513.496 108.941 512.299 108.164 510.493 108.164C507.532 108.164 505.348 110.369 505.348 113.645C505.348 117.131 507.532 119.126 510.493 119.126C512.299 119.126 513.454 118.37 514.168 117.152V118.412C514.168 120.743 512.95 121.793 510.703 121.793C508.918 121.793 507.721 121.037 507.427 119.693H505.663C505.936 122.045 507.847 123.326 510.577 123.326C514.252 123.326 515.89 121.562 515.89 118.475V108.29H514.399L514.168 110.138ZM510.661 117.593C508.54 117.593 507.112 115.976 507.112 113.645C507.112 111.314 508.54 109.697 510.661 109.697C512.761 109.697 514.189 111.335 514.189 113.687C514.189 115.976 512.761 117.593 510.661 117.593ZM523.591 119.126C526.069 119.126 527.833 117.551 528.253 115.409H526.51C526.153 116.795 524.977 117.593 523.465 117.593C521.428 117.593 520.147 116.165 520.084 114.128V113.981H528.4C528.421 113.729 528.442 113.477 528.442 113.246C528.358 110.075 526.384 108.164 523.36 108.164C520.336 108.164 518.278 110.39 518.278 113.645C518.278 116.921 520.378 119.126 523.591 119.126ZM520.189 112.553C520.357 110.81 521.806 109.676 523.381 109.676C525.166 109.676 526.426 110.705 526.594 112.553H520.189ZM452.916 151H454.701V139.408L459.573 151H461.19L466.062 139.408V151H467.847V136.3H465.579L460.434 148.501L455.226 136.3H452.916V151ZM475.799 151.126C478.928 151.126 481.112 148.9 481.112 145.645C481.112 142.39 478.928 140.164 475.799 140.164C472.67 140.164 470.486 142.39 470.486 145.645C470.486 148.9 472.67 151.126 475.799 151.126ZM475.799 149.593C473.678 149.593 472.25 147.934 472.25 145.645C472.25 143.356 473.678 141.697 475.799 141.697C477.92 141.697 479.348 143.356 479.348 145.645C479.348 147.934 477.92 149.593 475.799 149.593ZM491.949 141.928C491.298 140.899 490.08 140.164 488.274 140.164C485.313 140.164 483.129 142.369 483.129 145.645C483.129 149.131 485.313 151.126 488.274 151.126C490.08 151.126 491.235 150.265 491.949 149.278L492.18 151H493.671V136.3H491.949V141.928ZM488.442 149.593C486.321 149.593 484.893 147.976 484.893 145.645C484.893 143.314 486.321 141.697 488.442 141.697C490.542 141.697 491.97 143.335 491.97 145.687C491.97 147.976 490.542 149.593 488.442 149.593ZM501.371 151.126C503.849 151.126 505.613 149.551 506.033 147.409H504.29C503.933 148.795 502.757 149.593 501.245 149.593C499.208 149.593 497.927 148.165 497.864 146.128V145.981H506.18C506.201 145.729 506.222 145.477 506.222 145.246C506.138 142.075 504.164 140.164 501.14 140.164C498.116 140.164 496.058 142.39 496.058 145.645C496.058 148.921 498.158 151.126 501.371 151.126ZM497.969 144.553C498.137 142.81 499.586 141.676 501.161 141.676C502.946 141.676 504.206 142.705 504.374 144.553H497.969ZM508.607 151H510.329V136.3H508.607V151Z" fill="#F1F1F7"/>
<path d="M454.403 184.078C455.937 184.078 457.029 183.103 457.289 181.777H456.21C455.989 182.635 455.261 183.129 454.325 183.129C453.064 183.129 452.271 182.245 452.232 180.984V180.893H457.38C457.393 180.737 457.406 180.581 457.406 180.438C457.354 178.475 456.132 177.292 454.26 177.292C452.388 177.292 451.114 178.67 451.114 180.685C451.114 182.713 452.414 184.078 454.403 184.078ZM452.297 180.009C452.401 178.93 453.298 178.228 454.273 178.228C455.378 178.228 456.158 178.865 456.262 180.009H452.297ZM458.161 184H459.37L461.307 181.335L463.244 184H464.518L461.983 180.594L464.349 177.37H463.14L461.359 179.827L459.604 177.37H458.33L460.683 180.594L458.161 184ZM466.351 182.271C466.351 183.441 466.806 184 468.08 184H469.237V183.025H468.184C467.612 183.025 467.417 182.817 467.417 182.258V178.345H469.133V177.37H467.417V175.511H466.351V177.37H465.155V178.345H466.351V182.271ZM473.749 177.37C472.566 177.37 472.059 177.864 471.747 178.371L471.604 177.37H470.681V184H471.747V180.62C471.747 179.567 472.124 178.41 473.515 178.41H474.048V177.37H473.749ZM481.127 183.025C480.828 183.025 480.698 182.934 480.698 182.583V179.684C480.698 178.137 479.723 177.292 478.033 177.292C476.434 177.292 475.381 178.059 475.225 179.359H476.291C476.421 178.683 477.045 178.241 477.981 178.241C479.021 178.241 479.632 178.761 479.632 179.619V180.074H477.682C475.94 180.074 475.017 180.815 475.017 182.141C475.017 183.35 476.005 184.078 477.461 184.078C478.605 184.078 479.268 183.571 479.684 182.973C479.697 183.623 479.996 184 480.88 184H481.465V183.025H481.127ZM479.632 181.296C479.632 182.401 478.865 183.168 477.539 183.168C476.655 183.168 476.096 182.726 476.096 182.076C476.096 181.322 476.629 180.971 477.578 180.971H479.632V181.296ZM485.705 184.078C487.317 184.078 488.396 183.168 488.656 181.738H487.525C487.317 182.583 486.667 183.129 485.718 183.129C484.444 183.129 483.586 182.141 483.586 180.698C483.586 179.255 484.444 178.241 485.718 178.241C486.693 178.241 487.343 178.774 487.538 179.658H488.656C488.383 178.202 487.356 177.292 485.731 177.292C483.807 177.292 482.494 178.67 482.494 180.698C482.494 182.765 483.768 184.078 485.705 184.078ZM490.839 182.271C490.839 183.441 491.294 184 492.568 184H493.725V183.025H492.672C492.1 183.025 491.905 182.817 491.905 182.258V178.345H493.621V177.37H491.905V175.511H490.839V177.37H489.643V178.345H490.839V182.271ZM495.714 176.252C496.104 176.252 496.403 175.966 496.403 175.563C496.403 175.16 496.104 174.874 495.714 174.874C495.324 174.874 495.025 175.16 495.025 175.563C495.025 175.966 495.324 176.252 495.714 176.252ZM495.168 184H496.234V177.37H495.168V184ZM501.27 184.078C503.207 184.078 504.559 182.7 504.559 180.685C504.559 178.67 503.207 177.292 501.27 177.292C499.333 177.292 497.981 178.67 497.981 180.685C497.981 182.7 499.333 184.078 501.27 184.078ZM501.27 183.129C499.957 183.129 499.073 182.102 499.073 180.685C499.073 179.268 499.957 178.241 501.27 178.241C502.583 178.241 503.467 179.268 503.467 180.685C503.467 182.102 502.583 183.129 501.27 183.129ZM509.551 177.292C508.433 177.292 507.757 177.76 507.367 178.267L507.224 177.37H506.301V184H507.367V180.685C507.367 179.19 508.121 178.267 509.369 178.267C510.526 178.267 511.163 178.995 511.163 180.373V184H512.229V180.308C512.229 178.111 511.046 177.292 509.551 177.292ZM463.536 193.292C462.418 193.292 461.703 193.825 461.261 194.436L461.118 193.37H460.195V202.6H461.261V198.986C461.664 199.623 462.418 200.078 463.536 200.078C465.369 200.078 466.721 198.713 466.721 196.685C466.721 194.527 465.369 193.292 463.536 193.292ZM463.432 199.129C462.132 199.129 461.248 198.115 461.248 196.659C461.248 195.242 462.132 194.241 463.432 194.241C464.745 194.241 465.629 195.242 465.629 196.685C465.629 198.128 464.745 199.129 463.432 199.129ZM471.527 193.37C470.344 193.37 469.837 193.864 469.525 194.371L469.382 193.37H468.459V200H469.525V196.62C469.525 195.567 469.902 194.41 471.293 194.41H471.826V193.37H471.527ZM475.944 200.078C477.881 200.078 479.233 198.7 479.233 196.685C479.233 194.67 477.881 193.292 475.944 193.292C474.007 193.292 472.655 194.67 472.655 196.685C472.655 198.7 474.007 200.078 475.944 200.078ZM475.944 199.129C474.631 199.129 473.747 198.102 473.747 196.685C473.747 195.268 474.631 194.241 475.944 194.241C477.257 194.241 478.141 195.268 478.141 196.685C478.141 198.102 477.257 199.129 475.944 199.129ZM488.373 193.292C487.19 193.292 486.475 193.838 486.072 194.553C485.695 193.708 484.902 193.292 483.979 193.292C482.952 193.292 482.393 193.799 482.042 194.28L481.899 193.37H480.976V200H482.042V196.503C482.042 195.177 482.705 194.267 483.797 194.267C484.811 194.267 485.396 194.943 485.396 196.243V200H486.462V196.451C486.462 195.099 487.138 194.267 488.243 194.267C489.244 194.267 489.816 194.943 489.816 196.243V200H490.882V196.178C490.882 194.085 489.751 193.292 488.373 193.292ZM496.11 193.292C494.992 193.292 494.277 193.825 493.835 194.436L493.692 193.37H492.769V202.6H493.835V198.986C494.238 199.623 494.992 200.078 496.11 200.078C497.943 200.078 499.295 198.713 499.295 196.685C499.295 194.527 497.943 193.292 496.11 193.292ZM496.006 199.129C494.706 199.129 493.822 198.115 493.822 196.659C493.822 195.242 494.706 194.241 496.006 194.241C497.319 194.241 498.203 195.242 498.203 196.685C498.203 198.128 497.319 199.129 496.006 199.129ZM501.451 198.271C501.451 199.441 501.906 200 503.18 200H504.337V199.025H503.284C502.712 199.025 502.517 198.817 502.517 198.258V194.345H504.233V193.37H502.517V191.511H501.451V193.37H500.255V194.345H501.451V198.271Z" fill="#F1F1F7"/>
<path d="M481.503 163.827H479.345V164.724H481.503V167.012H482.478V164.724H484.649V163.827H482.478V161.552H481.503V163.827Z" fill="#F1F1F7"/>
<path d="M130.428 79H132.255V64.3H130.428V79ZM140.522 68.164C138.716 68.164 137.624 68.92 136.994 69.739L136.763 68.29H135.272V79H136.994V73.645C136.994 71.23 138.212 69.739 140.228 69.739C142.097 69.739 143.126 70.915 143.126 73.141V79H144.848V73.036C144.848 69.487 142.937 68.164 140.522 68.164ZM152.86 68.164C151.054 68.164 149.899 69.025 149.185 70.012L148.954 68.29H147.463V83.2H149.185V77.362C149.836 78.391 151.054 79.126 152.86 79.126C155.821 79.126 158.005 76.921 158.005 73.645C158.005 70.159 155.821 68.164 152.86 68.164ZM152.692 77.593C150.592 77.593 149.164 75.955 149.164 73.603C149.164 71.314 150.592 69.697 152.692 69.697C154.813 69.697 156.241 71.314 156.241 73.645C156.241 75.976 154.813 77.593 152.692 77.593ZM167.89 73.645C167.89 76.06 166.714 77.551 164.761 77.551C162.976 77.551 161.968 76.375 161.968 74.149V68.29H160.246V74.254C160.246 77.803 162.115 79.126 164.467 79.126C166.231 79.126 167.26 78.37 167.89 77.572L168.121 79H169.612V68.29H167.89V73.645ZM173.218 76.207C173.218 78.097 173.953 79 176.011 79H177.88V77.425H176.179C175.255 77.425 174.94 77.089 174.94 76.186V69.865H177.712V68.29H174.94V65.287H173.218V68.29H171.286V69.865H173.218V76.207ZM184.953 65.98H189.72V79H191.547V65.98H196.314V64.3H184.953V65.98ZM201.379 79.126C203.857 79.126 205.621 77.551 206.041 75.409H204.298C203.941 76.795 202.765 77.593 201.253 77.593C199.216 77.593 197.935 76.165 197.872 74.128V73.981H206.188C206.209 73.729 206.23 73.477 206.23 73.246C206.146 70.075 204.172 68.164 201.148 68.164C198.124 68.164 196.066 70.39 196.066 73.645C196.066 76.921 198.166 79.126 201.379 79.126ZM197.977 72.553C198.145 70.81 199.594 69.676 201.169 69.676C202.954 69.676 204.214 70.705 204.382 72.553H197.977ZM207.03 79H208.983L212.112 74.695L215.241 79H217.299L213.204 73.498L217.026 68.29H215.073L212.196 72.259L209.361 68.29H207.303L211.104 73.498L207.03 79ZM219.841 76.207C219.841 78.097 220.576 79 222.634 79H224.503V77.425H222.802C221.878 77.425 221.563 77.089 221.563 76.186V69.865H224.335V68.29H221.563V65.287H219.841V68.29H217.909V69.865H219.841V76.207Z" fill="#262626"/>
<rect x="129" y="97" width="183" height="96" rx="4" fill="#EBEBF8"/>
<rect x="137" y="109" width="167" height="8" rx="4" fill="#333293" fill-opacity="0.4"/>
<rect x="137" y="125" width="167" height="8" rx="4" fill="#333293" fill-opacity="0.4"/>
<rect x="137" y="141" width="167" height="8" rx="4" fill="#333293" fill-opacity="0.4"/>
<rect x="137" y="157" width="167" height="8" rx="4" fill="#333293" fill-opacity="0.4"/>
<rect x="137" y="173" width="167" height="8" rx="4" fill="#333293" fill-opacity="0.4"/>
<rect x="208" y="125" width="60" height="8" rx="4" fill="#333293"/>
<rect x="156" y="157" width="34" height="8" rx="4" fill="#333293"/>
<rect x="652" y="97" width="183" height="96" rx="4" fill="#EBEBF8"/>
<rect x="731" y="125" width="60" height="8" rx="4" fill="#333293"/>
<rect x="679" y="157" width="34" height="8" rx="4" fill="#333293"/>
<path d="M653.428 79H663.067V77.32H655.255V72.364H661.534V70.684H655.255V65.98H662.794V64.3H653.428V79ZM664.151 79H666.104L669.233 74.695L672.362 79H674.42L670.325 73.498L674.147 68.29H672.194L669.317 72.259L666.482 68.29H664.424L668.225 73.498L664.151 79ZM676.962 76.207C676.962 78.097 677.697 79 679.755 79H681.624V77.425H679.923C678.999 77.425 678.684 77.089 678.684 76.186V69.865H681.456V68.29H678.684V65.287H676.962V68.29H675.03V69.865H676.962V76.207ZM688.493 68.29C686.582 68.29 685.763 69.088 685.259 69.907L685.028 68.29H683.537V79H685.259V73.54C685.259 71.839 685.868 69.97 688.115 69.97H688.976V68.29H688.493ZM699.99 77.425C699.507 77.425 699.297 77.278 699.297 76.711V72.028C699.297 69.529 697.722 68.164 694.992 68.164C692.409 68.164 690.708 69.403 690.456 71.503H692.178C692.388 70.411 693.396 69.697 694.908 69.697C696.588 69.697 697.575 70.537 697.575 71.923V72.658H694.425C691.611 72.658 690.12 73.855 690.12 75.997C690.12 77.95 691.716 79.126 694.068 79.126C695.916 79.126 696.987 78.307 697.659 77.341C697.68 78.391 698.163 79 699.591 79H700.536V77.425H699.99ZM697.575 74.632C697.575 76.417 696.336 77.656 694.194 77.656C692.766 77.656 691.863 76.942 691.863 75.892C691.863 74.674 692.724 74.107 694.257 74.107H697.575V74.632ZM706.966 79.126C709.57 79.126 711.313 77.656 711.733 75.346H709.906C709.57 76.711 708.52 77.593 706.987 77.593C704.929 77.593 703.543 75.997 703.543 73.666C703.543 71.335 704.929 69.697 706.987 69.697C708.562 69.697 709.612 70.558 709.927 71.986H711.733C711.292 69.634 709.633 68.164 707.008 68.164C703.9 68.164 701.779 70.39 701.779 73.666C701.779 77.005 703.837 79.126 706.966 79.126ZM714.839 76.207C714.839 78.097 715.574 79 717.632 79H719.501V77.425H717.8C716.876 77.425 716.561 77.089 716.561 76.186V69.865H719.333V68.29H716.561V65.287H714.839V68.29H712.907V69.865H714.839V76.207ZM726.081 79.126C728.559 79.126 730.323 77.551 730.743 75.409H729C728.643 76.795 727.467 77.593 725.955 77.593C723.918 77.593 722.637 76.165 722.574 74.128V73.981H730.89C730.911 73.729 730.932 73.477 730.932 73.246C730.848 70.075 728.874 68.164 725.85 68.164C722.826 68.164 720.768 70.39 720.768 73.645C720.768 76.921 722.868 79.126 726.081 79.126ZM722.679 72.553C722.847 70.81 724.296 69.676 725.871 69.676C727.656 69.676 728.916 70.705 729.084 72.553H722.679ZM741.759 69.928C741.108 68.899 739.89 68.164 738.084 68.164C735.123 68.164 732.939 70.369 732.939 73.645C732.939 77.131 735.123 79.126 738.084 79.126C739.89 79.126 741.045 78.265 741.759 77.278L741.99 79H743.481V64.3H741.759V69.928ZM738.252 77.593C736.131 77.593 734.703 75.976 734.703 73.645C734.703 71.314 736.131 69.697 738.252 69.697C740.352 69.697 741.78 71.335 741.78 73.687C741.78 75.976 740.352 77.593 738.252 77.593ZM752.415 79H754.242V75.178L757.161 71.881L762.117 79H764.301L758.505 70.495L763.881 64.3H761.655L754.242 72.637V64.3H752.415V79ZM770.561 79.126C773.039 79.126 774.803 77.551 775.223 75.409H773.48C773.123 76.795 771.947 77.593 770.435 77.593C768.398 77.593 767.117 76.165 767.054 74.128V73.981H775.37C775.391 73.729 775.412 73.477 775.412 73.246C775.328 70.075 773.354 68.164 770.33 68.164C767.306 68.164 765.248 70.39 765.248 73.645C765.248 76.921 767.348 79.126 770.561 79.126ZM767.159 72.553C767.327 70.81 768.776 69.676 770.351 69.676C772.136 69.676 773.396 70.705 773.564 72.553H767.159ZM780.433 79.063L779.908 80.365C779.509 81.373 779.341 81.625 778.354 81.625H776.821V83.2H778.879C780.391 83.2 780.79 82.528 781.462 80.806L786.397 68.29H784.57L781.378 76.837L778.081 68.29H776.254L780.433 79.063ZM790.579 79H792.469L795.157 71.041L797.74 79H799.63L803.2 68.29H801.457L798.664 77.005L795.997 68.29H794.401L791.587 77.005L788.92 68.29H787.114L790.579 79ZM809.555 79.126C812.684 79.126 814.868 76.9 814.868 73.645C814.868 70.39 812.684 68.164 809.555 68.164C806.426 68.164 804.242 70.39 804.242 73.645C804.242 76.9 806.426 79.126 809.555 79.126ZM809.555 77.593C807.434 77.593 806.006 75.934 806.006 73.645C806.006 71.356 807.434 69.697 809.555 69.697C811.676 69.697 813.104 71.356 813.104 73.645C813.104 75.934 811.676 77.593 809.555 77.593ZM822.219 68.29C820.308 68.29 819.489 69.088 818.985 69.907L818.754 68.29H817.263V79H818.985V73.54C818.985 71.839 819.594 69.97 821.841 69.97H822.702V68.29H822.219ZM832.442 69.928C831.791 68.899 830.573 68.164 828.767 68.164C825.806 68.164 823.622 70.369 823.622 73.645C823.622 77.131 825.806 79.126 828.767 79.126C830.573 79.126 831.728 78.265 832.442 77.278L832.673 79H834.164V64.3H832.442V69.928ZM828.935 77.593C826.814 77.593 825.386 75.976 825.386 73.645C825.386 71.314 826.814 69.697 828.935 69.697C831.035 69.697 832.463 71.335 832.463 73.687C832.463 75.976 831.035 77.593 828.935 77.593ZM836.488 75.472C836.53 77.824 838.441 79.126 841.213 79.126C843.586 79.126 845.497 77.887 845.497 75.892C845.497 73.519 843.544 73.057 841.108 72.763C839.554 72.574 838.42 72.427 838.42 71.251C838.42 70.264 839.428 69.634 840.919 69.634C842.389 69.634 843.397 70.453 843.523 71.545H845.287C845.119 69.319 843.355 68.185 840.919 68.164C838.504 68.143 836.719 69.424 836.719 71.377C836.719 73.603 838.63 74.086 841.024 74.38C842.62 74.569 843.796 74.674 843.796 76.018C843.796 77.005 842.725 77.656 841.213 77.656C839.428 77.656 838.315 76.732 838.252 75.472H836.488Z" fill="#262626"/>
<path d="M379 144H318" stroke="black" stroke-width="1.5" stroke-linecap="round" stroke-dasharray="0.5 8"/>
<path d="M385.5 144C385.5 147.59 382.59 150.5 379 150.5C375.41 150.5 372.5 147.59 372.5 144C372.5 140.41 375.41 137.5 379 137.5C382.59 137.5 385.5 140.41 385.5 144Z" fill="#333293" stroke="#333293"/>
<path d="M652 144H591" stroke="black" stroke-width="1.5" stroke-linecap="round" stroke-dasharray="0.5 8"/>
<path d="M658.5 144C658.5 147.59 655.59 150.5 652 150.5C648.41 150.5 645.5 147.59 645.5 144C645.5 140.41 648.41 137.5 652 137.5C655.59 137.5 658.5 140.41 658.5 144Z" fill="#333293" stroke="#333293"/>
<path d="M655.471 143.946C655.471 143.862 655.454 143.784 655.422 143.712C655.389 143.64 655.34 143.572 655.275 143.507L651.472 139.786C651.364 139.679 651.231 139.625 651.071 139.625C650.967 139.625 650.871 139.651 650.783 139.703C650.695 139.752 650.625 139.819 650.573 139.903C650.524 139.988 650.5 140.084 650.5 140.191C650.5 140.344 650.559 140.481 650.676 140.602L654.104 143.946L650.676 147.291C650.559 147.411 650.5 147.55 650.5 147.706C650.5 147.81 650.524 147.905 650.573 147.989C650.625 148.077 650.695 148.146 650.783 148.194C650.871 148.246 650.967 148.272 651.071 148.272C651.231 148.272 651.364 148.217 651.472 148.106L655.275 144.386C655.34 144.321 655.389 144.252 655.422 144.181C655.454 144.109 655.471 144.031 655.471 143.946Z" fill="#FBFBFB"/>
<path d="M382.471 143.946C382.471 143.862 382.454 143.784 382.422 143.712C382.389 143.64 382.34 143.572 382.275 143.507L378.472 139.786C378.364 139.679 378.231 139.625 378.071 139.625C377.967 139.625 377.871 139.651 377.783 139.703C377.695 139.752 377.625 139.819 377.573 139.903C377.524 139.988 377.5 140.084 377.5 140.191C377.5 140.344 377.559 140.481 377.676 140.602L381.104 143.946L377.676 147.291C377.559 147.411 377.5 147.55 377.5 147.706C377.5 147.81 377.524 147.905 377.573 147.989C377.625 148.077 377.695 148.146 377.783 148.194C377.871 148.246 377.967 148.272 378.071 148.272C378.231 148.272 378.364 148.217 378.472 148.106L382.275 144.386C382.34 144.321 382.389 144.252 382.422 144.181C382.454 144.109 382.471 144.031 382.471 143.946Z" fill="#FBFBFB"/>
</svg>
