<svg width="975" height="433" viewBox="0 0 975 433" fill="none" xmlns="http://www.w3.org/2000/svg">
<rect width="975" height="433" fill="#F7F7F7"/>
<rect x="75" y="40" width="51" height="60" rx="4" fill="#917EF3"/>
<rect x="75.5" y="40.5" width="50" height="59" rx="3.5" stroke="#917EF3" stroke-opacity="0.25"/>
<rect x="81" y="49" width="30" height="6" rx="3" fill="#333293" fill-opacity="0.6"/>
<rect x="81" y="73" width="39" height="6" rx="3" fill="#333293" fill-opacity="0.6"/>
<rect x="81" y="61" width="35" height="6" rx="3" fill="#333293" fill-opacity="0.6"/>
<rect x="81" y="85" width="30" height="6" rx="3" fill="#333293" fill-opacity="0.6"/>
<rect x="75" y="187" width="51" height="60" rx="4" fill="#EBEBF8"/>
<rect x="75.5" y="187.5" width="50" height="59" rx="3.5" stroke="#917EF3" stroke-opacity="0.25"/>
<rect x="75" y="261" width="51" height="59" rx="4" fill="#F1F1F7"/>
<rect x="75.5" y="261.5" width="50" height="58" rx="3.5" stroke="#917EF3" stroke-opacity="0.25"/>
<rect x="75" y="114" width="51" height="59" rx="4" fill="#D9D9F2"/>
<rect x="75.5" y="114.5" width="50" height="58" rx="3.5" stroke="#917EF3" stroke-opacity="0.25"/>
<rect x="136" y="40" width="51" height="60" rx="4" fill="#EBEBF8"/>
<rect x="136.5" y="40.5" width="50" height="59" rx="3.5" stroke="#917EF3" stroke-opacity="0.25"/>
<rect x="197" y="40" width="51" height="60" rx="4" fill="#D9D9F2"/>
<rect x="197.5" y="40.5" width="50" height="59" rx="3.5" stroke="#917EF3" stroke-opacity="0.25"/>
<rect x="258" y="40" width="51" height="60" rx="4" fill="#F1F1F7"/>
<rect x="258.5" y="40.5" width="50" height="59" rx="3.5" stroke="#917EF3" stroke-opacity="0.25"/>
<rect x="136" y="187" width="51" height="60" rx="4" fill="#917EF3"/>
<rect x="136.5" y="187.5" width="50" height="59" rx="3.5" stroke="#917EF3" stroke-opacity="0.25"/>
<rect x="197" y="187" width="51" height="60" rx="4" fill="#EBEBF8"/>
<rect x="197.5" y="187.5" width="50" height="59" rx="3.5" stroke="#917EF3" stroke-opacity="0.25"/>
<rect x="258" y="187" width="51" height="60" rx="4" fill="#EBEBF8"/>
<rect x="258.5" y="187.5" width="50" height="59" rx="3.5" stroke="#917EF3" stroke-opacity="0.25"/>
<rect x="136" y="261" width="51" height="59" rx="4" fill="#EBEBF8"/>
<rect x="136.5" y="261.5" width="50" height="58" rx="3.5" stroke="#917EF3" stroke-opacity="0.25"/>
<rect x="142" y="196" width="30" height="6" rx="3" fill="#333293" fill-opacity="0.6"/>
<rect x="142" y="220" width="39" height="6" rx="3" fill="#333293" fill-opacity="0.6"/>
<rect x="142" y="208" width="35" height="6" rx="3" fill="#333293" fill-opacity="0.6"/>
<rect x="142" y="232" width="30" height="6" rx="3" fill="#333293" fill-opacity="0.6"/>
<rect x="197" y="261" width="51" height="59" rx="4" fill="#F1F1F7"/>
<rect x="197.5" y="261.5" width="50" height="58" rx="3.5" stroke="#917EF3" stroke-opacity="0.25"/>
<rect x="258" y="261" width="51" height="59" rx="4" fill="#D9D9F2"/>
<rect x="258.5" y="261.5" width="50" height="58" rx="3.5" stroke="#917EF3" stroke-opacity="0.25"/>
<rect x="136" y="114" width="51" height="59" rx="4" fill="#EBEBF8"/>
<rect x="136.5" y="114.5" width="50" height="58" rx="3.5" stroke="#917EF3" stroke-opacity="0.25"/>
<rect x="197" y="114" width="51" height="59" rx="4" fill="#EBEBF8"/>
<rect x="197.5" y="114.5" width="50" height="58" rx="3.5" stroke="#917EF3" stroke-opacity="0.25"/>
<rect x="258" y="114" width="51" height="59" rx="4" fill="#EBEBF8"/>
<rect x="258.5" y="114.5" width="50" height="58" rx="3.5" stroke="#917EF3" stroke-opacity="0.25"/>
<rect x="75" y="334" width="51" height="59" rx="4" fill="#EBEBF8"/>
<rect x="75.5" y="334.5" width="50" height="58" rx="3.5" stroke="#917EF3" stroke-opacity="0.25"/>
<rect x="136" y="334" width="51" height="59" rx="4" fill="#D9D9F2"/>
<rect x="136.5" y="334.5" width="50" height="58" rx="3.5" stroke="#917EF3" stroke-opacity="0.25"/>
<rect x="197" y="334" width="51" height="59" rx="4" fill="#917EF3"/>
<rect x="197.5" y="334.5" width="50" height="58" rx="3.5" stroke="#917EF3" stroke-opacity="0.25"/>
<rect x="258" y="334" width="51" height="59" rx="4" fill="#EBEBF8"/>
<rect x="258.5" y="334.5" width="50" height="58" rx="3.5" stroke="#917EF3" stroke-opacity="0.25"/>
<path d="M658.733 127.561V133H660.56V127.561L666.104 118.3H664.046L659.657 125.587L655.331 118.3H653.189L658.733 127.561ZM670.995 133.126C674.124 133.126 676.308 130.9 676.308 127.645C676.308 124.39 674.124 122.164 670.995 122.164C667.866 122.164 665.682 124.39 665.682 127.645C665.682 130.9 667.866 133.126 670.995 133.126ZM670.995 131.593C668.874 131.593 667.446 129.934 667.446 127.645C667.446 125.356 668.874 123.697 670.995 123.697C673.116 123.697 674.544 125.356 674.544 127.645C674.544 129.934 673.116 131.593 670.995 131.593ZM686.2 127.645C686.2 130.06 685.024 131.551 683.071 131.551C681.286 131.551 680.278 130.375 680.278 128.149V122.29H678.556V128.254C678.556 131.803 680.425 133.126 682.777 133.126C684.541 133.126 685.57 132.37 686.2 131.572L686.431 133H687.922V122.29H686.2V127.645ZM706.076 131.425C705.593 131.425 705.383 131.278 705.383 130.711V126.028C705.383 123.529 703.808 122.164 701.078 122.164C698.495 122.164 696.794 123.403 696.542 125.503H698.264C698.474 124.411 699.482 123.697 700.994 123.697C702.674 123.697 703.661 124.537 703.661 125.923V126.658H700.511C697.697 126.658 696.206 127.855 696.206 129.997C696.206 131.95 697.802 133.126 700.154 133.126C702.002 133.126 703.073 132.307 703.745 131.341C703.766 132.391 704.249 133 705.677 133H706.622V131.425H706.076ZM703.661 128.632C703.661 130.417 702.422 131.656 700.28 131.656C698.852 131.656 697.949 130.942 697.949 129.892C697.949 128.674 698.81 128.107 700.343 128.107H703.661V128.632ZM713.322 122.29C711.411 122.29 710.592 123.088 710.088 123.907L709.857 122.29H708.366V133H710.088V127.54C710.088 125.839 710.697 123.97 712.944 123.97H713.805V122.29H713.322ZM720.037 133.126C722.515 133.126 724.279 131.551 724.699 129.409H722.956C722.599 130.795 721.423 131.593 719.911 131.593C717.874 131.593 716.593 130.165 716.53 128.128V127.981H724.846C724.867 127.729 724.888 127.477 724.888 127.246C724.804 124.075 722.83 122.164 719.806 122.164C716.782 122.164 714.724 124.39 714.724 127.645C714.724 130.921 716.824 133.126 720.037 133.126ZM716.635 126.553C716.803 124.81 718.252 123.676 719.827 123.676C721.612 123.676 722.872 124.705 723.04 126.553H716.635ZM738.145 122.29C736.234 122.29 735.415 123.088 734.911 123.907L734.68 122.29H733.189V133H734.911V127.54C734.911 125.839 735.52 123.97 737.767 123.97H738.628V122.29H738.145ZM744.861 133.126C747.339 133.126 749.103 131.551 749.523 129.409H747.78C747.423 130.795 746.247 131.593 744.735 131.593C742.698 131.593 741.417 130.165 741.354 128.128V127.981H749.67C749.691 127.729 749.712 127.477 749.712 127.246C749.628 124.075 747.654 122.164 744.63 122.164C741.606 122.164 739.548 124.39 739.548 127.645C739.548 130.921 741.648 133.126 744.861 133.126ZM741.459 126.553C741.627 124.81 743.076 123.676 744.651 123.676C746.436 123.676 747.696 124.705 747.864 126.553H741.459ZM761.568 131.425C761.085 131.425 760.875 131.278 760.875 130.711V126.028C760.875 123.529 759.3 122.164 756.57 122.164C753.987 122.164 752.286 123.403 752.034 125.503H753.756C753.966 124.411 754.974 123.697 756.486 123.697C758.166 123.697 759.153 124.537 759.153 125.923V126.658H756.003C753.189 126.658 751.698 127.855 751.698 129.997C751.698 131.95 753.294 133.126 755.646 133.126C757.494 133.126 758.565 132.307 759.237 131.341C759.258 132.391 759.741 133 761.169 133H762.114V131.425H761.568ZM759.153 128.632C759.153 130.417 757.914 131.656 755.772 131.656C754.344 131.656 753.441 130.942 753.441 129.892C753.441 128.674 754.302 128.107 755.835 128.107H759.153V128.632ZM772.176 123.928C771.525 122.899 770.307 122.164 768.501 122.164C765.54 122.164 763.356 124.369 763.356 127.645C763.356 131.131 765.54 133.126 768.501 133.126C770.307 133.126 771.462 132.265 772.176 131.278L772.407 133H773.898V118.3H772.176V123.928ZM768.669 131.593C766.548 131.593 765.12 129.976 765.12 127.645C765.12 125.314 766.548 123.697 768.669 123.697C770.769 123.697 772.197 125.335 772.197 127.687C772.197 129.976 770.769 131.593 768.669 131.593ZM777.546 120.484C778.176 120.484 778.659 120.022 778.659 119.371C778.659 118.72 778.176 118.258 777.546 118.258C776.916 118.258 776.433 118.72 776.433 119.371C776.433 120.022 776.916 120.484 777.546 120.484ZM776.664 133H778.386V122.29H776.664V133ZM786.415 122.164C784.609 122.164 783.517 122.92 782.887 123.739L782.656 122.29H781.165V133H782.887V127.645C782.887 125.23 784.105 123.739 786.121 123.739C787.99 123.739 789.019 124.915 789.019 127.141V133H790.741V127.036C790.741 123.487 788.83 122.164 786.415 122.164ZM801.799 124.138C801.127 122.941 799.93 122.164 798.124 122.164C795.163 122.164 792.979 124.369 792.979 127.645C792.979 131.131 795.163 133.126 798.124 133.126C799.93 133.126 801.085 132.37 801.799 131.152V132.412C801.799 134.743 800.581 135.793 798.334 135.793C796.549 135.793 795.352 135.037 795.058 133.693H793.294C793.567 136.045 795.478 137.326 798.208 137.326C801.883 137.326 803.521 135.562 803.521 132.475V122.29H802.03L801.799 124.138ZM798.292 131.593C796.171 131.593 794.743 129.976 794.743 127.645C794.743 125.314 796.171 123.697 798.292 123.697C800.392 123.697 801.82 125.335 801.82 127.687C801.82 129.976 800.392 131.593 798.292 131.593Z" fill="#262626"/>
<rect x="820" y="111" width="23" height="27" rx="2" fill="#917EF3"/>
<rect x="820.5" y="111.5" width="22" height="26" rx="1.5" stroke="#917EF3" stroke-opacity="0.25"/>
<path d="M654.735 161.472C654.777 163.824 656.688 165.126 659.46 165.126C661.833 165.126 663.744 163.887 663.744 161.892C663.744 159.519 661.791 159.057 659.355 158.763C657.801 158.574 656.667 158.427 656.667 157.251C656.667 156.264 657.675 155.634 659.166 155.634C660.636 155.634 661.644 156.453 661.77 157.545H663.534C663.366 155.319 661.602 154.185 659.166 154.164C656.751 154.143 654.966 155.424 654.966 157.377C654.966 159.603 656.877 160.086 659.271 160.38C660.867 160.569 662.043 160.674 662.043 162.018C662.043 163.005 660.972 163.656 659.46 163.656C657.675 163.656 656.562 162.732 656.499 161.472H654.735ZM671.01 165.126C674.139 165.126 676.323 162.9 676.323 159.645C676.323 156.39 674.139 154.164 671.01 154.164C667.881 154.164 665.697 156.39 665.697 159.645C665.697 162.9 667.881 165.126 671.01 165.126ZM671.01 163.593C668.889 163.593 667.461 161.934 667.461 159.645C667.461 157.356 668.889 155.697 671.01 155.697C673.131 155.697 674.559 157.356 674.559 159.645C674.559 161.934 673.131 163.593 671.01 163.593ZM687.742 165.063L687.217 166.365C686.818 167.373 686.65 167.625 685.663 167.625H684.13V169.2H686.188C687.7 169.2 688.099 168.528 688.771 166.806L693.706 154.29H691.879L688.687 162.837L685.39 154.29H683.563L687.742 165.063ZM699.874 165.126C703.003 165.126 705.187 162.9 705.187 159.645C705.187 156.39 703.003 154.164 699.874 154.164C696.745 154.164 694.561 156.39 694.561 159.645C694.561 162.9 696.745 165.126 699.874 165.126ZM699.874 163.593C697.753 163.593 696.325 161.934 696.325 159.645C696.325 157.356 697.753 155.697 699.874 155.697C701.995 155.697 703.423 157.356 703.423 159.645C703.423 161.934 701.995 163.593 699.874 163.593ZM715.079 159.645C715.079 162.06 713.903 163.551 711.95 163.551C710.165 163.551 709.157 162.375 709.157 160.149V154.29H707.435V160.254C707.435 163.803 709.304 165.126 711.656 165.126C713.42 165.126 714.449 164.37 715.079 163.572L715.31 165H716.801V154.29H715.079V159.645ZM737.433 154.164C735.522 154.164 734.367 155.046 733.716 156.201C733.107 154.836 731.826 154.164 730.335 154.164C728.676 154.164 727.773 154.983 727.206 155.76L726.975 154.29H725.484V165H727.206V159.351C727.206 157.209 728.277 155.739 730.041 155.739C731.679 155.739 732.624 156.831 732.624 158.931V165H734.346V159.267C734.346 157.083 735.438 155.739 737.223 155.739C738.84 155.739 739.764 156.831 739.764 158.931V165H741.486V158.826C741.486 155.445 739.659 154.164 737.433 154.164ZM744.997 152.484C745.627 152.484 746.11 152.022 746.11 151.371C746.11 150.72 745.627 150.258 744.997 150.258C744.367 150.258 743.884 150.72 743.884 151.371C743.884 152.022 744.367 152.484 744.997 152.484ZM744.115 165H745.837V154.29H744.115V165ZM757.058 156.138C756.386 154.941 755.189 154.164 753.383 154.164C750.422 154.164 748.238 156.369 748.238 159.645C748.238 163.131 750.422 165.126 753.383 165.126C755.189 165.126 756.344 164.37 757.058 163.152V164.412C757.058 166.743 755.84 167.793 753.593 167.793C751.808 167.793 750.611 167.037 750.317 165.693H748.553C748.826 168.045 750.737 169.326 753.467 169.326C757.142 169.326 758.78 167.562 758.78 164.475V154.29H757.289L757.058 156.138ZM753.551 163.593C751.43 163.593 750.002 161.976 750.002 159.645C750.002 157.314 751.43 155.697 753.551 155.697C755.651 155.697 757.079 157.335 757.079 159.687C757.079 161.976 755.651 163.593 753.551 163.593ZM766.796 154.164C764.99 154.164 763.898 155.046 763.268 156.054V150.3H761.546V165H763.268V159.645C763.268 157.23 764.507 155.739 766.502 155.739C768.35 155.739 769.421 156.915 769.421 159.141V165H771.143V159.036C771.143 155.487 769.19 154.164 766.796 154.164ZM774.556 162.207C774.556 164.097 775.291 165 777.349 165H779.218V163.425H777.517C776.593 163.425 776.278 163.089 776.278 162.186V155.865H779.05V154.29H776.278V151.287H774.556V154.29H772.624V155.865H774.556V162.207ZM796.517 163.425C796.034 163.425 795.824 163.278 795.824 162.711V158.028C795.824 155.529 794.249 154.164 791.519 154.164C788.936 154.164 787.235 155.403 786.983 157.503H788.705C788.915 156.411 789.923 155.697 791.435 155.697C793.115 155.697 794.102 156.537 794.102 157.923V158.658H790.952C788.138 158.658 786.647 159.855 786.647 161.997C786.647 163.95 788.243 165.126 790.595 165.126C792.443 165.126 793.514 164.307 794.186 163.341C794.207 164.391 794.69 165 796.118 165H797.063V163.425H796.517ZM794.102 160.632C794.102 162.417 792.863 163.656 790.721 163.656C789.293 163.656 788.39 162.942 788.39 161.892C788.39 160.674 789.251 160.107 790.784 160.107H794.102V160.632ZM798.807 165H800.529V150.3H798.807V165ZM802.867 161.472C802.909 163.824 804.82 165.126 807.592 165.126C809.965 165.126 811.876 163.887 811.876 161.892C811.876 159.519 809.923 159.057 807.487 158.763C805.933 158.574 804.799 158.427 804.799 157.251C804.799 156.264 805.807 155.634 807.298 155.634C808.768 155.634 809.776 156.453 809.902 157.545H811.666C811.498 155.319 809.734 154.185 807.298 154.164C804.883 154.143 803.098 155.424 803.098 157.377C803.098 159.603 805.009 160.086 807.403 160.38C808.999 160.569 810.175 160.674 810.175 162.018C810.175 163.005 809.104 163.656 807.592 163.656C805.807 163.656 804.694 162.732 804.631 161.472H802.867ZM819.143 165.126C822.272 165.126 824.456 162.9 824.456 159.645C824.456 156.39 822.272 154.164 819.143 154.164C816.014 154.164 813.83 156.39 813.83 159.645C813.83 162.9 816.014 165.126 819.143 165.126ZM819.143 163.593C817.022 163.593 815.594 161.934 815.594 159.645C815.594 157.356 817.022 155.697 819.143 155.697C821.264 155.697 822.692 157.356 822.692 159.645C822.692 161.934 821.264 163.593 819.143 163.593ZM832.766 165H834.488V150.3H832.766V165ZM838.149 152.484C838.779 152.484 839.262 152.022 839.262 151.371C839.262 150.72 838.779 150.258 838.149 150.258C837.519 150.258 837.036 150.72 837.036 151.371C837.036 152.022 837.519 152.484 838.149 152.484ZM837.267 165H838.989V154.29H837.267V165ZM841.768 165H843.49V162.186L845.653 159.96L849.202 165H851.281L846.808 158.721L850.987 154.29H848.866L843.49 159.981V150.3H841.768V165ZM857.234 165.126C859.712 165.126 861.476 163.551 861.896 161.409H860.153C859.796 162.795 858.62 163.593 857.108 163.593C855.071 163.593 853.79 162.165 853.727 160.128V159.981H862.043C862.064 159.729 862.085 159.477 862.085 159.246C862.001 156.075 860.027 154.164 857.003 154.164C853.979 154.164 851.921 156.39 851.921 159.645C851.921 162.921 854.021 165.126 857.234 165.126ZM853.832 158.553C854 156.81 855.449 155.676 857.024 155.676C858.809 155.676 860.069 156.705 860.237 158.553H853.832ZM863.562 163.95C863.562 164.664 864.066 165.126 864.759 165.126C865.452 165.126 865.956 164.664 865.956 163.95C865.956 163.236 865.452 162.774 864.759 162.774C864.066 162.774 863.562 163.236 863.562 163.95ZM868.31 163.95C868.31 164.664 868.814 165.126 869.507 165.126C870.2 165.126 870.704 164.664 870.704 163.95C870.704 163.236 870.2 162.774 869.507 162.774C868.814 162.774 868.31 163.236 868.31 163.95ZM873.057 163.95C873.057 164.664 873.561 165.126 874.254 165.126C874.947 165.126 875.451 164.664 875.451 163.95C875.451 163.236 874.947 162.774 874.254 162.774C873.561 162.774 873.057 163.236 873.057 163.95Z" fill="#262626"/>
<rect x="669" y="206" width="66" height="77" rx="4" fill="#917EF3"/>
<rect x="669.5" y="206.5" width="65" height="76" rx="3.5" stroke="#917EF3" stroke-opacity="0.25"/>
<rect x="744" y="206" width="66" height="77" rx="4" fill="#917EF3"/>
<rect x="744.5" y="206.5" width="65" height="76" rx="3.5" stroke="#917EF3" stroke-opacity="0.25"/>
<rect x="819" y="206" width="66" height="77" rx="4" fill="#917EF3"/>
<rect x="819.5" y="206.5" width="65" height="76" rx="3.5" stroke="#917EF3" stroke-opacity="0.25"/>
<rect x="203" y="343" width="30" height="6" rx="3" fill="#333293" fill-opacity="0.6"/>
<rect x="203" y="367" width="39" height="6" rx="3" fill="#333293" fill-opacity="0.6"/>
<rect x="203" y="355" width="35" height="6" rx="3" fill="#333293" fill-opacity="0.6"/>
<rect x="203" y="379" width="30" height="6" rx="3" fill="#333293" fill-opacity="0.6"/>
<rect x="653.5" y="190.5" width="247" height="108" rx="3.5" stroke="#2B2649"/>
<path d="M653 245L599 245" stroke="black" stroke-width="1.5" stroke-linecap="round" stroke-dasharray="0.5 8"/>
<ellipse cx="653" cy="244" rx="7" ry="7" fill="#333293"/>
<path d="M382 246H321" stroke="black" stroke-width="1.5" stroke-linecap="round" stroke-dasharray="0.5 8"/>
<circle cx="486" cy="247" r="103" fill="#333293" fill-opacity="0.9"/>
<path d="M453.753 200H463.392V198.32H455.58V193.364H461.859V191.684H455.58V186.98H463.119V185.3H453.753V200ZM477.559 189.164C475.648 189.164 474.493 190.046 473.842 191.201C473.233 189.836 471.952 189.164 470.461 189.164C468.802 189.164 467.899 189.983 467.332 190.76L467.101 189.29H465.61V200H467.332V194.351C467.332 192.209 468.403 190.739 470.167 190.739C471.805 190.739 472.75 191.831 472.75 193.931V200H474.472V194.267C474.472 192.083 475.564 190.739 477.349 190.739C478.966 190.739 479.89 191.831 479.89 193.931V200H481.612V193.826C481.612 190.445 479.785 189.164 477.559 189.164ZM489.638 189.164C487.832 189.164 486.677 190.025 485.963 191.012V185.3H484.241V200H485.732L485.963 198.362C486.614 199.391 487.832 200.126 489.638 200.126C492.599 200.126 494.783 197.921 494.783 194.645C494.783 191.159 492.599 189.164 489.638 189.164ZM489.47 198.593C487.37 198.593 485.942 196.955 485.942 194.603C485.942 192.314 487.37 190.697 489.47 190.697C491.591 190.697 493.019 192.314 493.019 194.645C493.019 196.976 491.591 198.593 489.47 198.593ZM502.106 200.126C504.584 200.126 506.348 198.551 506.768 196.409H505.025C504.668 197.795 503.492 198.593 501.98 198.593C499.943 198.593 498.662 197.165 498.599 195.128V194.981H506.915C506.936 194.729 506.957 194.477 506.957 194.246C506.873 191.075 504.899 189.164 501.875 189.164C498.851 189.164 496.793 191.39 496.793 194.645C496.793 197.921 498.893 200.126 502.106 200.126ZM498.704 193.553C498.872 191.81 500.321 190.676 501.896 190.676C503.681 190.676 504.941 191.705 505.109 193.553H498.704ZM517.784 190.928C517.133 189.899 515.915 189.164 514.109 189.164C511.148 189.164 508.964 191.369 508.964 194.645C508.964 198.131 511.148 200.126 514.109 200.126C515.915 200.126 517.07 199.265 517.784 198.278L518.015 200H519.506V185.3H517.784V190.928ZM514.277 198.593C512.156 198.593 510.728 196.976 510.728 194.645C510.728 192.314 512.156 190.697 514.277 190.697C516.377 190.697 517.805 192.335 517.805 194.687C517.805 196.976 516.377 198.593 514.277 198.593Z" fill="#F1F1F7"/>
<path d="M456.093 253.126C459.411 253.126 461.847 251.236 462.393 248.191H460.461C459.915 250.249 458.34 251.446 456.072 251.446C452.985 251.446 451.095 249.031 451.095 245.65C451.095 242.248 453.069 239.854 456.156 239.854C458.361 239.854 459.915 241.072 460.482 243.109H462.414C461.868 240.064 459.495 238.174 456.24 238.174C451.977 238.174 449.226 241.198 449.226 245.65C449.226 250.144 451.872 253.126 456.093 253.126ZM464.767 253H466.489V238.3H464.767V253ZM478.739 251.425C478.256 251.425 478.046 251.278 478.046 250.711V246.028C478.046 243.529 476.471 242.164 473.741 242.164C471.158 242.164 469.457 243.403 469.205 245.503H470.927C471.137 244.411 472.145 243.697 473.657 243.697C475.337 243.697 476.324 244.537 476.324 245.923V246.658H473.174C470.36 246.658 468.869 247.855 468.869 249.997C468.869 251.95 470.465 253.126 472.817 253.126C474.665 253.126 475.736 252.307 476.408 251.341C476.429 252.391 476.912 253 478.34 253H479.285V251.425H478.739ZM476.324 248.632C476.324 250.417 475.085 251.656 472.943 251.656C471.515 251.656 470.612 250.942 470.612 249.892C470.612 248.674 471.473 248.107 473.006 248.107H476.324V248.632ZM480.588 249.472C480.63 251.824 482.541 253.126 485.313 253.126C487.686 253.126 489.597 251.887 489.597 249.892C489.597 247.519 487.644 247.057 485.208 246.763C483.654 246.574 482.52 246.427 482.52 245.251C482.52 244.264 483.528 243.634 485.019 243.634C486.489 243.634 487.497 244.453 487.623 245.545H489.387C489.219 243.319 487.455 242.185 485.019 242.164C482.604 242.143 480.819 243.424 480.819 245.377C480.819 247.603 482.73 248.086 485.124 248.38C486.72 248.569 487.896 248.674 487.896 250.018C487.896 251.005 486.825 251.656 485.313 251.656C483.528 251.656 482.415 250.732 482.352 249.472H480.588ZM491.282 249.472C491.324 251.824 493.235 253.126 496.007 253.126C498.38 253.126 500.291 251.887 500.291 249.892C500.291 247.519 498.338 247.057 495.902 246.763C494.348 246.574 493.214 246.427 493.214 245.251C493.214 244.264 494.222 243.634 495.713 243.634C497.183 243.634 498.191 244.453 498.317 245.545H500.081C499.913 243.319 498.149 242.185 495.713 242.164C493.298 242.143 491.513 243.424 491.513 245.377C491.513 247.603 493.424 248.086 495.818 248.38C497.414 248.569 498.59 248.674 498.59 250.018C498.59 251.005 497.519 251.656 496.007 251.656C494.222 251.656 493.109 250.732 493.046 249.472H491.282ZM503.505 240.484C504.135 240.484 504.618 240.022 504.618 239.371C504.618 238.72 504.135 238.258 503.505 238.258C502.875 238.258 502.392 238.72 502.392 239.371C502.392 240.022 502.875 240.484 503.505 240.484ZM502.623 253H504.345V242.29H502.623V253ZM505.99 243.865H507.922V253H509.644V243.865H512.668V242.29H509.644V241.051C509.644 240.232 509.959 239.875 510.82 239.875H512.668V238.3H510.715C508.72 238.3 507.922 239.203 507.922 241.093V242.29H505.99V243.865ZM517.584 253.063L517.059 254.365C516.66 255.373 516.492 255.625 515.505 255.625H513.972V257.2H516.03C517.542 257.2 517.941 256.528 518.613 254.806L523.548 242.29H521.721L518.529 250.837L515.232 242.29H513.405L517.584 253.063Z" fill="#F1F1F7"/>
<path d="M453.52 308H463.159V306.32H455.347V301.364H461.626V299.684H455.347V294.98H462.886V293.3H453.52V308ZM464.243 308H466.196L469.325 303.695L472.454 308H474.512L470.417 302.498L474.239 297.29H472.286L469.409 301.259L466.574 297.29H464.516L468.317 302.498L464.243 308ZM477.054 305.207C477.054 307.097 477.789 308 479.847 308H481.716V306.425H480.015C479.091 306.425 478.776 306.089 478.776 305.186V298.865H481.548V297.29H478.776V294.287H477.054V297.29H475.122V298.865H477.054V305.207ZM488.584 297.29C486.673 297.29 485.854 298.088 485.35 298.907L485.119 297.29H483.628V308H485.35V302.54C485.35 300.839 485.959 298.97 488.206 298.97H489.067V297.29H488.584ZM500.082 306.425C499.599 306.425 499.389 306.278 499.389 305.711V301.028C499.389 298.529 497.814 297.164 495.084 297.164C492.501 297.164 490.8 298.403 490.548 300.503H492.27C492.48 299.411 493.488 298.697 495 298.697C496.68 298.697 497.667 299.537 497.667 300.923V301.658H494.517C491.703 301.658 490.212 302.855 490.212 304.997C490.212 306.95 491.808 308.126 494.16 308.126C496.008 308.126 497.079 307.307 497.751 306.341C497.772 307.391 498.255 308 499.683 308H500.628V306.425H500.082ZM497.667 303.632C497.667 305.417 496.428 306.656 494.286 306.656C492.858 306.656 491.955 305.942 491.955 304.892C491.955 303.674 492.816 303.107 494.349 303.107H497.667V303.632ZM507.057 308.126C509.661 308.126 511.404 306.656 511.824 304.346H509.997C509.661 305.711 508.611 306.593 507.078 306.593C505.02 306.593 503.634 304.997 503.634 302.666C503.634 300.335 505.02 298.697 507.078 298.697C508.653 298.697 509.703 299.558 510.018 300.986H511.824C511.383 298.634 509.724 297.164 507.099 297.164C503.991 297.164 501.87 299.39 501.87 302.666C501.87 306.005 503.928 308.126 507.057 308.126ZM514.93 305.207C514.93 307.097 515.665 308 517.723 308H519.592V306.425H517.891C516.967 306.425 516.652 306.089 516.652 305.186V298.865H519.424V297.29H516.652V294.287H514.93V297.29H512.998V298.865H514.93V305.207Z" fill="#F1F1F7"/>
<rect x="142" y="49" width="30" height="6" rx="3" fill="#333293" fill-opacity="0.4"/>
<rect x="142" y="73" width="39" height="6" rx="3" fill="#333293" fill-opacity="0.4"/>
<rect x="142" y="61" width="35" height="6" rx="3" fill="#333293" fill-opacity="0.4"/>
<rect x="142" y="85" width="30" height="6" rx="3" fill="#333293" fill-opacity="0.4"/>
<rect x="203" y="49" width="30" height="6" rx="3" fill="#333293" fill-opacity="0.4"/>
<rect x="203" y="73" width="39" height="6" rx="3" fill="#333293" fill-opacity="0.4"/>
<rect x="203" y="61" width="35" height="6" rx="3" fill="#333293" fill-opacity="0.4"/>
<rect x="203" y="85" width="30" height="6" rx="3" fill="#333293" fill-opacity="0.4"/>
<rect x="264" y="49" width="30" height="6" rx="3" fill="#333293" fill-opacity="0.4"/>
<rect x="264" y="73" width="39" height="6" rx="3" fill="#333293" fill-opacity="0.4"/>
<rect x="264" y="61" width="35" height="6" rx="3" fill="#333293" fill-opacity="0.4"/>
<rect x="264" y="85" width="30" height="6" rx="3" fill="#333293" fill-opacity="0.4"/>
<rect x="264" y="123" width="30" height="6" rx="3" fill="#333293" fill-opacity="0.4"/>
<rect x="264" y="147" width="39" height="6" rx="3" fill="#333293" fill-opacity="0.4"/>
<rect x="264" y="135" width="35" height="6" rx="3" fill="#333293" fill-opacity="0.4"/>
<rect x="264" y="159" width="30" height="6" rx="3" fill="#333293" fill-opacity="0.4"/>
<rect x="203" y="123" width="30" height="6" rx="3" fill="#333293" fill-opacity="0.4"/>
<rect x="203" y="147" width="39" height="6" rx="3" fill="#333293" fill-opacity="0.4"/>
<rect x="203" y="135" width="35" height="6" rx="3" fill="#333293" fill-opacity="0.4"/>
<rect x="203" y="159" width="30" height="6" rx="3" fill="#333293" fill-opacity="0.4"/>
<rect x="142" y="123" width="30" height="6" rx="3" fill="#333293" fill-opacity="0.4"/>
<rect x="142" y="147" width="39" height="6" rx="3" fill="#333293" fill-opacity="0.4"/>
<rect x="142" y="135" width="35" height="6" rx="3" fill="#333293" fill-opacity="0.4"/>
<rect x="142" y="159" width="30" height="6" rx="3" fill="#333293" fill-opacity="0.4"/>
<rect x="81" y="123" width="30" height="6" rx="3" fill="#333293" fill-opacity="0.4"/>
<rect x="81" y="147" width="39" height="6" rx="3" fill="#333293" fill-opacity="0.4"/>
<rect x="81" y="135" width="35" height="6" rx="3" fill="#333293" fill-opacity="0.4"/>
<rect x="81" y="159" width="30" height="6" rx="3" fill="#333293" fill-opacity="0.4"/>
<rect x="81" y="196" width="30" height="6" rx="3" fill="#333293" fill-opacity="0.4"/>
<rect x="81" y="220" width="39" height="6" rx="3" fill="#333293" fill-opacity="0.4"/>
<rect x="81" y="208" width="35" height="6" rx="3" fill="#333293" fill-opacity="0.4"/>
<rect x="81" y="232" width="30" height="6" rx="3" fill="#333293" fill-opacity="0.4"/>
<rect x="203" y="196" width="30" height="6" rx="3" fill="#333293" fill-opacity="0.4"/>
<rect x="203" y="220" width="39" height="6" rx="3" fill="#333293" fill-opacity="0.4"/>
<rect x="203" y="208" width="35" height="6" rx="3" fill="#333293" fill-opacity="0.4"/>
<rect x="203" y="232" width="30" height="6" rx="3" fill="#333293" fill-opacity="0.4"/>
<rect x="264" y="196" width="30" height="6" rx="3" fill="#333293" fill-opacity="0.4"/>
<rect x="264" y="220" width="39" height="6" rx="3" fill="#333293" fill-opacity="0.4"/>
<rect x="264" y="208" width="35" height="6" rx="3" fill="#333293" fill-opacity="0.4"/>
<rect x="264" y="232" width="30" height="6" rx="3" fill="#333293" fill-opacity="0.4"/>
<rect x="265" y="270" width="30" height="6" rx="3" fill="#333293" fill-opacity="0.4"/>
<rect x="265" y="294" width="39" height="6" rx="3" fill="#333293" fill-opacity="0.4"/>
<rect x="265" y="282" width="35" height="6" rx="3" fill="#333293" fill-opacity="0.4"/>
<rect x="265" y="306" width="30" height="6" rx="3" fill="#333293" fill-opacity="0.4"/>
<rect x="265" y="343" width="30" height="6" rx="3" fill="#333293" fill-opacity="0.4"/>
<rect x="265" y="367" width="39" height="6" rx="3" fill="#333293" fill-opacity="0.4"/>
<rect x="265" y="355" width="35" height="6" rx="3" fill="#333293" fill-opacity="0.4"/>
<rect x="265" y="379" width="30" height="6" rx="3" fill="#333293" fill-opacity="0.4"/>
<rect x="203" y="270" width="30" height="6" rx="3" fill="#333293" fill-opacity="0.4"/>
<rect x="203" y="294" width="39" height="6" rx="3" fill="#333293" fill-opacity="0.4"/>
<rect x="203" y="282" width="35" height="6" rx="3" fill="#333293" fill-opacity="0.4"/>
<rect x="203" y="306" width="30" height="6" rx="3" fill="#333293" fill-opacity="0.4"/>
<rect x="142" y="270" width="30" height="6" rx="3" fill="#333293" fill-opacity="0.4"/>
<rect x="142" y="294" width="39" height="6" rx="3" fill="#333293" fill-opacity="0.4"/>
<rect x="142" y="282" width="35" height="6" rx="3" fill="#333293" fill-opacity="0.4"/>
<rect x="142" y="306" width="30" height="6" rx="3" fill="#333293" fill-opacity="0.4"/>
<rect x="81" y="270" width="30" height="6" rx="3" fill="#333293" fill-opacity="0.4"/>
<rect x="81" y="294" width="39" height="6" rx="3" fill="#333293" fill-opacity="0.4"/>
<rect x="81" y="282" width="35" height="6" rx="3" fill="#333293" fill-opacity="0.4"/>
<rect x="81" y="306" width="30" height="6" rx="3" fill="#333293" fill-opacity="0.4"/>
<rect x="81" y="343" width="30" height="6" rx="3" fill="#333293" fill-opacity="0.4"/>
<rect x="81" y="367" width="39" height="6" rx="3" fill="#333293" fill-opacity="0.4"/>
<rect x="81" y="355" width="35" height="6" rx="3" fill="#333293" fill-opacity="0.4"/>
<rect x="81" y="379" width="30" height="6" rx="3" fill="#333293" fill-opacity="0.4"/>
<rect x="142" y="343" width="30" height="6" rx="3" fill="#333293" fill-opacity="0.4"/>
<rect x="142" y="367" width="39" height="6" rx="3" fill="#333293" fill-opacity="0.4"/>
<rect x="142" y="355" width="35" height="6" rx="3" fill="#333293" fill-opacity="0.4"/>
<rect x="142" y="379" width="30" height="6" rx="3" fill="#333293" fill-opacity="0.4"/>
<rect x="677" y="217" width="39" height="9" rx="4.5" fill="#333293" fill-opacity="0.6"/>
<rect x="677" y="249" width="50" height="8" rx="4" fill="#333293" fill-opacity="0.6"/>
<rect x="677" y="233" width="45" height="8" rx="4" fill="#333293" fill-opacity="0.6"/>
<rect x="677" y="264" width="39" height="9" rx="4.5" fill="#333293" fill-opacity="0.6"/>
<rect x="752" y="217" width="39" height="9" rx="4.5" fill="#333293" fill-opacity="0.6"/>
<rect x="752" y="249" width="50" height="8" rx="4" fill="#333293" fill-opacity="0.6"/>
<rect x="752" y="233" width="45" height="8" rx="4" fill="#333293" fill-opacity="0.6"/>
<rect x="752" y="264" width="39" height="9" rx="4.5" fill="#333293" fill-opacity="0.6"/>
<rect x="827" y="217" width="39" height="9" rx="4.5" fill="#333293" fill-opacity="0.6"/>
<rect x="827" y="249" width="50" height="8" rx="4" fill="#333293" fill-opacity="0.6"/>
<rect x="827" y="233" width="45" height="8" rx="4" fill="#333293" fill-opacity="0.6"/>
<rect x="827" y="264" width="39" height="9" rx="4.5" fill="#333293" fill-opacity="0.6"/>
<path d="M656.471 243.946C656.471 243.862 656.454 243.784 656.422 243.712C656.389 243.64 656.34 243.572 656.275 243.507L652.472 239.786C652.364 239.679 652.231 239.625 652.071 239.625C651.967 239.625 651.871 239.651 651.783 239.703C651.695 239.752 651.625 239.819 651.573 239.903C651.524 239.988 651.5 240.084 651.5 240.191C651.5 240.344 651.559 240.481 651.676 240.602L655.104 243.946L651.676 247.291C651.559 247.411 651.5 247.55 651.5 247.706C651.5 247.81 651.524 247.905 651.573 247.989C651.625 248.077 651.695 248.146 651.783 248.194C651.871 248.246 651.967 248.272 652.071 248.272C652.231 248.272 652.364 248.217 652.472 248.106L656.275 244.386C656.34 244.321 656.389 244.252 656.422 244.181C656.454 244.109 656.471 244.031 656.471 243.946Z" fill="#FBFBFB"/>
<ellipse cx="383" cy="245" rx="7" ry="7" fill="#333293"/>
<path d="M386.471 244.946C386.471 244.862 386.454 244.784 386.422 244.712C386.389 244.64 386.34 244.572 386.275 244.507L382.472 240.786C382.364 240.679 382.231 240.625 382.071 240.625C381.967 240.625 381.871 240.651 381.783 240.703C381.695 240.752 381.625 240.819 381.573 240.903C381.524 240.988 381.5 241.084 381.5 241.191C381.5 241.344 381.559 241.481 381.676 241.602L385.104 244.946L381.676 248.291C381.559 248.411 381.5 248.55 381.5 248.706C381.5 248.81 381.524 248.905 381.573 248.989C381.625 249.077 381.695 249.146 381.783 249.194C381.871 249.246 381.967 249.272 382.071 249.272C382.231 249.272 382.364 249.217 382.472 249.106L386.275 245.386C386.34 245.321 386.389 245.252 386.422 245.181C386.454 245.109 386.471 245.031 386.471 244.946Z" fill="#FBFBFB"/>
</svg>
