<svg width="975" height="459" viewBox="0 0 975 459" fill="none" xmlns="http://www.w3.org/2000/svg">
<rect width="975" height="459" fill="#F7F7F7"/>
<path d="M696 332H623" stroke="black" stroke-width="1.5" stroke-linecap="round" stroke-dasharray="0.5 8"/>
<circle cx="536" cy="332" r="87" fill="#333293" fill-opacity="0.9"/>
<path d="M502.217 335.17C502.301 338.11 504.506 340.126 508.16 340.126C511.394 340.126 513.599 338.299 513.599 335.653C513.62 332.755 511.247 331.978 508.811 331.537C506.501 331.138 504.989 330.823 504.989 329.311C504.989 327.925 506.144 327.211 507.803 327.211C509.588 327.211 510.764 328.219 510.953 329.71H513.368C513.263 327.001 511.163 325.174 507.803 325.174C504.674 325.174 502.574 326.917 502.574 329.479C502.574 332.398 504.884 333.175 507.32 333.595C509.651 334.015 511.184 334.351 511.184 335.905C511.184 337.312 509.924 338.089 508.181 338.089C506.123 338.089 504.779 336.934 504.653 335.212L502.217 335.17ZM521.017 340.126C523.684 340.126 525.49 338.509 525.868 336.388H523.6C523.285 337.585 522.277 338.278 520.891 338.278C519.106 338.278 517.951 337.081 517.888 335.254V335.107H525.994C526.036 334.813 526.057 334.519 526.057 334.246C525.994 331.096 523.915 329.122 520.807 329.122C517.636 329.122 515.515 331.327 515.515 334.645C515.515 337.942 517.636 340.126 521.017 340.126ZM517.972 333.448C518.14 331.915 519.379 330.949 520.828 330.949C522.403 330.949 523.516 331.852 523.705 333.448H517.972ZM538.138 338.026C537.676 338.026 537.445 337.879 537.445 337.333V333.028C537.445 330.487 535.807 329.122 532.951 329.122C530.242 329.122 528.436 330.424 528.205 332.524H530.431C530.599 331.579 531.502 330.949 532.846 330.949C534.337 330.949 535.198 331.684 535.198 332.881V333.532H532.489C529.486 333.532 527.89 334.771 527.89 336.976C527.89 338.971 529.528 340.126 531.88 340.126C533.623 340.126 534.715 339.37 535.429 338.278C535.429 339.349 535.933 340 537.403 340H538.6V338.026H538.138ZM535.198 335.59C535.177 337.249 534.085 338.362 532.195 338.362C530.956 338.362 530.2 337.732 530.2 336.829C530.2 335.737 530.977 335.212 532.384 335.212H535.198V335.59ZM545.695 329.248C543.931 329.248 543.07 329.962 542.524 330.865L542.272 329.248H540.256V340H542.524V334.603C542.524 332.944 543.175 331.369 545.191 331.369H546.199V329.248H545.695ZM552.44 340.126C555.191 340.126 557.018 338.593 557.438 336.157H555.044C554.771 337.396 553.847 338.194 552.461 338.194C550.634 338.194 549.437 336.745 549.437 334.645C549.437 332.524 550.634 331.054 552.461 331.054C553.868 331.054 554.771 331.831 555.065 333.091H557.438C556.997 330.655 555.275 329.122 552.503 329.122C549.248 329.122 547.106 331.327 547.106 334.645C547.106 338.005 549.185 340.126 552.44 340.126ZM565.243 329.122C563.563 329.122 562.534 329.878 561.862 330.802V325.3H559.594V340H561.862V334.561C561.862 332.398 562.954 331.075 564.739 331.075C566.419 331.075 567.322 332.167 567.322 334.204V340H569.59V334.015C569.59 330.424 567.637 329.122 565.243 329.122Z" fill="#F1F1F7"/>
<rect x="477" y="157" width="40" height="40" rx="4" fill="#EBEBF8"/>
<rect x="477.5" y="157.5" width="39" height="39" rx="3.5" stroke="#917EF3" stroke-opacity="0.25"/>
<rect x="516" y="157" width="40" height="40" rx="4" fill="#EBEBF8"/>
<rect x="516.5" y="157.5" width="39" height="39" rx="3.5" stroke="#917EF3" stroke-opacity="0.25"/>
<rect x="555" y="157" width="40" height="40" rx="4" fill="#EBEBF8"/>
<rect x="555.5" y="157.5" width="39" height="39" rx="3.5" stroke="#917EF3" stroke-opacity="0.25"/>
<rect x="104" y="261" width="40" height="40" rx="4" fill="#EBEBF8"/>
<rect x="104.5" y="261.5" width="39" height="39" rx="3.5" stroke="#917EF3" stroke-opacity="0.25"/>
<rect x="143" y="261" width="40" height="40" rx="4" fill="#EBEBF8"/>
<rect x="143.5" y="261.5" width="39" height="39" rx="3.5" stroke="#917EF3" stroke-opacity="0.25"/>
<rect x="182" y="261" width="40" height="40" rx="4" fill="#EBEBF8"/>
<rect x="182.5" y="261.5" width="39" height="39" rx="3.5" stroke="#917EF3" stroke-opacity="0.25"/>
<rect x="437" y="40" width="197" height="40" rx="4" fill="#EBEBF8"/>
<rect x="437.5" y="40.5" width="196" height="39" rx="3.5" stroke="#917EF3" stroke-opacity="0.25"/>
<rect x="104" y="312" width="40" height="40" rx="4" fill="#EBEBF8"/>
<rect x="104.5" y="312.5" width="39" height="39" rx="3.5" stroke="#917EF3" stroke-opacity="0.25"/>
<rect x="143" y="312" width="40" height="40" rx="4" fill="#EBEBF8"/>
<rect x="143.5" y="312.5" width="39" height="39" rx="3.5" stroke="#917EF3" stroke-opacity="0.25"/>
<rect x="182" y="312" width="40" height="40" rx="4" fill="#EBEBF8"/>
<rect x="182.5" y="312.5" width="39" height="39" rx="3.5" stroke="#917EF3" stroke-opacity="0.25"/>
<rect x="104" y="363" width="40" height="40" rx="4" fill="#EBEBF8"/>
<rect x="104.5" y="363.5" width="39" height="39" rx="3.5" stroke="#917EF3" stroke-opacity="0.25"/>
<rect x="143" y="363" width="40" height="40" rx="4" fill="#EBEBF8"/>
<rect x="143.5" y="363.5" width="39" height="39" rx="3.5" stroke="#917EF3" stroke-opacity="0.25"/>
<rect x="182" y="363" width="40" height="40" rx="4" fill="#EBEBF8"/>
<rect x="182.5" y="363.5" width="39" height="39" rx="3.5" stroke="#917EF3" stroke-opacity="0.25"/>
<path d="M536 245V197" stroke="black" stroke-width="1.5" stroke-linecap="round" stroke-dasharray="0.5 8"/>
<path d="M437 332H379" stroke="black" stroke-width="1.5" stroke-linecap="round" stroke-dasharray="0.5 8"/>
<rect x="697.5" y="245.5" width="173" height="173" rx="3.5" stroke="#2B2649"/>
<path d="M536 131L536 81" stroke="black" stroke-width="1.5" stroke-linecap="round" stroke-dasharray="0.5 8"/>
<path d="M704.5 333C704.5 336.59 701.59 339.5 698 339.5C694.41 339.5 691.5 336.59 691.5 333C691.5 329.41 694.41 326.5 698 326.5C701.59 326.5 704.5 329.41 704.5 333Z" fill="#333293" stroke="#333293"/>
<path d="M701.471 332.946C701.471 332.862 701.454 332.784 701.422 332.712C701.389 332.64 701.34 332.572 701.275 332.507L697.472 328.786C697.364 328.679 697.231 328.625 697.071 328.625C696.967 328.625 696.871 328.651 696.783 328.703C696.695 328.752 696.625 328.819 696.573 328.903C696.524 328.988 696.5 329.084 696.5 329.191C696.5 329.344 696.559 329.481 696.676 329.602L700.104 332.946L696.676 336.291C696.559 336.411 696.5 336.55 696.5 336.706C696.5 336.81 696.524 336.905 696.573 336.989C696.625 337.077 696.695 337.146 696.783 337.194C696.871 337.246 696.967 337.272 697.071 337.272C697.231 337.272 697.364 337.217 697.472 337.106L701.275 333.386C701.34 333.321 701.389 333.252 701.422 333.181C701.454 333.109 701.471 333.031 701.471 332.946Z" fill="#FBFBFB"/>
<path d="M455.5 332C455.5 335.59 452.59 338.5 449 338.5C445.41 338.5 442.5 335.59 442.5 332C442.5 328.41 445.41 325.5 449 325.5C452.59 325.5 455.5 328.41 455.5 332Z" fill="#333293" stroke="#333293"/>
<path d="M452.471 331.946C452.471 331.862 452.454 331.784 452.422 331.712C452.389 331.64 452.34 331.572 452.275 331.507L448.472 327.786C448.364 327.679 448.231 327.625 448.071 327.625C447.967 327.625 447.871 327.651 447.783 327.703C447.695 327.752 447.625 327.819 447.573 327.903C447.524 327.988 447.5 328.084 447.5 328.191C447.5 328.344 447.559 328.481 447.676 328.602L451.104 331.946L447.676 335.291C447.559 335.411 447.5 335.55 447.5 335.706C447.5 335.81 447.524 335.905 447.573 335.989C447.625 336.077 447.695 336.146 447.783 336.194C447.871 336.246 447.967 336.272 448.071 336.272C448.231 336.272 448.364 336.217 448.472 336.106L452.275 332.386C452.34 332.321 452.389 332.252 452.422 332.181C452.454 332.109 452.471 332.031 452.471 331.946Z" fill="#FBFBFB"/>
<path d="M542.5 246C542.5 249.59 539.59 252.5 536 252.5C532.41 252.5 529.5 249.59 529.5 246C529.5 242.41 532.41 239.5 536 239.5C539.59 239.5 542.5 242.41 542.5 246Z" fill="#333293" stroke="#333293"/>
<path d="M536.054 249.471C536.138 249.471 536.216 249.454 536.288 249.422C536.36 249.389 536.428 249.34 536.493 249.275L540.214 245.472C540.321 245.364 540.375 245.231 540.375 245.071C540.375 244.967 540.349 244.871 540.297 244.783C540.248 244.695 540.181 244.625 540.097 244.573C540.012 244.524 539.916 244.5 539.809 244.5C539.656 244.5 539.519 244.559 539.398 244.676L536.054 248.104L532.709 244.676C532.589 244.559 532.45 244.5 532.294 244.5C532.19 244.5 532.095 244.524 532.011 244.573C531.923 244.625 531.854 244.695 531.806 244.783C531.754 244.871 531.728 244.967 531.728 245.071C531.728 245.231 531.783 245.364 531.894 245.472L535.614 249.275C535.679 249.34 535.748 249.389 535.819 249.422C535.891 249.454 535.969 249.471 536.054 249.471Z" fill="#FBFBFB"/>
<path d="M484.786 148.88C484.366 148.88 484.128 148.754 483.862 148.404C484.548 147.536 484.94 146.402 484.94 145.1C484.94 142.216 483.022 140.116 480.264 140.116C477.506 140.116 475.588 142.216 475.588 145.1C475.588 147.984 477.506 150.084 480.264 150.084C481.342 150.084 482.308 149.762 483.064 149.188L483.162 149.328C483.512 149.804 483.904 150 484.646 150H485.542V148.88H484.786ZM480.264 148.964C478.22 148.964 476.834 147.354 476.834 145.1C476.834 142.846 478.22 141.236 480.264 141.236C482.308 141.236 483.694 142.846 483.694 145.1C483.694 145.968 483.484 146.752 483.106 147.368L482.798 146.948C482.448 146.472 482.098 146.262 481.44 146.262H480.418V147.382H481.244C481.594 147.382 481.832 147.522 482.098 147.872L482.364 148.236C481.804 148.698 481.09 148.964 480.264 148.964ZM491.924 146.43C491.924 148.04 491.14 149.034 489.838 149.034C488.648 149.034 487.976 148.25 487.976 146.766V142.86H486.828V146.836C486.828 149.202 488.074 150.084 489.642 150.084C490.818 150.084 491.504 149.58 491.924 149.048L492.078 150H493.072V142.86H491.924V146.43ZM498.487 150.084C500.139 150.084 501.315 149.034 501.595 147.606H500.433C500.195 148.53 499.411 149.062 498.403 149.062C497.045 149.062 496.191 148.11 496.149 146.752V146.654H501.693C501.707 146.486 501.721 146.318 501.721 146.164C501.665 144.05 500.349 142.776 498.333 142.776C496.317 142.776 494.945 144.26 494.945 146.43C494.945 148.614 496.345 150.084 498.487 150.084ZM496.219 145.702C496.331 144.54 497.297 143.784 498.347 143.784C499.537 143.784 500.377 144.47 500.489 145.702H496.219ZM506.895 142.86C505.621 142.86 505.075 143.392 504.739 143.938L504.585 142.86H503.591V150H504.739V146.36C504.739 145.226 505.145 143.98 506.643 143.98H507.217V142.86H506.895ZM510.899 150.042L510.549 150.91C510.283 151.582 510.171 151.75 509.513 151.75H508.491V152.8H509.863C510.871 152.8 511.137 152.352 511.585 151.204L514.875 142.86H513.657L511.529 148.558L509.331 142.86H508.113L510.899 150.042ZM520.683 150H527.109V148.88H521.901V145.576H526.087V144.456H521.901V141.32H526.927V140.2H520.683V150ZM536.834 142.776C535.56 142.776 534.79 143.364 534.356 144.134C533.95 143.224 533.096 142.776 532.102 142.776C530.996 142.776 530.394 143.322 530.016 143.84L529.862 142.86H528.868V150H530.016V146.234C530.016 144.806 530.73 143.826 531.906 143.826C532.998 143.826 533.628 144.554 533.628 145.954V150H534.776V146.178C534.776 144.722 535.504 143.826 536.694 143.826C537.772 143.826 538.388 144.554 538.388 145.954V150H539.536V145.884C539.536 143.63 538.318 142.776 536.834 142.776ZM545.167 142.776C543.963 142.776 543.193 143.35 542.717 144.008V140.2H541.569V150H542.563L542.717 148.908C543.151 149.594 543.963 150.084 545.167 150.084C547.141 150.084 548.597 148.614 548.597 146.43C548.597 144.106 547.141 142.776 545.167 142.776ZM545.055 149.062C543.655 149.062 542.703 147.97 542.703 146.402C542.703 144.876 543.655 143.798 545.055 143.798C546.469 143.798 547.421 144.876 547.421 146.43C547.421 147.984 546.469 149.062 545.055 149.062ZM553.759 150.084C555.411 150.084 556.587 149.034 556.867 147.606H555.705C555.467 148.53 554.683 149.062 553.675 149.062C552.317 149.062 551.463 148.11 551.421 146.752V146.654H556.965C556.979 146.486 556.993 146.318 556.993 146.164C556.937 144.05 555.621 142.776 553.605 142.776C551.589 142.776 550.217 144.26 550.217 146.43C550.217 148.614 551.617 150.084 553.759 150.084ZM551.491 145.702C551.603 144.54 552.569 143.784 553.619 143.784C554.809 143.784 555.649 144.47 555.761 145.702H551.491ZM564.491 143.952C564.057 143.266 563.245 142.776 562.041 142.776C560.067 142.776 558.611 144.246 558.611 146.43C558.611 148.754 560.067 150.084 562.041 150.084C563.245 150.084 564.015 149.51 564.491 148.852L564.645 150H565.639V140.2H564.491V143.952ZM562.153 149.062C560.739 149.062 559.787 147.984 559.787 146.43C559.787 144.876 560.739 143.798 562.153 143.798C563.553 143.798 564.505 144.89 564.505 146.458C564.505 147.984 563.553 149.062 562.153 149.062ZM573.39 143.952C572.956 143.266 572.144 142.776 570.94 142.776C568.966 142.776 567.51 144.246 567.51 146.43C567.51 148.754 568.966 150.084 570.94 150.084C572.144 150.084 572.914 149.51 573.39 148.852L573.544 150H574.538V140.2H573.39V143.952ZM571.052 149.062C569.638 149.062 568.686 147.984 568.686 146.43C568.686 144.876 569.638 143.798 571.052 143.798C572.452 143.798 573.404 144.89 573.404 146.458C573.404 147.984 572.452 149.062 571.052 149.062ZM577.25 141.656C577.67 141.656 577.992 141.348 577.992 140.914C577.992 140.48 577.67 140.172 577.25 140.172C576.83 140.172 576.508 140.48 576.508 140.914C576.508 141.348 576.83 141.656 577.25 141.656ZM576.662 150H577.81V142.86H576.662V150ZM583.443 142.776C582.239 142.776 581.511 143.28 581.091 143.826L580.937 142.86H579.943V150H581.091V146.43C581.091 144.82 581.903 143.826 583.247 143.826C584.493 143.826 585.179 144.61 585.179 146.094V150H586.327V146.024C586.327 143.658 585.053 142.776 583.443 142.776ZM593.979 144.092C593.531 143.294 592.733 142.776 591.529 142.776C589.555 142.776 588.099 144.246 588.099 146.43C588.099 148.754 589.555 150.084 591.529 150.084C592.733 150.084 593.503 149.58 593.979 148.768V149.608C593.979 151.162 593.167 151.862 591.669 151.862C590.479 151.862 589.681 151.358 589.485 150.462H588.309C588.491 152.03 589.765 152.884 591.585 152.884C594.035 152.884 595.127 151.708 595.127 149.65V142.86H594.133L593.979 144.092ZM591.641 149.062C590.227 149.062 589.275 147.984 589.275 146.43C589.275 144.876 590.227 143.798 591.641 143.798C593.041 143.798 593.993 144.89 593.993 146.458C593.993 147.984 593.041 149.062 591.641 149.062Z" fill="black"/>
<path d="M252.28 241.32H255.458V250H256.676V241.32H259.854V240.2H252.28V241.32ZM263.511 250.084C265.163 250.084 266.339 249.034 266.619 247.606H265.457C265.219 248.53 264.435 249.062 263.427 249.062C262.069 249.062 261.215 248.11 261.173 246.752V246.654H266.717C266.731 246.486 266.745 246.318 266.745 246.164C266.689 244.05 265.373 242.776 263.357 242.776C261.341 242.776 259.969 244.26 259.969 246.43C259.969 248.614 261.369 250.084 263.511 250.084ZM261.243 245.702C261.355 244.54 262.321 243.784 263.371 243.784C264.561 243.784 265.401 244.47 265.513 245.702H261.243ZM267.558 250H268.86L270.946 247.13L273.032 250H274.404L271.674 246.332L274.222 242.86H272.92L271.002 245.506L269.112 242.86H267.74L270.274 246.332L267.558 250ZM276.379 248.138C276.379 249.398 276.869 250 278.241 250H279.487V248.95H278.353C277.737 248.95 277.527 248.726 277.527 248.124V243.91H279.375V242.86H277.527V240.858H276.379V242.86H275.091V243.91H276.379V248.138Z" fill="black"/>
<path d="M104.952 250H111.378V248.88H106.17V245.576H110.356V244.456H106.17V241.32H111.196V240.2H104.952V250ZM121.103 242.776C119.829 242.776 119.059 243.364 118.625 244.134C118.219 243.224 117.365 242.776 116.371 242.776C115.265 242.776 114.663 243.322 114.285 243.84L114.131 242.86H113.137V250H114.285V246.234C114.285 244.806 114.999 243.826 116.175 243.826C117.267 243.826 117.897 244.554 117.897 245.954V250H119.045V246.178C119.045 244.722 119.773 243.826 120.963 243.826C122.041 243.826 122.657 244.554 122.657 245.954V250H123.805V245.884C123.805 243.63 122.587 242.776 121.103 242.776ZM129.436 242.776C128.232 242.776 127.462 243.35 126.986 244.008V240.2H125.838V250H126.832L126.986 248.908C127.42 249.594 128.232 250.084 129.436 250.084C131.41 250.084 132.866 248.614 132.866 246.43C132.866 244.106 131.41 242.776 129.436 242.776ZM129.324 249.062C127.924 249.062 126.972 247.97 126.972 246.402C126.972 244.876 127.924 243.798 129.324 243.798C130.738 243.798 131.69 244.876 131.69 246.43C131.69 247.984 130.738 249.062 129.324 249.062ZM138.027 250.084C139.679 250.084 140.855 249.034 141.135 247.606H139.973C139.735 248.53 138.951 249.062 137.943 249.062C136.585 249.062 135.731 248.11 135.689 246.752V246.654H141.233C141.247 246.486 141.261 246.318 141.261 246.164C141.205 244.05 139.889 242.776 137.873 242.776C135.857 242.776 134.485 244.26 134.485 246.43C134.485 248.614 135.885 250.084 138.027 250.084ZM135.759 245.702C135.871 244.54 136.837 243.784 137.887 243.784C139.077 243.784 139.917 244.47 140.029 245.702H135.759ZM148.759 243.952C148.325 243.266 147.513 242.776 146.309 242.776C144.335 242.776 142.879 244.246 142.879 246.43C142.879 248.754 144.335 250.084 146.309 250.084C147.513 250.084 148.283 249.51 148.759 248.852L148.913 250H149.907V240.2H148.759V243.952ZM146.421 249.062C145.007 249.062 144.055 247.984 144.055 246.43C144.055 244.876 145.007 243.798 146.421 243.798C147.821 243.798 148.773 244.89 148.773 246.458C148.773 247.984 147.821 249.062 146.421 249.062ZM157.659 243.952C157.225 243.266 156.413 242.776 155.209 242.776C153.235 242.776 151.779 244.246 151.779 246.43C151.779 248.754 153.235 250.084 155.209 250.084C156.413 250.084 157.183 249.51 157.659 248.852L157.813 250H158.807V240.2H157.659V243.952ZM155.321 249.062C153.907 249.062 152.955 247.984 152.955 246.43C152.955 244.876 153.907 243.798 155.321 243.798C156.721 243.798 157.673 244.89 157.673 246.458C157.673 247.984 156.721 249.062 155.321 249.062ZM161.519 241.656C161.939 241.656 162.261 241.348 162.261 240.914C162.261 240.48 161.939 240.172 161.519 240.172C161.099 240.172 160.777 240.48 160.777 240.914C160.777 241.348 161.099 241.656 161.519 241.656ZM160.931 250H162.079V242.86H160.931V250ZM167.712 242.776C166.508 242.776 165.78 243.28 165.36 243.826L165.206 242.86H164.212V250H165.36V246.43C165.36 244.82 166.172 243.826 167.516 243.826C168.762 243.826 169.448 244.61 169.448 246.094V250H170.596V246.024C170.596 243.658 169.322 242.776 167.712 242.776ZM178.247 244.092C177.799 243.294 177.001 242.776 175.797 242.776C173.823 242.776 172.367 244.246 172.367 246.43C172.367 248.754 173.823 250.084 175.797 250.084C177.001 250.084 177.771 249.58 178.247 248.768V249.608C178.247 251.162 177.435 251.862 175.937 251.862C174.747 251.862 173.949 251.358 173.753 250.462H172.577C172.759 252.03 174.033 252.884 175.853 252.884C178.303 252.884 179.395 251.708 179.395 249.65V242.86H178.401L178.247 244.092ZM175.909 249.062C174.495 249.062 173.543 247.984 173.543 246.43C173.543 244.876 174.495 243.798 175.909 243.798C177.309 243.798 178.261 244.89 178.261 246.458C178.261 247.984 177.309 249.062 175.909 249.062Z" fill="black"/>
<path d="M484.696 67H486.443L489.114 57.676L491.802 67H493.55L496.994 55.24H495.482L492.71 65.1184L489.921 55.24H488.442L485.553 65.1184L482.798 55.24H481.269L484.696 67ZM502.735 58.3312C501.291 58.3312 500.417 59.0368 499.913 59.8432V55.24H498.535V67H499.913V62.716C499.913 60.784 500.904 59.5912 502.5 59.5912C503.979 59.5912 504.835 60.532 504.835 62.3128V67H506.213V62.2288C506.213 59.3896 504.651 58.3312 502.735 58.3312ZM512.155 67.1008C514.137 67.1008 515.548 65.8408 515.884 64.1272H514.49C514.204 65.236 513.263 65.8744 512.054 65.8744C510.424 65.8744 509.399 64.732 509.349 63.1024V62.9848H516.002C516.019 62.7832 516.035 62.5816 516.035 62.3968C515.968 59.86 514.389 58.3312 511.97 58.3312C509.551 58.3312 507.904 60.112 507.904 62.716C507.904 65.3368 509.584 67.1008 512.155 67.1008ZM509.433 61.8424C509.567 60.448 510.727 59.5408 511.987 59.5408C513.415 59.5408 514.423 60.364 514.557 61.8424H509.433ZM521.908 58.432C520.379 58.432 519.724 59.0704 519.321 59.7256L519.136 58.432H517.943V67H519.321V62.632C519.321 61.2712 519.808 59.776 521.606 59.776H522.295V58.432H521.908ZM527.28 67.1008C529.263 67.1008 530.674 65.8408 531.01 64.1272H529.616C529.33 65.236 528.389 65.8744 527.18 65.8744C525.55 65.8744 524.525 64.732 524.475 63.1024V62.9848H531.128C531.144 62.7832 531.161 62.5816 531.161 62.3968C531.094 59.86 529.515 58.3312 527.096 58.3312C524.676 58.3312 523.03 60.112 523.03 62.716C523.03 65.3368 524.71 67.1008 527.28 67.1008ZM524.559 61.8424C524.693 60.448 525.852 59.5408 527.112 59.5408C528.54 59.5408 529.548 60.364 529.683 61.8424H524.559ZM538.508 56.9872C539.012 56.9872 539.398 56.6176 539.398 56.0968C539.398 55.576 539.012 55.2064 538.508 55.2064C538.004 55.2064 537.617 55.576 537.617 56.0968C537.617 56.6176 538.004 56.9872 538.508 56.9872ZM537.802 67H539.18V58.432H537.802V67ZM541.05 64.1776C541.084 66.0592 542.613 67.1008 544.83 67.1008C546.729 67.1008 548.257 66.1096 548.257 64.5136C548.257 62.6152 546.695 62.2456 544.746 62.0104C543.503 61.8592 542.596 61.7416 542.596 60.8008C542.596 60.0112 543.402 59.5072 544.595 59.5072C545.771 59.5072 546.577 60.1624 546.678 61.036H548.089C547.955 59.2552 546.544 58.348 544.595 58.3312C542.663 58.3144 541.235 59.3392 541.235 60.9016C541.235 62.6824 542.764 63.0688 544.679 63.304C545.956 63.4552 546.897 63.5392 546.897 64.6144C546.897 65.404 546.04 65.9248 544.83 65.9248C543.402 65.9248 542.512 65.1856 542.461 64.1776H541.05ZM555.057 67H559.341C562.13 67 563.608 65.7232 563.608 63.64C563.608 61.9432 562.516 61.1368 561.273 60.9016C562.382 60.5152 563.121 59.692 563.121 58.348C563.121 56.4496 561.727 55.24 559.223 55.24H555.057V67ZM559.291 56.5672C560.819 56.5672 561.659 57.2728 561.659 58.4488C561.659 59.6416 560.803 60.3472 559.291 60.3472H556.519V56.5672H559.291ZM559.341 61.6576C561.088 61.6576 562.113 62.38 562.113 63.7072C562.113 64.9168 561.155 65.6728 559.341 65.6728H556.519V61.6576H559.341ZM566.282 56.9872C566.786 56.9872 567.173 56.6176 567.173 56.0968C567.173 55.576 566.786 55.2064 566.282 55.2064C565.778 55.2064 565.392 55.576 565.392 56.0968C565.392 56.6176 565.778 56.9872 566.282 56.9872ZM565.577 67H566.954V58.432H565.577V67ZM575.931 59.9104C575.393 58.9528 574.436 58.3312 572.991 58.3312C570.622 58.3312 568.875 60.0952 568.875 62.716C568.875 65.5048 570.622 67.1008 572.991 67.1008C574.436 67.1008 575.36 66.496 575.931 65.5216V66.5296C575.931 68.3944 574.957 69.2344 573.159 69.2344C571.731 69.2344 570.773 68.6296 570.538 67.5544H569.127C569.345 69.436 570.874 70.4608 573.058 70.4608C575.998 70.4608 577.309 69.0496 577.309 66.58V58.432H576.116L575.931 59.9104ZM573.125 65.8744C571.429 65.8744 570.286 64.5808 570.286 62.716C570.286 60.8512 571.429 59.5576 573.125 59.5576C574.805 59.5576 575.948 60.868 575.948 62.7496C575.948 64.5808 574.805 65.8744 573.125 65.8744ZM584.456 67H588.74C591.529 67 593.007 65.7232 593.007 63.64C593.007 61.9432 591.915 61.1368 590.672 60.9016C591.781 60.5152 592.52 59.692 592.52 58.348C592.52 56.4496 591.125 55.24 588.622 55.24H584.456V67ZM588.689 56.5672C590.218 56.5672 591.058 57.2728 591.058 58.4488C591.058 59.6416 590.201 60.3472 588.689 60.3472H585.917V56.5672H588.689ZM588.74 61.6576C590.487 61.6576 591.512 62.38 591.512 63.7072C591.512 64.9168 590.554 65.6728 588.74 65.6728H585.917V61.6576H588.74ZM598.923 67.1008C600.906 67.1008 602.317 65.8408 602.653 64.1272H601.258C600.973 65.236 600.032 65.8744 598.822 65.8744C597.193 65.8744 596.168 64.732 596.118 63.1024V62.9848H602.77C602.787 62.7832 602.804 62.5816 602.804 62.3968C602.737 59.86 601.158 58.3312 598.738 58.3312C596.319 58.3312 594.673 60.112 594.673 62.716C594.673 65.3368 596.353 67.1008 598.923 67.1008ZM596.202 61.8424C596.336 60.448 597.495 59.5408 598.755 59.5408C600.183 59.5408 601.191 60.364 601.326 61.8424H596.202ZM608.912 58.3312C607.467 58.3312 606.594 58.936 606.09 59.5912L605.905 58.432H604.712V67H606.09V62.716C606.09 60.784 607.064 59.5912 608.677 59.5912C610.172 59.5912 610.995 60.532 610.995 62.3128V67H612.373V62.2288C612.373 59.3896 610.844 58.3312 608.912 58.3312ZM615.047 58.9864C615.047 57.4576 616.005 56.416 617.467 56.416C618.743 56.416 619.617 57.1888 619.617 58.2472C619.617 59.1712 619.13 59.7424 618.374 60.28C617.416 60.9352 616.576 61.4896 616.576 62.8336V63.4216H617.87V62.9848C617.87 62.0608 618.525 61.6072 619.415 60.9856C620.272 60.3808 621.062 59.608 621.062 58.1128C621.062 56.3992 619.651 55.1392 617.45 55.1392C615.081 55.1392 613.636 56.836 613.636 58.9864H615.047ZM616.291 66.16C616.291 66.7312 616.694 67.1008 617.248 67.1008C617.803 67.1008 618.206 66.7312 618.206 66.16C618.206 65.5888 617.803 65.2192 617.248 65.2192C616.694 65.2192 616.291 65.5888 616.291 66.16Z" fill="#262626"/>
<path d="M106.667 228L108.032 224.367H114.059L115.445 228H118.028L112.547 213.3H109.67L104.168 228H106.667ZM111.035 215.904L113.387 222.309H108.704L111.035 215.904ZM125.163 217.248C123.399 217.248 122.538 217.962 121.992 218.865L121.74 217.248H119.724V228H121.992V222.603C121.992 220.944 122.643 219.369 124.659 219.369H125.667V217.248H125.163ZM131.909 228.126C134.66 228.126 136.487 226.593 136.907 224.157H134.513C134.24 225.396 133.316 226.194 131.93 226.194C130.103 226.194 128.906 224.745 128.906 222.645C128.906 220.524 130.103 219.054 131.93 219.054C133.337 219.054 134.24 219.831 134.534 221.091H136.907C136.466 218.655 134.744 217.122 131.972 217.122C128.717 217.122 126.575 219.327 126.575 222.645C126.575 226.005 128.654 228.126 131.909 228.126ZM144.711 217.122C143.031 217.122 142.002 217.878 141.33 218.802V213.3H139.062V228H141.33V222.561C141.33 220.398 142.422 219.075 144.207 219.075C145.887 219.075 146.79 220.167 146.79 222.204V228H149.058V222.015C149.058 218.424 147.105 217.122 144.711 217.122ZM152.696 215.736C153.473 215.736 154.082 215.169 154.082 214.371C154.082 213.573 153.473 213.006 152.696 213.006C151.919 213.006 151.31 213.573 151.31 214.371C151.31 215.169 151.919 215.736 152.696 215.736ZM151.541 228H153.809V217.248H151.541V228ZM159.35 228H162.122L166.091 217.248H163.697L160.778 225.564L157.817 217.248H155.381L159.35 228ZM172.27 228.126C174.937 228.126 176.743 226.509 177.121 224.388H174.853C174.538 225.585 173.53 226.278 172.144 226.278C170.359 226.278 169.204 225.081 169.141 223.254V223.107H177.247C177.289 222.813 177.31 222.519 177.31 222.246C177.247 219.096 175.168 217.122 172.06 217.122C168.889 217.122 166.768 219.327 166.768 222.645C166.768 225.942 168.889 228.126 172.27 228.126ZM169.225 221.448C169.393 219.915 170.632 218.949 172.081 218.949C173.656 218.949 174.769 219.852 174.958 221.448H169.225Z" fill="#262626"/>
<path d="M697.756 224.17C697.84 227.11 700.045 229.126 703.699 229.126C706.933 229.126 709.138 227.299 709.138 224.653C709.159 221.755 706.786 220.978 704.35 220.537C702.04 220.138 700.528 219.823 700.528 218.311C700.528 216.925 701.683 216.211 703.342 216.211C705.127 216.211 706.303 217.219 706.492 218.71H708.907C708.802 216.001 706.702 214.174 703.342 214.174C700.213 214.174 698.113 215.917 698.113 218.479C698.113 221.398 700.423 222.175 702.859 222.595C705.19 223.015 706.723 223.351 706.723 224.905C706.723 226.312 705.463 227.089 703.72 227.089C701.662 227.089 700.318 225.934 700.192 224.212L697.756 224.17ZM716.556 229.126C719.223 229.126 721.029 227.509 721.407 225.388H719.139C718.824 226.585 717.816 227.278 716.43 227.278C714.645 227.278 713.49 226.081 713.427 224.254V224.107H721.533C721.575 223.813 721.596 223.519 721.596 223.246C721.533 220.096 719.454 218.122 716.346 218.122C713.175 218.122 711.054 220.327 711.054 223.645C711.054 226.942 713.175 229.126 716.556 229.126ZM713.511 222.448C713.679 220.915 714.918 219.949 716.367 219.949C717.942 219.949 719.055 220.852 719.244 222.448H713.511ZM733.677 227.026C733.215 227.026 732.984 226.879 732.984 226.333V222.028C732.984 219.487 731.346 218.122 728.49 218.122C725.781 218.122 723.975 219.424 723.744 221.524H725.97C726.138 220.579 727.041 219.949 728.385 219.949C729.876 219.949 730.737 220.684 730.737 221.881V222.532H728.028C725.025 222.532 723.429 223.771 723.429 225.976C723.429 227.971 725.067 229.126 727.419 229.126C729.162 229.126 730.254 228.37 730.968 227.278C730.968 228.349 731.472 229 732.942 229H734.139V227.026H733.677ZM730.737 224.59C730.716 226.249 729.624 227.362 727.734 227.362C726.495 227.362 725.739 226.732 725.739 225.829C725.739 224.737 726.516 224.212 727.923 224.212H730.737V224.59ZM741.234 218.248C739.47 218.248 738.609 218.962 738.063 219.865L737.811 218.248H735.795V229H738.063V223.603C738.063 221.944 738.714 220.369 740.73 220.369H741.738V218.248H741.234ZM747.979 229.126C750.73 229.126 752.557 227.593 752.977 225.157H750.583C750.31 226.396 749.386 227.194 748 227.194C746.173 227.194 744.976 225.745 744.976 223.645C744.976 221.524 746.173 220.054 748 220.054C749.407 220.054 750.31 220.831 750.604 222.091H752.977C752.536 219.655 750.814 218.122 748.042 218.122C744.787 218.122 742.645 220.327 742.645 223.645C742.645 227.005 744.724 229.126 747.979 229.126ZM760.782 218.122C759.102 218.122 758.073 218.878 757.401 219.802V214.3H755.133V229H757.401V223.561C757.401 221.398 758.493 220.075 760.278 220.075C761.958 220.075 762.861 221.167 762.861 223.204V229H765.129V223.015C765.129 219.424 763.176 218.122 760.782 218.122ZM773.636 229H776.051V223.666H779.285L782.12 229H784.808L781.7 223.141C783.422 222.532 784.556 220.957 784.556 218.983C784.556 216.127 782.498 214.3 779.432 214.3H773.636V229ZM779.243 216.4C780.965 216.4 782.078 217.408 782.078 218.983C782.078 220.558 780.965 221.566 779.243 221.566H776.051V216.4H779.243ZM791.499 229.126C794.166 229.126 795.972 227.509 796.35 225.388H794.082C793.767 226.585 792.759 227.278 791.373 227.278C789.588 227.278 788.433 226.081 788.37 224.254V224.107H796.476C796.518 223.813 796.539 223.519 796.539 223.246C796.476 220.096 794.397 218.122 791.289 218.122C788.118 218.122 785.997 220.327 785.997 223.645C785.997 226.942 788.118 229.126 791.499 229.126ZM788.454 222.448C788.622 220.915 789.861 219.949 791.31 219.949C792.885 219.949 793.998 220.852 794.187 222.448H788.454ZM798.269 225.451C798.332 227.782 800.306 229.126 803.183 229.126C805.787 229.126 807.74 227.824 807.74 225.766C807.74 223.372 805.745 222.868 803.288 222.574C801.734 222.406 800.705 222.28 800.705 221.272C800.705 220.411 801.587 219.865 802.931 219.865C804.275 219.865 805.199 220.558 805.325 221.545H807.551C807.404 219.34 805.535 218.122 802.889 218.122C800.306 218.101 798.479 219.424 798.479 221.461C798.479 223.687 800.411 224.212 802.868 224.506C804.527 224.716 805.514 224.8 805.514 225.955C805.514 226.816 804.59 227.362 803.183 227.362C801.545 227.362 800.579 226.564 800.495 225.451H798.269ZM817.288 223.624C817.288 225.85 816.238 227.152 814.516 227.152C812.857 227.152 812.017 226.081 812.017 223.981V218.248H809.749V224.233C809.749 227.908 811.702 229.126 813.991 229.126C815.65 229.126 816.637 228.454 817.309 227.635L817.561 229H819.556V218.248H817.288V223.624ZM822.212 229H824.48V214.3H822.212V229ZM827.9 226.081C827.9 228.034 828.782 229 830.84 229H832.94V227.005H831.344C830.483 227.005 830.189 226.69 830.189 225.85V220.243H832.814V218.248H830.189V215.245H827.9V218.248H826.031V220.243H827.9V226.081ZM834.34 225.451C834.403 227.782 836.377 229.126 839.254 229.126C841.858 229.126 843.811 227.824 843.811 225.766C843.811 223.372 841.816 222.868 839.359 222.574C837.805 222.406 836.776 222.28 836.776 221.272C836.776 220.411 837.658 219.865 839.002 219.865C840.346 219.865 841.27 220.558 841.396 221.545H843.622C843.475 219.34 841.606 218.122 838.96 218.122C836.377 218.101 834.55 219.424 834.55 221.461C834.55 223.687 836.482 224.212 838.939 224.506C840.598 224.716 841.585 224.8 841.585 225.955C841.585 226.816 840.661 227.362 839.254 227.362C837.616 227.362 836.65 226.564 836.566 225.451H834.34Z" fill="#262626"/>
<rect x="252" y="265" width="120" height="32" rx="4" fill="#EBEBF8"/>
<rect x="252" y="316" width="120" height="32" rx="4" fill="#EBEBF8"/>
<rect x="252" y="367" width="120" height="32" rx="4" fill="#EBEBF8"/>
<line x1="104" y1="306.5" x2="376" y2="306.5" stroke="#EBEBF8"/>
<line x1="104" y1="357.5" x2="376" y2="357.5" stroke="#EBEBF8"/>
<path d="M711.837 277.136C711.837 277.521 711.661 277.796 711.298 277.796H710.044V278.621H711.287C711.529 278.621 711.705 278.577 711.815 278.478V284H712.739V276.3H711.837V277.136Z" fill="black"/>
<path d="M710.242 336H715.544V335.153H711.518L713.828 333.195C714.741 332.414 715.489 331.688 715.489 330.533C715.489 329.147 714.521 328.234 712.86 328.234C711.309 328.234 710.286 329.268 710.286 330.72V330.918H711.21V330.775C711.21 329.719 711.87 329.059 712.86 329.059C713.883 329.059 714.543 329.609 714.543 330.577C714.543 331.413 713.949 332.007 713.234 332.623L710.242 335.219V336Z" fill="black"/>
<path d="M714.389 380.996C715.126 380.798 715.632 380.237 715.632 379.269C715.632 378.059 714.631 377.234 713.047 377.234C711.529 377.234 710.473 378.169 710.462 379.522H711.375C711.386 378.642 712.09 378.059 713.058 378.059C713.982 378.059 714.686 378.543 714.686 379.324C714.686 380.105 714.114 380.677 712.97 380.677H712.365V381.48H713.025C714.224 381.48 714.884 381.997 714.884 382.8C714.884 383.68 714.114 384.241 713.113 384.241C712.024 384.241 711.232 383.636 711.221 382.624H710.308C710.308 384.153 711.386 385.066 713.058 385.066C714.73 385.066 715.83 384.175 715.83 382.866C715.83 381.689 715.093 381.128 714.389 380.996Z" fill="black"/>
<rect x="731" y="265" width="120" height="32" rx="4" fill="#EBEBF8"/>
<rect x="762" y="289" width="25" height="5.99999" rx="3" transform="rotate(-180 762 289)" fill="#917EF3"/>
<rect x="844.977" y="278.086" width="107.98" height="4.99999" rx="2.49999" transform="rotate(-179.901 844.977 278.086)" fill="#917EF3"/>
<rect x="731" y="316" width="120" height="32" rx="4" fill="#EBEBF8"/>
<rect x="786" y="340" width="49" height="5.99999" rx="3" transform="rotate(-180 786 340)" fill="#917EF3"/>
<rect x="844.977" y="329.086" width="107.98" height="4.99999" rx="2.49999" transform="rotate(-179.901 844.977 329.086)" fill="#917EF3"/>
<rect x="731" y="367" width="120" height="32" rx="4" fill="#EBEBF8"/>
<rect x="818" y="391" width="81" height="5.99999" rx="3" transform="rotate(-180 818 391)" fill="#917EF3"/>
<rect x="844.977" y="380.086" width="107.98" height="4.99999" rx="2.49999" transform="rotate(-179.901 844.977 380.086)" fill="#917EF3"/>
<line x1="236.5" y1="259" x2="236.5" y2="399" stroke="#EBEBF8"/>
<path d="M450.25 59.2972C450.25 60.2657 450.432 61.1745 450.797 62.0236C451.162 62.8726 451.665 63.6211 452.307 64.2689C452.954 64.9167 453.703 65.423 454.552 65.7877C455.401 66.1525 456.31 66.3349 457.278 66.3349C458.064 66.3349 458.807 66.2154 459.505 65.9764C460.203 65.7311 460.844 65.3947 461.429 64.967L465.92 69.4764C466.014 69.5645 466.121 69.6305 466.241 69.6745C466.366 69.7248 466.492 69.75 466.618 69.75C466.807 69.75 466.973 69.706 467.118 69.6179C467.263 69.5362 467.376 69.4198 467.458 69.2689C467.539 69.1242 467.58 68.9575 467.58 68.7689C467.58 68.6431 467.555 68.5204 467.505 68.4009C467.461 68.2877 467.395 68.184 467.307 68.0896L462.835 63.5991C463.3 63.0079 463.665 62.3475 463.929 61.6179C464.193 60.8821 464.325 60.1085 464.325 59.2972C464.325 58.3223 464.143 57.4104 463.778 56.5613C463.414 55.7123 462.907 54.967 462.259 54.3255C461.612 53.6777 460.863 53.1714 460.014 52.8066C459.165 52.4355 458.253 52.25 457.278 52.25C456.31 52.25 455.401 52.4355 454.552 52.8066C453.703 53.1714 452.954 53.6777 452.307 54.3255C451.665 54.967 451.162 55.7123 450.797 56.5613C450.432 57.4104 450.25 58.3223 450.25 59.2972ZM451.618 59.2972C451.618 58.511 451.766 57.7783 452.061 57.0991C452.357 56.4135 452.763 55.8129 453.278 55.2972C453.8 54.7752 454.401 54.3695 455.08 54.0802C455.766 53.7846 456.498 53.6368 457.278 53.6368C458.064 53.6368 458.797 53.7846 459.476 54.0802C460.162 54.3695 460.763 54.7752 461.278 55.2972C461.8 55.8129 462.206 56.4135 462.495 57.0991C462.791 57.7783 462.939 58.511 462.939 59.2972C462.939 60.077 462.791 60.8097 462.495 61.4953C462.206 62.1745 461.8 62.7752 461.278 63.2972C460.763 63.8129 460.162 64.2186 459.476 64.5142C458.797 64.8035 458.064 64.9481 457.278 64.9481C456.498 64.9481 455.766 64.8035 455.08 64.5142C454.401 64.2186 453.8 63.8129 453.278 63.2972C452.763 62.7752 452.357 62.1745 452.061 61.4953C451.766 60.8097 451.618 60.077 451.618 59.2972Z" fill="#917EF3" fill-opacity="0.5"/>
<rect x="307" y="289" width="49" height="5" rx="2.5" transform="rotate(-180 307 289)" fill="#917EF3"/>
<rect x="365.98" y="278.188" width="107.98" height="4.99999" rx="2.49999" transform="rotate(-179.901 365.98 278.188)" fill="#917EF3"/>
<rect x="283" y="340" width="25" height="5" rx="2.5" transform="rotate(-180 283 340)" fill="#917EF3"/>
<rect x="365.98" y="329.188" width="107.98" height="5" rx="2.5" transform="rotate(-179.901 365.98 329.188)" fill="#917EF3"/>
<rect x="339" y="391" width="81" height="4.99999" rx="2.5" transform="rotate(-180 339 391)" fill="#917EF3"/>
<rect x="365.98" y="380.188" width="107.98" height="5" rx="2.5" transform="rotate(-179.901 365.98 380.188)" fill="#917EF3"/>
</svg>
