<svg width="975" height="313" viewBox="0 0 975 313" fill="none" xmlns="http://www.w3.org/2000/svg">
<rect width="975" height="313" fill="#F7F7F7"/>
<circle cx="493" cy="170" r="103" fill="#333293" fill-opacity="0.9"/>
<path d="M452.803 166V164.32H446.104V151.3H444.277V166H452.803ZM464.068 164.425C463.585 164.425 463.375 164.278 463.375 163.711V159.028C463.375 156.529 461.8 155.164 459.07 155.164C456.487 155.164 454.786 156.403 454.534 158.503H456.256C456.466 157.411 457.474 156.697 458.986 156.697C460.666 156.697 461.653 157.537 461.653 158.923V159.658H458.503C455.689 159.658 454.198 160.855 454.198 162.997C454.198 164.95 455.794 166.126 458.146 166.126C459.994 166.126 461.065 165.307 461.737 164.341C461.758 165.391 462.241 166 463.669 166H464.614V164.425H464.068ZM461.653 161.632C461.653 163.417 460.414 164.656 458.272 164.656C456.844 164.656 455.941 163.942 455.941 162.892C455.941 161.674 456.802 161.107 458.335 161.107H461.653V161.632ZM471.607 155.164C469.801 155.164 468.709 155.92 468.079 156.739L467.848 155.29H466.357V166H468.079V160.645C468.079 158.23 469.297 156.739 471.313 156.739C473.182 156.739 474.211 157.915 474.211 160.141V166H475.933V160.036C475.933 156.487 474.022 155.164 471.607 155.164ZM486.991 157.138C486.319 155.941 485.122 155.164 483.316 155.164C480.355 155.164 478.171 157.369 478.171 160.645C478.171 164.131 480.355 166.126 483.316 166.126C485.122 166.126 486.277 165.37 486.991 164.152V165.412C486.991 167.743 485.773 168.793 483.526 168.793C481.741 168.793 480.544 168.037 480.25 166.693H478.486C478.759 169.045 480.67 170.326 483.4 170.326C487.075 170.326 488.713 168.562 488.713 165.475V155.29H487.222L486.991 157.138ZM483.484 164.593C481.363 164.593 479.935 162.976 479.935 160.645C479.935 158.314 481.363 156.697 483.484 156.697C485.584 156.697 487.012 158.335 487.012 160.687C487.012 162.976 485.584 164.593 483.484 164.593ZM498.976 160.645C498.976 163.06 497.8 164.551 495.847 164.551C494.062 164.551 493.054 163.375 493.054 161.149V155.29H491.332V161.254C491.332 164.803 493.201 166.126 495.553 166.126C497.317 166.126 498.346 165.37 498.976 164.572L499.207 166H500.698V155.29H498.976V160.645ZM512.936 164.425C512.453 164.425 512.243 164.278 512.243 163.711V159.028C512.243 156.529 510.668 155.164 507.938 155.164C505.355 155.164 503.654 156.403 503.402 158.503H505.124C505.334 157.411 506.342 156.697 507.854 156.697C509.534 156.697 510.521 157.537 510.521 158.923V159.658H507.371C504.557 159.658 503.066 160.855 503.066 162.997C503.066 164.95 504.662 166.126 507.014 166.126C508.862 166.126 509.933 165.307 510.605 164.341C510.626 165.391 511.109 166 512.537 166H513.482V164.425H512.936ZM510.521 161.632C510.521 163.417 509.282 164.656 507.14 164.656C505.712 164.656 504.809 163.942 504.809 162.892C504.809 161.674 505.67 161.107 507.203 161.107H510.521V161.632ZM523.668 157.138C522.996 155.941 521.799 155.164 519.993 155.164C517.032 155.164 514.848 157.369 514.848 160.645C514.848 164.131 517.032 166.126 519.993 166.126C521.799 166.126 522.954 165.37 523.668 164.152V165.412C523.668 167.743 522.45 168.793 520.203 168.793C518.418 168.793 517.221 168.037 516.927 166.693H515.163C515.436 169.045 517.347 170.326 520.077 170.326C523.752 170.326 525.39 168.562 525.39 165.475V155.29H523.899L523.668 157.138ZM520.161 164.593C518.04 164.593 516.612 162.976 516.612 160.645C516.612 158.314 518.04 156.697 520.161 156.697C522.261 156.697 523.689 158.335 523.689 160.687C523.689 162.976 522.261 164.593 520.161 164.593ZM533.091 166.126C535.569 166.126 537.333 164.551 537.753 162.409H536.01C535.653 163.795 534.477 164.593 532.965 164.593C530.928 164.593 529.647 163.165 529.584 161.128V160.981H537.9C537.921 160.729 537.942 160.477 537.942 160.246C537.858 157.075 535.884 155.164 532.86 155.164C529.836 155.164 527.778 157.39 527.778 160.645C527.778 163.921 529.878 166.126 533.091 166.126ZM529.689 159.553C529.857 157.81 531.306 156.676 532.881 156.676C534.666 156.676 535.926 157.705 536.094 159.553H529.689ZM462.416 198H464.201V186.408L469.073 198H470.69L475.562 186.408V198H477.347V183.3H475.079L469.934 195.501L464.726 183.3H462.416V198ZM485.299 198.126C488.428 198.126 490.612 195.9 490.612 192.645C490.612 189.39 488.428 187.164 485.299 187.164C482.17 187.164 479.986 189.39 479.986 192.645C479.986 195.9 482.17 198.126 485.299 198.126ZM485.299 196.593C483.178 196.593 481.75 194.934 481.75 192.645C481.75 190.356 483.178 188.697 485.299 188.697C487.42 188.697 488.848 190.356 488.848 192.645C488.848 194.934 487.42 196.593 485.299 196.593ZM501.449 188.928C500.798 187.899 499.58 187.164 497.774 187.164C494.813 187.164 492.629 189.369 492.629 192.645C492.629 196.131 494.813 198.126 497.774 198.126C499.58 198.126 500.735 197.265 501.449 196.278L501.68 198H503.171V183.3H501.449V188.928ZM497.942 196.593C495.821 196.593 494.393 194.976 494.393 192.645C494.393 190.314 495.821 188.697 497.942 188.697C500.042 188.697 501.47 190.335 501.47 192.687C501.47 194.976 500.042 196.593 497.942 196.593ZM510.871 198.126C513.349 198.126 515.113 196.551 515.533 194.409H513.79C513.433 195.795 512.257 196.593 510.745 196.593C508.708 196.593 507.427 195.165 507.364 193.128V192.981H515.68C515.701 192.729 515.722 192.477 515.722 192.246C515.638 189.075 513.664 187.164 510.64 187.164C507.616 187.164 505.558 189.39 505.558 192.645C505.558 195.921 507.658 198.126 510.871 198.126ZM507.469 191.553C507.637 189.81 509.086 188.676 510.661 188.676C512.446 188.676 513.706 189.705 513.874 191.553H507.469ZM518.107 198H519.829V183.3H518.107V198Z" fill="#F1F1F7"/>
<path d="M106.428 96H108.255V90.351H112.077C115.017 90.351 116.949 88.566 116.949 85.815C116.949 83.064 115.017 81.3 112.077 81.3H106.428V96ZM111.93 82.98C113.862 82.98 115.08 84.072 115.08 85.815C115.08 87.558 113.841 88.671 111.909 88.671H108.255V82.98H111.93ZM124.021 85.29C122.11 85.29 121.291 86.088 120.787 86.907L120.556 85.29H119.065V96H120.787V90.54C120.787 88.839 121.396 86.97 123.643 86.97H124.504V85.29H124.021ZM130.736 96.126C133.865 96.126 136.049 93.9 136.049 90.645C136.049 87.39 133.865 85.164 130.736 85.164C127.607 85.164 125.423 87.39 125.423 90.645C125.423 93.9 127.607 96.126 130.736 96.126ZM130.736 94.593C128.615 94.593 127.187 92.934 127.187 90.645C127.187 88.356 128.615 86.697 130.736 86.697C132.857 86.697 134.285 88.356 134.285 90.645C134.285 92.934 132.857 94.593 130.736 94.593ZM150.393 85.164C148.482 85.164 147.327 86.046 146.676 87.201C146.067 85.836 144.786 85.164 143.295 85.164C141.636 85.164 140.733 85.983 140.166 86.76L139.935 85.29H138.444V96H140.166V90.351C140.166 88.209 141.237 86.739 143.001 86.739C144.639 86.739 145.584 87.831 145.584 89.931V96H147.306V90.267C147.306 88.083 148.398 86.739 150.183 86.739C151.8 86.739 152.724 87.831 152.724 89.931V96H154.446V89.826C154.446 86.445 152.619 85.164 150.393 85.164ZM162.472 85.164C160.666 85.164 159.511 86.025 158.797 87.012L158.566 85.29H157.075V100.2H158.797V94.362C159.448 95.391 160.666 96.126 162.472 96.126C165.433 96.126 167.617 93.921 167.617 90.645C167.617 87.159 165.433 85.164 162.472 85.164ZM162.304 94.593C160.204 94.593 158.776 92.955 158.776 90.603C158.776 88.314 160.204 86.697 162.304 86.697C164.425 86.697 165.853 88.314 165.853 90.645C165.853 92.976 164.425 94.593 162.304 94.593ZM170.679 93.207C170.679 95.097 171.414 96 173.472 96H175.341V94.425H173.64C172.716 94.425 172.401 94.089 172.401 93.186V86.865H175.173V85.29H172.401V82.287H170.679V85.29H168.747V86.865H170.679V93.207Z" fill="#262626"/>
<rect x="105" y="112" width="223" height="109" rx="4" fill="#EBEBF8"/>
<rect x="115" y="124" width="203" height="8" rx="4" fill="#333293" fill-opacity="0.4"/>
<rect x="115" y="140" width="203" height="8" rx="4" fill="#333293" fill-opacity="0.4"/>
<rect x="115" y="156" width="203" height="8" rx="4" fill="#333293" fill-opacity="0.4"/>
<rect x="115" y="172" width="203" height="8" rx="4" fill="#333293" fill-opacity="0.4"/>
<path d="M648.84 61.191C648.945 64.089 651.045 66.126 654.636 66.126C657.723 66.126 659.865 64.341 659.865 61.8C659.865 58.944 657.408 58.146 655.014 57.747C652.809 57.369 651.024 57.012 651.024 55.248C651.024 53.673 652.305 52.833 654.216 52.833C656.211 52.833 657.576 53.946 657.786 55.647H659.676C659.508 53.001 657.492 51.174 654.216 51.174C651.234 51.174 649.197 52.854 649.197 55.353C649.197 58.209 651.633 58.986 654.006 59.385C656.232 59.763 658.038 60.141 658.038 61.968C658.038 63.564 656.631 64.467 654.657 64.467C652.41 64.467 650.877 63.165 650.73 61.191H648.84ZM669.849 60.645C669.849 63.06 668.673 64.551 666.72 64.551C664.935 64.551 663.927 63.375 663.927 61.149V55.29H662.205V61.254C662.205 64.803 664.074 66.126 666.426 66.126C668.19 66.126 669.219 65.37 669.849 64.572L670.08 66H671.571V55.29H669.849V60.645ZM686.287 55.164C684.376 55.164 683.221 56.046 682.57 57.201C681.961 55.836 680.68 55.164 679.189 55.164C677.53 55.164 676.627 55.983 676.06 56.76L675.829 55.29H674.338V66H676.06V60.351C676.06 58.209 677.131 56.739 678.895 56.739C680.533 56.739 681.478 57.831 681.478 59.931V66H683.2V60.267C683.2 58.083 684.292 56.739 686.077 56.739C687.694 56.739 688.618 57.831 688.618 59.931V66H690.34V59.826C690.34 56.445 688.513 55.164 686.287 55.164ZM704.918 55.164C703.007 55.164 701.852 56.046 701.201 57.201C700.592 55.836 699.311 55.164 697.82 55.164C696.161 55.164 695.258 55.983 694.691 56.76L694.46 55.29H692.969V66H694.691V60.351C694.691 58.209 695.762 56.739 697.526 56.739C699.164 56.739 700.109 57.831 700.109 59.931V66H701.831V60.267C701.831 58.083 702.923 56.739 704.708 56.739C706.325 56.739 707.249 57.831 707.249 59.931V66H708.971V59.826C708.971 56.445 707.144 55.164 704.918 55.164ZM721.071 64.425C720.588 64.425 720.378 64.278 720.378 63.711V59.028C720.378 56.529 718.803 55.164 716.073 55.164C713.49 55.164 711.789 56.403 711.537 58.503H713.259C713.469 57.411 714.477 56.697 715.989 56.697C717.669 56.697 718.656 57.537 718.656 58.923V59.658H715.506C712.692 59.658 711.201 60.855 711.201 62.997C711.201 64.95 712.797 66.126 715.149 66.126C716.997 66.126 718.068 65.307 718.74 64.341C718.761 65.391 719.244 66 720.672 66H721.617V64.425H721.071ZM718.656 61.632C718.656 63.417 717.417 64.656 715.275 64.656C713.847 64.656 712.944 63.942 712.944 62.892C712.944 61.674 713.805 61.107 715.338 61.107H718.656V61.632ZM728.317 55.29C726.406 55.29 725.587 56.088 725.083 56.907L724.852 55.29H723.361V66H725.083V60.54C725.083 58.839 725.692 56.97 727.939 56.97H728.8V55.29H728.317ZM733.903 66.063L733.378 67.365C732.979 68.373 732.811 68.625 731.824 68.625H730.291V70.2H732.349C733.861 70.2 734.26 69.528 734.932 67.806L739.867 55.29H738.04L734.848 63.837L731.551 55.29H729.724L733.903 66.063ZM749.923 56.802H747.55V58.251H749.713L749.314 61.023H747.088V62.472H749.104L748.558 66H749.986L750.532 62.472H753.409L752.863 66H754.291L754.837 62.472H757.21V61.023H755.047L755.446 58.251H757.672V56.802H755.656L756.202 53.274H754.774L754.228 56.802H751.351L751.897 53.274H750.469L749.923 56.802ZM754.018 58.251L753.619 61.023H750.742L751.141 58.251H754.018ZM762.399 52.896C762.399 53.631 762.063 54.156 761.37 54.156H758.976V55.731H761.349C761.811 55.731 762.147 55.647 762.357 55.458V66H764.121V51.3H762.399V52.896Z" fill="#262626"/>
<path d="M648 237H572" stroke="black" stroke-width="1.5" stroke-linecap="round" stroke-dasharray="0.5 8"/>
<rect x="648" y="82" width="223" height="48" rx="4" fill="#EBEBF8"/>
<rect x="658" y="94" width="203" height="8" rx="4" fill="#333293"/>
<rect x="658" y="110" width="113" height="8" rx="4" fill="#333293"/>
<path d="M388 167H328" stroke="black" stroke-width="1.5" stroke-linecap="round" stroke-dasharray="0.5 8"/>
<path d="M648.84 192.191C648.945 195.089 651.045 197.126 654.636 197.126C657.723 197.126 659.865 195.341 659.865 192.8C659.865 189.944 657.408 189.146 655.014 188.747C652.809 188.369 651.024 188.012 651.024 186.248C651.024 184.673 652.305 183.833 654.216 183.833C656.211 183.833 657.576 184.946 657.786 186.647H659.676C659.508 184.001 657.492 182.174 654.216 182.174C651.234 182.174 649.197 183.854 649.197 186.353C649.197 189.209 651.633 189.986 654.006 190.385C656.232 190.763 658.038 191.141 658.038 192.968C658.038 194.564 656.631 195.467 654.657 195.467C652.41 195.467 650.877 194.165 650.73 192.191H648.84ZM669.849 191.645C669.849 194.06 668.673 195.551 666.72 195.551C664.935 195.551 663.927 194.375 663.927 192.149V186.29H662.205V192.254C662.205 195.803 664.074 197.126 666.426 197.126C668.19 197.126 669.219 196.37 669.849 195.572L670.08 197H671.571V186.29H669.849V191.645ZM686.287 186.164C684.376 186.164 683.221 187.046 682.57 188.201C681.961 186.836 680.68 186.164 679.189 186.164C677.53 186.164 676.627 186.983 676.06 187.76L675.829 186.29H674.338V197H676.06V191.351C676.06 189.209 677.131 187.739 678.895 187.739C680.533 187.739 681.478 188.831 681.478 190.931V197H683.2V191.267C683.2 189.083 684.292 187.739 686.077 187.739C687.694 187.739 688.618 188.831 688.618 190.931V197H690.34V190.826C690.34 187.445 688.513 186.164 686.287 186.164ZM704.918 186.164C703.007 186.164 701.852 187.046 701.201 188.201C700.592 186.836 699.311 186.164 697.82 186.164C696.161 186.164 695.258 186.983 694.691 187.76L694.46 186.29H692.969V197H694.691V191.351C694.691 189.209 695.762 187.739 697.526 187.739C699.164 187.739 700.109 188.831 700.109 190.931V197H701.831V191.267C701.831 189.083 702.923 187.739 704.708 187.739C706.325 187.739 707.249 188.831 707.249 190.931V197H708.971V190.826C708.971 187.445 707.144 186.164 704.918 186.164ZM721.071 195.425C720.588 195.425 720.378 195.278 720.378 194.711V190.028C720.378 187.529 718.803 186.164 716.073 186.164C713.49 186.164 711.789 187.403 711.537 189.503H713.259C713.469 188.411 714.477 187.697 715.989 187.697C717.669 187.697 718.656 188.537 718.656 189.923V190.658H715.506C712.692 190.658 711.201 191.855 711.201 193.997C711.201 195.95 712.797 197.126 715.149 197.126C716.997 197.126 718.068 196.307 718.74 195.341C718.761 196.391 719.244 197 720.672 197H721.617V195.425H721.071ZM718.656 192.632C718.656 194.417 717.417 195.656 715.275 195.656C713.847 195.656 712.944 194.942 712.944 193.892C712.944 192.674 713.805 192.107 715.338 192.107H718.656V192.632ZM728.317 186.29C726.406 186.29 725.587 187.088 725.083 187.907L724.852 186.29H723.361V197H725.083V191.54C725.083 189.839 725.692 187.97 727.939 187.97H728.8V186.29H728.317ZM733.903 197.063L733.378 198.365C732.979 199.373 732.811 199.625 731.824 199.625H730.291V201.2H732.349C733.861 201.2 734.26 200.528 734.932 198.806L739.867 186.29H738.04L734.848 194.837L731.551 186.29H729.724L733.903 197.063ZM749.923 187.802H747.55V189.251H749.713L749.314 192.023H747.088V193.472H749.104L748.558 197H749.986L750.532 193.472H753.409L752.863 197H754.291L754.837 193.472H757.21V192.023H755.047L755.446 189.251H757.672V187.802H755.656L756.202 184.274H754.774L754.228 187.802H751.351L751.897 184.274H750.469L749.923 187.802ZM754.018 189.251L753.619 192.023H750.742L751.141 189.251H754.018ZM759.354 197H769.476V195.383H761.79L766.2 191.645C767.943 190.154 769.371 188.768 769.371 186.563C769.371 183.917 767.523 182.174 764.352 182.174C761.391 182.174 759.438 184.148 759.438 186.92V187.298H761.202V187.025C761.202 185.009 762.462 183.749 764.352 183.749C766.305 183.749 767.565 184.799 767.565 186.647C767.565 188.243 766.431 189.377 765.066 190.553L759.354 195.509V197Z" fill="#262626"/>
<rect x="648" y="213" width="223" height="48" rx="4" fill="#EBEBF8"/>
<ellipse cx="648" cy="237" rx="7" ry="7" fill="#333293"/>
<path d="M651.471 236.946C651.471 236.862 651.454 236.784 651.422 236.712C651.389 236.64 651.34 236.572 651.275 236.507L647.472 232.786C647.364 232.679 647.231 232.625 647.071 232.625C646.967 232.625 646.871 232.651 646.783 232.703C646.695 232.752 646.625 232.819 646.573 232.903C646.524 232.988 646.5 233.084 646.5 233.191C646.5 233.344 646.559 233.481 646.676 233.602L650.104 236.946L646.676 240.291C646.559 240.411 646.5 240.55 646.5 240.706C646.5 240.81 646.524 240.905 646.573 240.989C646.625 241.077 646.695 241.146 646.783 241.194C646.871 241.246 646.967 241.272 647.071 241.272C647.231 241.272 647.364 241.217 647.472 241.106L651.275 237.386C651.34 237.321 651.389 237.252 651.422 237.181C651.454 237.109 651.471 237.031 651.471 236.946Z" fill="#FBFBFB"/>
<rect x="658" y="225" width="203" height="8" rx="4" fill="#333293"/>
<path d="M646 106L577 106" stroke="black" stroke-width="1.5" stroke-linecap="round" stroke-dasharray="0.5 8"/>
<rect x="658" y="241" width="163" height="8" rx="4" fill="#333293"/>
<ellipse cx="648" cy="106" rx="7" ry="7" fill="#333293"/>
<path d="M651.471 105.946C651.471 105.862 651.454 105.784 651.422 105.712C651.389 105.64 651.34 105.572 651.275 105.507L647.472 101.786C647.364 101.679 647.231 101.625 647.071 101.625C646.967 101.625 646.871 101.651 646.783 101.703C646.695 101.752 646.625 101.819 646.573 101.903C646.524 101.988 646.5 102.084 646.5 102.191C646.5 102.344 646.559 102.481 646.676 102.602L650.104 105.946L646.676 109.291C646.559 109.411 646.5 109.55 646.5 109.706C646.5 109.81 646.524 109.905 646.573 109.989C646.625 110.077 646.695 110.146 646.783 110.194C646.871 110.246 646.967 110.272 647.071 110.272C647.231 110.272 647.364 110.217 647.472 110.106L651.275 106.386C651.34 106.321 651.389 106.252 651.422 106.181C651.454 106.109 651.471 106.031 651.471 105.946Z" fill="#FBFBFB"/>
<ellipse cx="390" cy="167" rx="7" ry="7" fill="#333293"/>
<path d="M393.471 166.946C393.471 166.862 393.454 166.784 393.422 166.712C393.389 166.64 393.34 166.572 393.275 166.507L389.472 162.786C389.364 162.679 389.231 162.625 389.071 162.625C388.967 162.625 388.871 162.651 388.783 162.703C388.695 162.752 388.625 162.819 388.573 162.903C388.524 162.988 388.5 163.084 388.5 163.191C388.5 163.344 388.559 163.481 388.676 163.602L392.104 166.946L388.676 170.291C388.559 170.411 388.5 170.55 388.5 170.706C388.5 170.81 388.524 170.905 388.573 170.989C388.625 171.077 388.695 171.146 388.783 171.194C388.871 171.246 388.967 171.272 389.071 171.272C389.231 171.272 389.364 171.217 389.472 171.106L393.275 167.386C393.34 167.321 393.389 167.252 393.422 167.181C393.454 167.109 393.471 167.031 393.471 166.946Z" fill="#FBFBFB"/>
<rect x="115" y="188" width="102" height="21" rx="10" fill="#333293"/>
<path d="M125.952 203H127.17V193.2H125.952V203ZM132.961 195.776C131.757 195.776 131.029 196.28 130.609 196.826L130.455 195.86H129.461V203H130.609V199.43C130.609 197.82 131.421 196.826 132.765 196.826C134.011 196.826 134.697 197.61 134.697 199.094V203H135.845V199.024C135.845 196.658 134.571 195.776 132.961 195.776ZM141.799 200.648C141.827 202.216 143.101 203.084 144.949 203.084C146.531 203.084 147.805 202.258 147.805 200.928C147.805 199.346 146.503 199.038 144.879 198.842C143.843 198.716 143.087 198.618 143.087 197.834C143.087 197.176 143.759 196.756 144.753 196.756C145.733 196.756 146.405 197.302 146.489 198.03H147.665C147.553 196.546 146.377 195.79 144.753 195.776C143.143 195.762 141.953 196.616 141.953 197.918C141.953 199.402 143.227 199.724 144.823 199.92C145.887 200.046 146.671 200.116 146.671 201.012C146.671 201.67 145.957 202.104 144.949 202.104C143.759 202.104 143.017 201.488 142.975 200.648H141.799ZM154.637 199.43C154.637 201.04 153.853 202.034 152.551 202.034C151.361 202.034 150.689 201.25 150.689 199.766V195.86H149.541V199.836C149.541 202.202 150.787 203.084 152.355 203.084C153.531 203.084 154.217 202.58 154.637 202.048L154.791 203H155.785V195.86H154.637V199.43ZM165.876 195.776C164.602 195.776 163.832 196.364 163.398 197.134C162.992 196.224 162.138 195.776 161.144 195.776C160.038 195.776 159.436 196.322 159.058 196.84L158.904 195.86H157.91V203H159.058V199.234C159.058 197.806 159.772 196.826 160.948 196.826C162.04 196.826 162.67 197.554 162.67 198.954V203H163.818V199.178C163.818 197.722 164.546 196.826 165.736 196.826C166.814 196.826 167.43 197.554 167.43 198.954V203H168.578V198.884C168.578 196.63 167.36 195.776 165.876 195.776ZM178.577 195.776C177.303 195.776 176.533 196.364 176.099 197.134C175.693 196.224 174.839 195.776 173.845 195.776C172.739 195.776 172.137 196.322 171.759 196.84L171.605 195.86H170.611V203H171.759V199.234C171.759 197.806 172.473 196.826 173.649 196.826C174.741 196.826 175.371 197.554 175.371 198.954V203H176.519V199.178C176.519 197.722 177.247 196.826 178.437 196.826C179.515 196.826 180.131 197.554 180.131 198.954V203H181.279V198.884C181.279 196.63 180.061 195.776 178.577 195.776ZM189.625 201.95C189.303 201.95 189.163 201.852 189.163 201.474V198.352C189.163 196.686 188.113 195.776 186.293 195.776C184.571 195.776 183.437 196.602 183.269 198.002H184.417C184.557 197.274 185.229 196.798 186.237 196.798C187.357 196.798 188.015 197.358 188.015 198.282V198.772H185.915C184.039 198.772 183.045 199.57 183.045 200.998C183.045 202.3 184.109 203.084 185.677 203.084C186.909 203.084 187.623 202.538 188.071 201.894C188.085 202.594 188.407 203 189.359 203H189.989V201.95H189.625ZM188.015 200.088C188.015 201.278 187.189 202.104 185.761 202.104C184.809 202.104 184.207 201.628 184.207 200.928C184.207 200.116 184.781 199.738 185.803 199.738H188.015V200.088ZM194.736 195.86C193.462 195.86 192.916 196.392 192.58 196.938L192.426 195.86H191.432V203H192.58V199.36C192.58 198.226 192.986 196.98 194.484 196.98H195.058V195.86H194.736ZM198.74 203.042L198.39 203.91C198.124 204.582 198.012 204.75 197.354 204.75H196.332V205.8H197.704C198.712 205.8 198.978 205.352 199.426 204.204L202.716 195.86H201.498L199.37 201.558L197.172 195.86H195.954L198.74 203.042ZM203.992 197.05C203.992 197.526 204.328 197.834 204.79 197.834C205.252 197.834 205.588 197.526 205.588 197.05C205.588 196.574 205.252 196.266 204.79 196.266C204.328 196.266 203.992 196.574 203.992 197.05ZM203.992 202.3C203.992 202.776 204.328 203.084 204.79 203.084C205.252 203.084 205.588 202.776 205.588 202.3C205.588 201.824 205.252 201.516 204.79 201.516C204.328 201.516 203.992 201.824 203.992 202.3Z" fill="#FBFBFB"/>
</svg>
