<svg width="897" height="348" viewBox="0 0 897 348" fill="none" xmlns="http://www.w3.org/2000/svg">
<rect width="897" height="348" fill="#F7F7F7"/>
<path d="M368 163L368 201" stroke="black" stroke-width="1.5" stroke-linecap="round" stroke-dasharray="0.5 8"/>
<rect x="601" y="229" width="124" height="76" rx="10" fill="#333293" fill-opacity="0.9"/>
<path d="M374.5 208C374.5 211.59 371.59 214.5 368 214.5C364.41 214.5 361.5 211.59 361.5 208C361.5 204.41 364.41 201.5 368 201.5C371.59 201.5 374.5 204.41 374.5 208Z" fill="#333293" stroke="#333293"/>
<path d="M368.054 211.471C368.138 211.471 368.216 211.454 368.288 211.422C368.36 211.389 368.428 211.34 368.493 211.275L372.214 207.472C372.321 207.364 372.375 207.231 372.375 207.071C372.375 206.967 372.349 206.871 372.297 206.783C372.248 206.695 372.181 206.625 372.097 206.573C372.012 206.524 371.916 206.5 371.809 206.5C371.656 206.5 371.519 206.559 371.398 206.676L368.054 210.104L364.709 206.676C364.589 206.559 364.45 206.5 364.294 206.5C364.19 206.5 364.095 206.524 364.011 206.573C363.923 206.625 363.854 206.695 363.806 206.783C363.754 206.871 363.728 206.967 363.728 207.071C363.728 207.231 363.783 207.364 363.894 207.472L367.614 211.275C367.679 211.34 367.748 211.389 367.819 211.422C367.891 211.454 367.969 211.471 368.054 211.471Z" fill="#FBFBFB"/>
<path d="M638.292 257.336C638.372 259.544 639.972 261.096 642.708 261.096C645.06 261.096 646.692 259.736 646.692 257.8C646.692 255.624 644.82 255.016 642.996 254.712C641.316 254.424 639.956 254.152 639.956 252.808C639.956 251.608 640.932 250.968 642.388 250.968C643.908 250.968 644.948 251.816 645.108 253.112H646.548C646.42 251.096 644.884 249.704 642.388 249.704C640.116 249.704 638.564 250.984 638.564 252.888C638.564 255.064 640.42 255.656 642.228 255.96C643.924 256.248 645.3 256.536 645.3 257.928C645.3 259.144 644.228 259.832 642.724 259.832C641.012 259.832 639.844 258.84 639.732 257.336H638.292ZM649.418 251.464C649.898 251.464 650.266 251.112 650.266 250.616C650.266 250.12 649.898 249.768 649.418 249.768C648.938 249.768 648.57 250.12 648.57 250.616C648.57 251.112 648.938 251.464 649.418 251.464ZM648.746 261H650.058V252.84H648.746V261ZM661.44 252.744C659.984 252.744 659.104 253.416 658.608 254.296C658.144 253.256 657.168 252.744 656.032 252.744C654.768 252.744 654.08 253.368 653.648 253.96L653.472 252.84H652.336V261H653.648V256.696C653.648 255.064 654.464 253.944 655.808 253.944C657.056 253.944 657.776 254.776 657.776 256.376V261H659.088V256.632C659.088 254.968 659.92 253.944 661.28 253.944C662.512 253.944 663.216 254.776 663.216 256.376V261H664.528V256.296C664.528 253.72 663.136 252.744 661.44 252.744ZM670.803 252.744C669.427 252.744 668.547 253.4 668.003 254.152L667.827 252.84H666.691V264.2H668.003V259.752C668.499 260.536 669.427 261.096 670.803 261.096C673.059 261.096 674.723 259.416 674.723 256.92C674.723 254.264 673.059 252.744 670.803 252.744ZM670.675 259.928C669.075 259.928 667.987 258.68 667.987 256.888C667.987 255.144 669.075 253.912 670.675 253.912C672.291 253.912 673.379 255.144 673.379 256.92C673.379 258.696 672.291 259.928 670.675 259.928ZM676.702 261H678.014V249.8H676.702V261ZM684.051 261.096C685.939 261.096 687.283 259.896 687.603 258.264H686.275C686.003 259.32 685.107 259.928 683.955 259.928C682.403 259.928 681.427 258.84 681.379 257.288V257.176H687.715C687.731 256.984 687.747 256.792 687.747 256.616C687.683 254.2 686.179 252.744 683.875 252.744C681.571 252.744 680.003 254.44 680.003 256.92C680.003 259.416 681.603 261.096 684.051 261.096ZM681.459 256.088C681.587 254.76 682.691 253.896 683.891 253.896C685.251 253.896 686.211 254.68 686.339 256.088H681.459ZM634.773 285.096C637.301 285.096 639.157 283.656 639.573 281.336H638.101C637.685 282.904 636.485 283.816 634.757 283.816C632.405 283.816 630.965 281.976 630.965 279.4C630.965 276.808 632.469 274.984 634.821 274.984C636.501 274.984 637.685 275.912 638.117 277.464H639.589C639.173 275.144 637.365 273.704 634.885 273.704C631.637 273.704 629.541 276.008 629.541 279.4C629.541 282.824 631.557 285.096 634.773 285.096ZM641.542 285H642.854V273.8H641.542V285ZM652.347 283.8C651.979 283.8 651.819 283.688 651.819 283.256V279.688C651.819 277.784 650.619 276.744 648.539 276.744C646.571 276.744 645.275 277.688 645.083 279.288H646.395C646.555 278.456 647.323 277.912 648.475 277.912C649.755 277.912 650.507 278.552 650.507 279.608V280.168H648.107C645.963 280.168 644.827 281.08 644.827 282.712C644.827 284.2 646.043 285.096 647.835 285.096C649.243 285.096 650.059 284.472 650.571 283.736C650.587 284.536 650.955 285 652.043 285H652.763V283.8H652.347ZM650.507 281.672C650.507 283.032 649.563 283.976 647.931 283.976C646.843 283.976 646.155 283.432 646.155 282.632C646.155 281.704 646.811 281.272 647.979 281.272H650.507V281.672ZM653.916 282.312C653.948 284.104 655.404 285.096 657.516 285.096C659.324 285.096 660.78 284.152 660.78 282.632C660.78 280.824 659.292 280.472 657.436 280.248C656.252 280.104 655.388 279.992 655.388 279.096C655.388 278.344 656.156 277.864 657.292 277.864C658.412 277.864 659.18 278.488 659.276 279.32H660.62C660.492 277.624 659.148 276.76 657.292 276.744C655.452 276.728 654.092 277.704 654.092 279.192C654.092 280.888 655.548 281.256 657.372 281.48C658.588 281.624 659.484 281.704 659.484 282.728C659.484 283.48 658.668 283.976 657.516 283.976C656.156 283.976 655.308 283.272 655.26 282.312H653.916ZM662.224 282.312C662.256 284.104 663.712 285.096 665.824 285.096C667.632 285.096 669.088 284.152 669.088 282.632C669.088 280.824 667.6 280.472 665.744 280.248C664.56 280.104 663.696 279.992 663.696 279.096C663.696 278.344 664.464 277.864 665.6 277.864C666.72 277.864 667.488 278.488 667.584 279.32H668.928C668.8 277.624 667.456 276.76 665.6 276.744C663.76 276.728 662.4 277.704 662.4 279.192C662.4 280.888 663.856 281.256 665.68 281.48C666.896 281.624 667.792 281.704 667.792 282.728C667.792 283.48 666.976 283.976 665.824 283.976C664.464 283.976 663.616 283.272 663.568 282.312H662.224ZM671.696 275.464C672.176 275.464 672.544 275.112 672.544 274.616C672.544 274.12 672.176 273.768 671.696 273.768C671.216 273.768 670.848 274.12 670.848 274.616C670.848 275.112 671.216 275.464 671.696 275.464ZM671.024 285H672.336V276.84H671.024V285ZM680.406 275.464C680.886 275.464 681.254 275.112 681.254 274.616C681.254 274.12 680.886 273.768 680.406 273.768C679.926 273.768 679.558 274.12 679.558 274.616C679.558 275.112 679.926 275.464 680.406 275.464ZM676.534 276.84V275.896C676.534 275.272 676.774 275 677.43 275H678.694V273.8H677.35C675.83 273.8 675.222 274.488 675.222 275.928V276.84H673.75V278.04H675.222V285H676.534V278.04H679.734V285H681.046V276.84H676.534ZM687.073 285.096C688.961 285.096 690.305 283.896 690.625 282.264H689.297C689.025 283.32 688.129 283.928 686.977 283.928C685.425 283.928 684.449 282.84 684.401 281.288V281.176H690.737C690.753 280.984 690.769 280.792 690.769 280.616C690.705 278.2 689.201 276.744 686.897 276.744C684.593 276.744 683.025 278.44 683.025 280.92C683.025 283.416 684.625 285.096 687.073 285.096ZM684.481 280.088C684.609 278.76 685.713 277.896 686.913 277.896C688.273 277.896 689.233 278.68 689.361 280.088H684.481ZM696.522 276.84C695.066 276.84 694.442 277.448 694.058 278.072L693.882 276.84H692.746V285H694.058V280.84C694.058 279.544 694.522 278.12 696.234 278.12H696.89V276.84H696.522Z" fill="#F1F1F7"/>
<path d="M455 267L602 267" stroke="black" stroke-width="1.5" stroke-linecap="round" stroke-dasharray="0.5 8"/>
<path d="M607.5 267C607.5 270.59 604.59 273.5 601 273.5C597.41 273.5 594.5 270.59 594.5 267C594.5 263.41 597.41 260.5 601 260.5C604.59 260.5 607.5 263.41 607.5 267Z" fill="#333293" stroke="#333293"/>
<path d="M81.672 48.016C81.672 48.576 81.416 48.976 80.888 48.976H79.064V50.176H80.872C81.224 50.176 81.48 50.112 81.64 49.968V58H82.984V46.8H81.672V48.016ZM84.8618 46.32C86.6538 48.656 87.3258 50.752 87.3258 53.2C87.3258 55.632 86.6378 57.728 84.8618 60.08H86.3018C87.9498 57.936 88.6218 55.616 88.6218 53.2C88.6218 50.736 87.9338 48.448 86.3018 46.32H84.8618ZM95.6061 58H102.95V56.72H96.9981V52.944H101.782V51.664H96.9981V48.08H102.742V46.8H95.6061V58ZM113.904 49.744C112.448 49.744 111.568 50.416 111.072 51.296C110.608 50.256 109.632 49.744 108.496 49.744C107.232 49.744 106.544 50.368 106.112 50.96L105.936 49.84H104.8V58H106.112V53.696C106.112 52.064 106.928 50.944 108.272 50.944C109.52 50.944 110.24 51.776 110.24 53.376V58H111.552V53.632C111.552 51.968 112.384 50.944 113.744 50.944C114.976 50.944 115.68 51.776 115.68 53.376V58H116.992V53.296C116.992 50.72 115.6 49.744 113.904 49.744ZM123.267 49.744C121.891 49.744 121.011 50.4 120.467 51.152V46.8H119.155V58H120.291L120.467 56.752C120.963 57.536 121.891 58.096 123.267 58.096C125.523 58.096 127.187 56.416 127.187 53.92C127.187 51.264 125.523 49.744 123.267 49.744ZM123.139 56.928C121.539 56.928 120.451 55.68 120.451 53.888C120.451 52.144 121.539 50.912 123.139 50.912C124.755 50.912 125.843 52.144 125.843 53.92C125.843 55.696 124.755 56.928 123.139 56.928ZM132.927 58.096C134.815 58.096 136.159 56.896 136.479 55.264H135.151C134.879 56.32 133.983 56.928 132.831 56.928C131.279 56.928 130.303 55.84 130.255 54.288V54.176H136.591C136.607 53.984 136.623 53.792 136.623 53.616C136.559 51.2 135.055 49.744 132.751 49.744C130.447 49.744 128.879 51.44 128.879 53.92C128.879 56.416 130.479 58.096 132.927 58.096ZM130.335 53.088C130.463 51.76 131.567 50.896 132.767 50.896C134.127 50.896 135.087 51.68 135.215 53.088H130.335ZM145.032 51.088C144.536 50.304 143.608 49.744 142.232 49.744C139.976 49.744 138.312 51.424 138.312 53.92C138.312 56.576 139.976 58.096 142.232 58.096C143.608 58.096 144.488 57.44 145.032 56.688L145.208 58H146.344V46.8H145.032V51.088ZM142.36 56.928C140.744 56.928 139.656 55.696 139.656 53.92C139.656 52.144 140.744 50.912 142.36 50.912C143.96 50.912 145.048 52.16 145.048 53.952C145.048 55.696 143.96 56.928 142.36 56.928ZM153.886 55.872C153.886 57.312 154.446 58 156.014 58H157.438V56.8H156.142C155.438 56.8 155.198 56.544 155.198 55.856V51.04H157.311V49.84H155.198V47.552H153.886V49.84H152.414V51.04H153.886V55.872ZM163.055 49.744C161.679 49.744 160.847 50.416 160.367 51.184V46.8H159.055V58H160.367V53.92C160.367 52.08 161.311 50.944 162.831 50.944C164.239 50.944 165.055 51.84 165.055 53.536V58H166.367V53.456C166.367 50.752 164.879 49.744 163.055 49.744ZM172.186 58.096C174.074 58.096 175.418 56.896 175.738 55.264H174.41C174.138 56.32 173.242 56.928 172.09 56.928C170.538 56.928 169.562 55.84 169.514 54.288V54.176H175.85C175.866 53.984 175.882 53.792 175.882 53.616C175.818 51.2 174.314 49.744 172.01 49.744C169.706 49.744 168.138 51.44 168.138 53.92C168.138 56.416 169.738 58.096 172.186 58.096ZM169.594 53.088C169.722 51.76 170.826 50.896 172.026 50.896C173.386 50.896 174.346 51.68 174.474 53.088H169.594ZM183.135 55.872C183.135 57.312 183.695 58 185.263 58H186.687V56.8H185.391C184.687 56.8 184.447 56.544 184.447 55.856V51.04H186.559V49.84H184.447V47.552H183.135V49.84H181.663V51.04H183.135V55.872ZM191.86 58.096C193.748 58.096 195.092 56.896 195.412 55.264H194.084C193.812 56.32 192.916 56.928 191.764 56.928C190.212 56.928 189.236 55.84 189.188 54.288V54.176H195.524C195.54 53.984 195.556 53.792 195.556 53.616C195.492 51.2 193.988 49.744 191.684 49.744C189.38 49.744 187.812 51.44 187.812 53.92C187.812 56.416 189.412 58.096 191.86 58.096ZM189.268 53.088C189.396 51.76 190.5 50.896 191.7 50.896C193.06 50.896 194.02 51.68 194.148 53.088H189.268ZM196.326 58H197.814L200.198 54.72L202.582 58H204.15L201.03 53.808L203.942 49.84H202.454L200.262 52.864L198.102 49.84H196.534L199.43 53.808L196.326 58ZM206.247 55.872C206.247 57.312 206.807 58 208.375 58H209.799V56.8H208.503C207.799 56.8 207.559 56.544 207.559 55.856V51.04H209.671V49.84H207.559V47.552H206.247V49.84H204.775V51.04H206.247V55.872ZM216.755 48.464C217.235 48.464 217.603 48.112 217.603 47.616C217.603 47.12 217.235 46.768 216.755 46.768C216.275 46.768 215.907 47.12 215.907 47.616C215.907 48.112 216.275 48.464 216.755 48.464ZM216.083 58H217.395V49.84H216.083V58ZM223.672 49.744C222.296 49.744 221.464 50.32 220.984 50.944L220.808 49.84H219.672V58H220.984V53.92C220.984 52.08 221.912 50.944 223.448 50.944C224.872 50.944 225.656 51.84 225.656 53.536V58H226.968V53.456C226.968 50.752 225.512 49.744 223.672 49.744ZM234.397 55.872C234.397 57.312 234.957 58 236.525 58H237.949V56.8H236.653C235.949 56.8 235.709 56.544 235.709 55.856V51.04H237.821V49.84H235.709V47.552H234.397V49.84H232.925V51.04H234.397V55.872ZM243.565 49.744C242.189 49.744 241.357 50.416 240.877 51.184V46.8H239.565V58H240.877V53.92C240.877 52.08 241.821 50.944 243.341 50.944C244.749 50.944 245.565 51.84 245.565 53.536V58H246.877V53.456C246.877 50.752 245.389 49.744 243.565 49.744ZM252.696 58.096C254.584 58.096 255.928 56.896 256.248 55.264H254.92C254.648 56.32 253.752 56.928 252.6 56.928C251.048 56.928 250.072 55.84 250.024 54.288V54.176H256.36C256.376 53.984 256.392 53.792 256.392 53.616C256.328 51.2 254.824 49.744 252.52 49.744C250.216 49.744 248.648 51.44 248.648 53.92C248.648 56.416 250.248 58.096 252.696 58.096ZM250.104 53.088C250.232 51.76 251.336 50.896 252.536 50.896C253.896 50.896 254.856 51.68 254.984 53.088H250.104ZM269.469 51.088C268.973 50.304 268.045 49.744 266.669 49.744C264.413 49.744 262.749 51.424 262.749 53.92C262.749 56.576 264.413 58.096 266.669 58.096C268.045 58.096 268.925 57.44 269.469 56.688L269.645 58H270.781V46.8H269.469V51.088ZM266.797 56.928C265.181 56.928 264.093 55.696 264.093 53.92C264.093 52.144 265.181 50.912 266.797 50.912C268.397 50.912 269.485 52.16 269.485 53.952C269.485 55.696 268.397 56.928 266.797 56.928ZM280.264 56.8C279.896 56.8 279.736 56.688 279.736 56.256V52.688C279.736 50.784 278.536 49.744 276.456 49.744C274.488 49.744 273.192 50.688 273 52.288H274.312C274.472 51.456 275.24 50.912 276.392 50.912C277.672 50.912 278.424 51.552 278.424 52.608V53.168H276.024C273.88 53.168 272.744 54.08 272.744 55.712C272.744 57.2 273.96 58.096 275.752 58.096C277.16 58.096 277.976 57.472 278.488 56.736C278.504 57.536 278.872 58 279.96 58H280.68V56.8H280.264ZM278.424 54.672C278.424 56.032 277.48 56.976 275.848 56.976C274.76 56.976 274.072 56.432 274.072 55.632C274.072 54.704 274.728 54.272 275.896 54.272H278.424V54.672ZM282.777 55.872C282.777 57.312 283.337 58 284.905 58H286.329V56.8H285.033C284.329 56.8 284.089 56.544 284.089 55.856V51.04H286.201V49.84H284.089V47.552H282.777V49.84H281.305V51.04H282.777V55.872ZM295.036 56.8C294.668 56.8 294.508 56.688 294.508 56.256V52.688C294.508 50.784 293.308 49.744 291.228 49.744C289.26 49.744 287.964 50.688 287.772 52.288H289.084C289.244 51.456 290.012 50.912 291.164 50.912C292.444 50.912 293.196 51.552 293.196 52.608V53.168H290.796C288.652 53.168 287.516 54.08 287.516 55.712C287.516 57.2 288.732 58.096 290.524 58.096C291.932 58.096 292.748 57.472 293.26 56.736C293.276 57.536 293.644 58 294.732 58H295.452V56.8H295.036ZM293.196 54.672C293.196 56.032 292.252 56.976 290.62 56.976C289.532 56.976 288.844 56.432 288.844 55.632C288.844 54.704 289.5 54.272 290.668 54.272H293.196V54.672ZM296.605 55.312C296.637 57.104 298.093 58.096 300.205 58.096C302.013 58.096 303.469 57.152 303.469 55.632C303.469 53.824 301.981 53.472 300.125 53.248C298.941 53.104 298.077 52.992 298.077 52.096C298.077 51.344 298.845 50.864 299.981 50.864C301.101 50.864 301.869 51.488 301.965 52.32H303.309C303.181 50.624 301.837 49.76 299.981 49.744C298.141 49.728 296.781 50.704 296.781 52.192C296.781 53.888 298.237 54.256 300.061 54.48C301.277 54.624 302.173 54.704 302.173 55.728C302.173 56.48 301.357 56.976 300.205 56.976C298.845 56.976 297.997 56.272 297.949 55.312H296.605ZM309.165 58.096C311.053 58.096 312.397 56.896 312.717 55.264H311.389C311.117 56.32 310.221 56.928 309.069 56.928C307.517 56.928 306.541 55.84 306.493 54.288V54.176H312.829C312.845 53.984 312.861 53.792 312.861 53.616C312.797 51.2 311.293 49.744 308.989 49.744C306.685 49.744 305.117 51.44 305.117 53.92C305.117 56.416 306.717 58.096 309.165 58.096ZM306.573 53.088C306.701 51.76 307.805 50.896 309.005 50.896C310.365 50.896 311.325 51.68 311.453 53.088H306.573ZM315.353 55.872C315.353 57.312 315.913 58 317.481 58H318.905V56.8H317.609C316.905 56.8 316.665 56.544 316.665 55.856V51.04H318.777V49.84H316.665V47.552H315.353V49.84H313.881V51.04H315.353V55.872Z" fill="#262626"/>
<path d="M594.352 58H602.064V56.768H596.208L599.568 53.92C600.896 52.784 601.984 51.728 601.984 50.048C601.984 48.032 600.576 46.704 598.16 46.704C595.904 46.704 594.416 48.208 594.416 50.32V50.608H595.76V50.4C595.76 48.864 596.72 47.904 598.16 47.904C599.648 47.904 600.608 48.704 600.608 50.112C600.608 51.328 599.744 52.192 598.704 53.088L594.352 56.864V58ZM603.33 46.32C605.122 48.656 605.794 50.752 605.794 53.2C605.794 55.632 605.106 57.728 603.33 60.08H604.77C606.418 57.936 607.09 55.616 607.09 53.2C607.09 50.736 606.402 48.448 604.77 46.32H603.33ZM613.307 48.08H616.939V58H618.331V48.08H621.963V46.8H613.307V48.08ZM626.623 49.84C625.167 49.84 624.543 50.448 624.159 51.072L623.983 49.84H622.847V58H624.159V53.84C624.159 52.544 624.623 51.12 626.335 51.12H626.991V49.84H626.623ZM635.543 56.8C635.175 56.8 635.015 56.688 635.015 56.256V52.688C635.015 50.784 633.815 49.744 631.735 49.744C629.767 49.744 628.471 50.688 628.279 52.288H629.591C629.751 51.456 630.519 50.912 631.671 50.912C632.951 50.912 633.703 51.552 633.703 52.608V53.168H631.303C629.159 53.168 628.023 54.08 628.023 55.712C628.023 57.2 629.239 58.096 631.031 58.096C632.439 58.096 633.255 57.472 633.767 56.736C633.783 57.536 634.151 58 635.239 58H635.959V56.8H635.543ZM633.703 54.672C633.703 56.032 632.759 56.976 631.127 56.976C630.039 56.976 629.351 56.432 629.351 55.632C629.351 54.704 630.007 54.272 631.175 54.272H633.703V54.672ZM638.12 48.464C638.6 48.464 638.968 48.112 638.968 47.616C638.968 47.12 638.6 46.768 638.12 46.768C637.64 46.768 637.272 47.12 637.272 47.616C637.272 48.112 637.64 48.464 638.12 48.464ZM637.448 58H638.76V49.84H637.448V58ZM645.037 49.744C643.661 49.744 642.829 50.32 642.349 50.944L642.173 49.84H641.037V58H642.349V53.92C642.349 52.08 643.277 50.944 644.813 50.944C646.237 50.944 647.021 51.84 647.021 53.536V58H648.333V53.456C648.333 50.752 646.877 49.744 645.037 49.744ZM662.37 56.8C662.002 56.8 661.842 56.688 661.842 56.256V52.688C661.842 50.784 660.641 49.744 658.562 49.744C656.593 49.744 655.297 50.688 655.105 52.288H656.417C656.577 51.456 657.345 50.912 658.497 50.912C659.778 50.912 660.53 51.552 660.53 52.608V53.168H658.129C655.985 53.168 654.849 54.08 654.849 55.712C654.849 57.2 656.065 58.096 657.857 58.096C659.266 58.096 660.082 57.472 660.594 56.736C660.609 57.536 660.977 58 662.066 58H662.786V56.8H662.37ZM660.53 54.672C660.53 56.032 659.585 56.976 657.953 56.976C656.865 56.976 656.177 56.432 656.177 55.632C656.177 54.704 656.833 54.272 658.001 54.272H660.53V54.672ZM668.606 55.312C668.638 57.104 670.094 58.096 672.206 58.096C674.014 58.096 675.47 57.152 675.47 55.632C675.47 53.824 673.982 53.472 672.126 53.248C670.942 53.104 670.078 52.992 670.078 52.096C670.078 51.344 670.846 50.864 671.982 50.864C673.102 50.864 673.87 51.488 673.966 52.32H675.31C675.182 50.624 673.838 49.76 671.982 49.744C670.142 49.728 668.782 50.704 668.782 52.192C668.782 53.888 670.238 54.256 672.062 54.48C673.278 54.624 674.174 54.704 674.174 55.728C674.174 56.48 673.358 56.976 672.206 56.976C670.846 56.976 669.998 56.272 669.95 55.312H668.606ZM678.078 48.464C678.558 48.464 678.926 48.112 678.926 47.616C678.926 47.12 678.558 46.768 678.078 46.768C677.598 46.768 677.23 47.12 677.23 47.616C677.23 48.112 677.598 48.464 678.078 48.464ZM677.406 58H678.718V49.84H677.406V58ZM690.099 49.744C688.643 49.744 687.763 50.416 687.267 51.296C686.803 50.256 685.827 49.744 684.691 49.744C683.427 49.744 682.739 50.368 682.307 50.96L682.131 49.84H680.995V58H682.307V53.696C682.307 52.064 683.123 50.944 684.467 50.944C685.715 50.944 686.435 51.776 686.435 53.376V58H687.747V53.632C687.747 51.968 688.579 50.944 689.939 50.944C691.171 50.944 691.875 51.776 691.875 53.376V58H693.187V53.296C693.187 50.72 691.795 49.744 690.099 49.744ZM699.462 49.744C698.086 49.744 697.206 50.4 696.662 51.152L696.486 49.84H695.35V61.2H696.662V56.752C697.158 57.536 698.086 58.096 699.462 58.096C701.718 58.096 703.382 56.416 703.382 53.92C703.382 51.264 701.718 49.744 699.462 49.744ZM699.334 56.928C697.734 56.928 696.646 55.68 696.646 53.888C696.646 52.144 697.734 50.912 699.334 50.912C700.95 50.912 702.038 52.144 702.038 53.92C702.038 55.696 700.95 56.928 699.334 56.928ZM705.362 58H706.674V46.8H705.362V58ZM712.711 58.096C714.599 58.096 715.943 56.896 716.263 55.264H714.935C714.663 56.32 713.767 56.928 712.615 56.928C711.063 56.928 710.087 55.84 710.039 54.288V54.176H716.375C716.391 53.984 716.407 53.792 716.407 53.616C716.343 51.2 714.839 49.744 712.535 49.744C710.231 49.744 708.663 51.44 708.663 53.92C708.663 56.416 710.263 58.096 712.711 58.096ZM710.119 53.088C710.247 51.76 711.351 50.896 712.551 50.896C713.911 50.896 714.871 51.68 714.999 53.088H710.119ZM726.716 58.096C728.7 58.096 730.028 56.976 730.348 55.216H728.956C728.7 56.256 727.9 56.928 726.732 56.928C725.164 56.928 724.108 55.712 724.108 53.936C724.108 52.16 725.164 50.912 726.732 50.912C727.932 50.912 728.732 51.568 728.972 52.656H730.348C730.012 50.864 728.748 49.744 726.748 49.744C724.38 49.744 722.764 51.44 722.764 53.936C722.764 56.48 724.332 58.096 726.716 58.096ZM732.266 58H733.578V46.8H732.266V58ZM743.071 56.8C742.703 56.8 742.543 56.688 742.543 56.256V52.688C742.543 50.784 741.343 49.744 739.263 49.744C737.295 49.744 735.999 50.688 735.807 52.288H737.119C737.279 51.456 738.047 50.912 739.199 50.912C740.479 50.912 741.231 51.552 741.231 52.608V53.168H738.831C736.687 53.168 735.551 54.08 735.551 55.712C735.551 57.2 736.767 58.096 738.559 58.096C739.967 58.096 740.783 57.472 741.295 56.736C741.311 57.536 741.679 58 742.767 58H743.487V56.8H743.071ZM741.231 54.672C741.231 56.032 740.287 56.976 738.655 56.976C737.567 56.976 736.879 56.432 736.879 55.632C736.879 54.704 737.535 54.272 738.703 54.272H741.231V54.672ZM744.64 55.312C744.672 57.104 746.128 58.096 748.24 58.096C750.048 58.096 751.504 57.152 751.504 55.632C751.504 53.824 750.016 53.472 748.16 53.248C746.976 53.104 746.112 52.992 746.112 52.096C746.112 51.344 746.88 50.864 748.016 50.864C749.136 50.864 749.904 51.488 750 52.32H751.344C751.216 50.624 749.872 49.76 748.016 49.744C746.176 49.728 744.816 50.704 744.816 52.192C744.816 53.888 746.272 54.256 748.096 54.48C749.312 54.624 750.208 54.704 750.208 55.728C750.208 56.48 749.392 56.976 748.24 56.976C746.88 56.976 746.032 56.272 745.984 55.312H744.64ZM752.948 55.312C752.98 57.104 754.436 58.096 756.548 58.096C758.356 58.096 759.812 57.152 759.812 55.632C759.812 53.824 758.324 53.472 756.468 53.248C755.284 53.104 754.42 52.992 754.42 52.096C754.42 51.344 755.188 50.864 756.324 50.864C757.444 50.864 758.212 51.488 758.308 52.32H759.652C759.524 50.624 758.18 49.76 756.324 49.744C754.484 49.728 753.124 50.704 753.124 52.192C753.124 53.888 754.58 54.256 756.404 54.48C757.62 54.624 758.516 54.704 758.516 55.728C758.516 56.48 757.7 56.976 756.548 56.976C755.188 56.976 754.34 56.272 754.292 55.312H752.948ZM762.42 48.464C762.9 48.464 763.268 48.112 763.268 47.616C763.268 47.12 762.9 46.768 762.42 46.768C761.94 46.768 761.572 47.12 761.572 47.616C761.572 48.112 761.94 48.464 762.42 48.464ZM761.748 58H763.06V49.84H761.748V58ZM771.13 48.464C771.61 48.464 771.978 48.112 771.978 47.616C771.978 47.12 771.61 46.768 771.13 46.768C770.65 46.768 770.282 47.12 770.282 47.616C770.282 48.112 770.65 48.464 771.13 48.464ZM767.258 49.84V48.896C767.258 48.272 767.498 48 768.154 48H769.418V46.8H768.074C766.554 46.8 765.946 47.488 765.946 48.928V49.84H764.474V51.04H765.946V58H767.258V51.04H770.458V58H771.77V49.84H767.258ZM777.797 58.096C779.685 58.096 781.029 56.896 781.349 55.264H780.021C779.749 56.32 778.853 56.928 777.701 56.928C776.149 56.928 775.173 55.84 775.125 54.288V54.176H781.461C781.477 53.984 781.493 53.792 781.493 53.616C781.429 51.2 779.925 49.744 777.621 49.744C775.317 49.744 773.749 51.44 773.749 53.92C773.749 56.416 775.349 58.096 777.797 58.096ZM775.205 53.088C775.333 51.76 776.437 50.896 777.637 50.896C778.997 50.896 779.957 51.68 780.085 53.088H775.205ZM787.246 49.84C785.79 49.84 785.166 50.448 784.782 51.072L784.606 49.84H783.47V58H784.782V53.84C784.782 52.544 785.246 51.12 786.958 51.12H787.614V49.84H787.246Z" fill="#262626"/>
<rect x="79" y="90" width="374" height="73" rx="10" fill="#333293" fill-opacity="0.9"/>
<path d="M217.736 121H219.128V116.696H221.944L224.312 121H225.88L223.368 116.424C224.808 116.024 225.752 114.808 225.752 113.24C225.752 111.144 224.264 109.8 222.024 109.8H217.736V121ZM221.928 111.08C223.384 111.08 224.328 111.928 224.328 113.24C224.328 114.552 223.384 115.416 221.912 115.416H219.128V111.08H221.928ZM231.143 121.096C233.031 121.096 234.375 119.896 234.695 118.264H233.367C233.095 119.32 232.199 119.928 231.047 119.928C229.495 119.928 228.519 118.84 228.471 117.288V117.176H234.807C234.823 116.984 234.839 116.792 234.839 116.616C234.775 114.2 233.271 112.744 230.967 112.744C228.663 112.744 227.095 114.44 227.095 116.92C227.095 119.416 228.695 121.096 231.143 121.096ZM228.551 116.088C228.679 114.76 229.783 113.896 230.983 113.896C232.343 113.896 233.303 114.68 233.431 116.088H228.551ZM240.928 112.744C239.552 112.744 238.672 113.4 238.128 114.152L237.952 112.84H236.816V124.2H238.128V119.752C238.624 120.536 239.552 121.096 240.928 121.096C243.184 121.096 244.848 119.416 244.848 116.92C244.848 114.264 243.184 112.744 240.928 112.744ZM240.8 119.928C239.2 119.928 238.112 118.68 238.112 116.888C238.112 115.144 239.2 113.912 240.8 113.912C242.416 113.912 243.504 115.144 243.504 116.92C243.504 118.696 242.416 119.928 240.8 119.928ZM250.604 112.84C249.148 112.84 248.524 113.448 248.14 114.072L247.964 112.84H246.828V121H248.14V116.84C248.14 115.544 248.604 114.12 250.316 114.12H250.972V112.84H250.604ZM255.88 121.096C257.768 121.096 259.112 119.896 259.432 118.264H258.104C257.832 119.32 256.936 119.928 255.784 119.928C254.232 119.928 253.256 118.84 253.208 117.288V117.176H259.544C259.56 116.984 259.576 116.792 259.576 116.616C259.512 114.2 258.008 112.744 255.704 112.744C253.4 112.744 251.832 114.44 251.832 116.92C251.832 119.416 253.432 121.096 255.88 121.096ZM253.288 116.088C253.416 114.76 254.52 113.896 255.72 113.896C257.08 113.896 258.04 114.68 258.168 116.088H253.288ZM261.186 118.312C261.218 120.104 262.674 121.096 264.786 121.096C266.594 121.096 268.05 120.152 268.05 118.632C268.05 116.824 266.562 116.472 264.706 116.248C263.522 116.104 262.658 115.992 262.658 115.096C262.658 114.344 263.426 113.864 264.562 113.864C265.682 113.864 266.45 114.488 266.546 115.32H267.89C267.762 113.624 266.418 112.76 264.562 112.744C262.722 112.728 261.362 113.704 261.362 115.192C261.362 116.888 262.818 117.256 264.642 117.48C265.858 117.624 266.754 117.704 266.754 118.728C266.754 119.48 265.938 119.976 264.786 119.976C263.426 119.976 262.578 119.272 262.53 118.312H261.186ZM273.746 121.096C275.634 121.096 276.978 119.896 277.298 118.264H275.97C275.698 119.32 274.802 119.928 273.65 119.928C272.098 119.928 271.122 118.84 271.074 117.288V117.176H277.41C277.426 116.984 277.442 116.792 277.442 116.616C277.378 114.2 275.874 112.744 273.57 112.744C271.266 112.744 269.698 114.44 269.698 116.92C269.698 119.416 271.298 121.096 273.746 121.096ZM271.154 116.088C271.282 114.76 272.386 113.896 273.586 113.896C274.946 113.896 275.906 114.68 276.034 116.088H271.154ZM283.419 112.744C282.043 112.744 281.211 113.32 280.731 113.944L280.555 112.84H279.419V121H280.731V116.92C280.731 115.08 281.659 113.944 283.195 113.944C284.619 113.944 285.403 114.84 285.403 116.536V121H286.715V116.456C286.715 113.752 285.259 112.744 283.419 112.744ZM289.476 118.872C289.476 120.312 290.036 121 291.604 121H293.028V119.8H291.732C291.028 119.8 290.788 119.544 290.788 118.856V114.04H292.9V112.84H290.788V110.552H289.476V112.84H288.004V114.04H289.476V118.872ZM301.736 119.8C301.368 119.8 301.208 119.688 301.208 119.256V115.688C301.208 113.784 300.008 112.744 297.928 112.744C295.96 112.744 294.664 113.688 294.472 115.288H295.784C295.944 114.456 296.712 113.912 297.864 113.912C299.144 113.912 299.896 114.552 299.896 115.608V116.168H297.496C295.352 116.168 294.216 117.08 294.216 118.712C294.216 120.2 295.432 121.096 297.224 121.096C298.632 121.096 299.448 120.472 299.96 119.736C299.976 120.536 300.344 121 301.432 121H302.152V119.8H301.736ZM299.896 117.672C299.896 119.032 298.952 119.976 297.32 119.976C296.232 119.976 295.544 119.432 295.544 118.632C295.544 117.704 296.2 117.272 297.368 117.272H299.896V117.672ZM304.249 118.872C304.249 120.312 304.809 121 306.377 121H307.801V119.8H306.505C305.801 119.8 305.561 119.544 305.561 118.856V114.04H307.673V112.84H305.561V110.552H304.249V112.84H302.777V114.04H304.249V118.872ZM310.09 111.464C310.57 111.464 310.938 111.112 310.938 110.616C310.938 110.12 310.57 109.768 310.09 109.768C309.61 109.768 309.242 110.12 309.242 110.616C309.242 111.112 309.61 111.464 310.09 111.464ZM309.418 121H310.73V112.84H309.418V121ZM316.767 121.096C319.151 121.096 320.815 119.4 320.815 116.92C320.815 114.44 319.151 112.744 316.767 112.744C314.383 112.744 312.719 114.44 312.719 116.92C312.719 119.4 314.383 121.096 316.767 121.096ZM316.767 119.928C315.151 119.928 314.063 118.664 314.063 116.92C314.063 115.176 315.151 113.912 316.767 113.912C318.383 113.912 319.471 115.176 319.471 116.92C319.471 118.664 318.383 119.928 316.767 119.928ZM326.799 112.744C325.423 112.744 324.591 113.32 324.111 113.944L323.935 112.84H322.799V121H324.111V116.92C324.111 115.08 325.039 113.944 326.575 113.944C327.999 113.944 328.783 114.84 328.783 116.536V121H330.095V116.456C330.095 113.752 328.639 112.744 326.799 112.744ZM218.737 145V143.72H213.633V133.8H212.241V145H218.737ZM227.48 143.8C227.112 143.8 226.952 143.688 226.952 143.256V139.688C226.952 137.784 225.752 136.744 223.672 136.744C221.704 136.744 220.408 137.688 220.216 139.288H221.528C221.688 138.456 222.456 137.912 223.608 137.912C224.888 137.912 225.64 138.552 225.64 139.608V140.168H223.24C221.096 140.168 219.96 141.08 219.96 142.712C219.96 144.2 221.176 145.096 222.968 145.096C224.376 145.096 225.192 144.472 225.704 143.736C225.72 144.536 226.088 145 227.176 145H227.896V143.8H227.48ZM225.64 141.672C225.64 143.032 224.696 143.976 223.064 143.976C221.976 143.976 221.288 143.432 221.288 142.632C221.288 141.704 221.944 141.272 223.112 141.272H225.64V141.672ZM233.384 136.744C232.008 136.744 231.176 137.32 230.696 137.944L230.52 136.84H229.384V145H230.696V140.92C230.696 139.08 231.624 137.944 233.16 137.944C234.584 137.944 235.368 138.84 235.368 140.536V145H236.68V140.456C236.68 137.752 235.224 136.744 233.384 136.744ZM245.265 138.248C244.753 137.336 243.841 136.744 242.465 136.744C240.209 136.744 238.545 138.424 238.545 140.92C238.545 143.576 240.209 145.096 242.465 145.096C243.841 145.096 244.721 144.52 245.265 143.592V144.552C245.265 146.328 244.337 147.128 242.625 147.128C241.265 147.128 240.353 146.552 240.129 145.528H238.785C238.993 147.32 240.449 148.296 242.529 148.296C245.329 148.296 246.577 146.952 246.577 144.6V136.84H245.441L245.265 138.248ZM242.593 143.928C240.977 143.928 239.889 142.696 239.889 140.92C239.889 139.144 240.977 137.912 242.593 137.912C244.193 137.912 245.281 139.16 245.281 140.952C245.281 142.696 244.193 143.928 242.593 143.928ZM254.556 140.92C254.556 142.76 253.66 143.896 252.172 143.896C250.812 143.896 250.044 143 250.044 141.304V136.84H248.732V141.384C248.732 144.088 250.156 145.096 251.948 145.096C253.292 145.096 254.076 144.52 254.556 143.912L254.732 145H255.868V136.84H254.556V140.92ZM265.353 143.8C264.985 143.8 264.825 143.688 264.825 143.256V139.688C264.825 137.784 263.625 136.744 261.545 136.744C259.577 136.744 258.281 137.688 258.089 139.288H259.401C259.561 138.456 260.329 137.912 261.481 137.912C262.761 137.912 263.513 138.552 263.513 139.608V140.168H261.113C258.969 140.168 257.833 141.08 257.833 142.712C257.833 144.2 259.049 145.096 260.841 145.096C262.249 145.096 263.065 144.472 263.577 143.736C263.593 144.536 263.961 145 265.049 145H265.769V143.8H265.353ZM263.513 141.672C263.513 143.032 262.569 143.976 260.937 143.976C259.849 143.976 259.161 143.432 259.161 142.632C259.161 141.704 259.817 141.272 260.985 141.272H263.513V141.672ZM273.69 138.248C273.178 137.336 272.266 136.744 270.89 136.744C268.634 136.744 266.97 138.424 266.97 140.92C266.97 143.576 268.634 145.096 270.89 145.096C272.266 145.096 273.146 144.52 273.69 143.592V144.552C273.69 146.328 272.762 147.128 271.05 147.128C269.69 147.128 268.778 146.552 268.554 145.528H267.21C267.418 147.32 268.874 148.296 270.954 148.296C273.754 148.296 275.002 146.952 275.002 144.6V136.84H273.866L273.69 138.248ZM271.018 143.928C269.402 143.928 268.314 142.696 268.314 140.92C268.314 139.144 269.402 137.912 271.018 137.912C272.618 137.912 273.706 139.16 273.706 140.952C273.706 142.696 272.618 143.928 271.018 143.928ZM281.029 145.096C282.917 145.096 284.261 143.896 284.581 142.264H283.253C282.981 143.32 282.085 143.928 280.933 143.928C279.381 143.928 278.405 142.84 278.357 141.288V141.176H284.693C284.709 140.984 284.725 140.792 284.725 140.616C284.661 138.2 283.157 136.744 280.853 136.744C278.549 136.744 276.981 138.44 276.981 140.92C276.981 143.416 278.581 145.096 281.029 145.096ZM278.437 140.088C278.565 138.76 279.669 137.896 280.869 137.896C282.229 137.896 283.189 138.68 283.317 140.088H278.437ZM291.561 145H292.921V136.168L296.633 145H297.865L301.577 136.168V145H302.937V133.8H301.209L297.289 143.096L293.321 133.8H291.561V145ZM309.156 145.096C311.54 145.096 313.204 143.4 313.204 140.92C313.204 138.44 311.54 136.744 309.156 136.744C306.772 136.744 305.108 138.44 305.108 140.92C305.108 143.4 306.772 145.096 309.156 145.096ZM309.156 143.928C307.54 143.928 306.452 142.664 306.452 140.92C306.452 139.176 307.54 137.912 309.156 137.912C310.772 137.912 311.86 139.176 311.86 140.92C311.86 142.664 310.772 143.928 309.156 143.928ZM321.621 138.088C321.125 137.304 320.197 136.744 318.821 136.744C316.565 136.744 314.901 138.424 314.901 140.92C314.901 143.576 316.565 145.096 318.821 145.096C320.197 145.096 321.077 144.44 321.621 143.688L321.797 145H322.933V133.8H321.621V138.088ZM318.949 143.928C317.333 143.928 316.245 142.696 316.245 140.92C316.245 139.144 317.333 137.912 318.949 137.912C320.549 137.912 321.637 139.16 321.637 140.952C321.637 142.696 320.549 143.928 318.949 143.928ZM328.96 145.096C330.848 145.096 332.192 143.896 332.512 142.264H331.184C330.912 143.32 330.016 143.928 328.864 143.928C327.312 143.928 326.336 142.84 326.288 141.288V141.176H332.624C332.64 140.984 332.656 140.792 332.656 140.616C332.592 138.2 331.088 136.744 328.784 136.744C326.48 136.744 324.912 138.44 324.912 140.92C324.912 143.416 326.512 145.096 328.96 145.096ZM326.368 140.088C326.496 138.76 327.6 137.896 328.8 137.896C330.16 137.896 331.12 138.68 331.248 140.088H326.368ZM334.633 145H335.945V133.8H334.633V145Z" fill="#F1F1F7"/>
<path d="M177.5 164C177.5 167.59 174.59 170.5 171 170.5C167.41 170.5 164.5 167.59 164.5 164C164.5 160.41 167.41 157.5 171 157.5C174.59 157.5 177.5 160.41 177.5 164Z" fill="#333293" stroke="#333293"/>
<path d="M171.048 160.5C170.963 160.5 170.885 160.516 170.813 160.549C170.742 160.581 170.674 160.63 170.608 160.695L166.888 164.499C166.78 164.606 166.727 164.74 166.727 164.899C166.727 165.004 166.753 165.1 166.805 165.188C166.854 165.275 166.92 165.345 167.005 165.397C167.09 165.446 167.186 165.471 167.293 165.471C167.446 165.471 167.583 165.412 167.703 165.295L171.048 161.867L174.393 165.295C174.513 165.412 174.651 165.471 174.808 165.471C174.912 165.471 175.006 165.446 175.091 165.397C175.179 165.345 175.247 165.275 175.296 165.188C175.348 165.1 175.374 165.004 175.374 164.899C175.374 164.74 175.319 164.606 175.208 164.499L171.487 160.695C171.422 160.63 171.354 160.581 171.282 160.549C171.211 160.516 171.132 160.5 171.048 160.5Z" fill="#FBFBFB"/>
<rect x="188" y="241" width="79" height="20" rx="10" fill="#917EF3"/>
<rect x="396" y="243" width="21" height="20" rx="10" fill="#917EF3"/>
<rect x="79" y="241" width="101" height="20" rx="10" fill="#EBEBF8"/>
<rect x="188" y="269" width="79" height="20" rx="10" fill="#917EF3"/>
<rect x="396" y="271" width="21" height="20" rx="10" fill="#917EF3"/>
<rect x="79" y="269" width="102" height="20" rx="10" fill="#EBEBF8"/>
<path d="M200.202 284V276.44L205.466 284H206.586V274.2H205.396V281.76L200.132 274.2H199.012V284H200.202ZM212.168 284.084C213.82 284.084 214.996 283.034 215.276 281.606H214.114C213.876 282.53 213.092 283.062 212.084 283.062C210.726 283.062 209.872 282.11 209.83 280.752V280.654H215.374C215.388 280.486 215.402 280.318 215.402 280.164C215.346 278.05 214.03 276.776 212.014 276.776C209.998 276.776 208.626 278.26 208.626 280.43C208.626 282.614 210.026 284.084 212.168 284.084ZM209.9 279.702C210.012 278.54 210.978 277.784 212.028 277.784C213.218 277.784 214.058 278.47 214.17 279.702H209.9ZM222.9 278.092C222.452 277.294 221.654 276.776 220.45 276.776C218.476 276.776 217.02 278.246 217.02 280.43C217.02 282.754 218.476 284.084 220.45 284.084C221.654 284.084 222.424 283.58 222.9 282.768V283.608C222.9 285.162 222.088 285.862 220.59 285.862C219.4 285.862 218.602 285.358 218.406 284.462H217.23C217.412 286.03 218.686 286.884 220.506 286.884C222.956 286.884 224.048 285.708 224.048 283.65V276.86H223.054L222.9 278.092ZM220.562 283.062C219.148 283.062 218.196 281.984 218.196 280.43C218.196 278.876 219.148 277.798 220.562 277.798C221.962 277.798 222.914 278.89 222.914 280.458C222.914 281.984 221.962 283.062 220.562 283.062ZM232.486 282.95C232.164 282.95 232.024 282.852 232.024 282.474V279.352C232.024 277.686 230.974 276.776 229.154 276.776C227.432 276.776 226.298 277.602 226.13 279.002H227.278C227.418 278.274 228.09 277.798 229.098 277.798C230.218 277.798 230.876 278.358 230.876 279.282V279.772H228.776C226.9 279.772 225.906 280.57 225.906 281.998C225.906 283.3 226.97 284.084 228.538 284.084C229.77 284.084 230.484 283.538 230.932 282.894C230.946 283.594 231.268 284 232.22 284H232.85V282.95H232.486ZM230.876 281.088C230.876 282.278 230.05 283.104 228.622 283.104C227.67 283.104 227.068 282.628 227.068 281.928C227.068 281.116 227.642 280.738 228.664 280.738H230.876V281.088ZM234.825 282.138C234.825 283.398 235.315 284 236.687 284H237.933V282.95H236.799C236.183 282.95 235.973 282.726 235.973 282.124V277.91H237.821V276.86H235.973V274.858H234.825V276.86H233.537V277.91H234.825V282.138ZM240.075 275.656C240.495 275.656 240.817 275.348 240.817 274.914C240.817 274.48 240.495 274.172 240.075 274.172C239.655 274.172 239.333 274.48 239.333 274.914C239.333 275.348 239.655 275.656 240.075 275.656ZM239.487 284H240.635V276.86H239.487V284ZM244.728 284H246.114L248.788 276.86H247.584L245.442 282.698L243.286 276.86H242.054L244.728 284ZM253.18 284.084C254.832 284.084 256.008 283.034 256.288 281.606H255.126C254.888 282.53 254.104 283.062 253.096 283.062C251.738 283.062 250.884 282.11 250.842 280.752V280.654H256.386C256.4 280.486 256.414 280.318 256.414 280.164C256.358 278.05 255.042 276.776 253.026 276.776C251.01 276.776 249.638 278.26 249.638 280.43C249.638 282.614 251.038 284.084 253.18 284.084ZM250.912 279.702C251.024 278.54 251.99 277.784 253.04 277.784C254.23 277.784 255.07 278.47 255.182 279.702H250.912Z" fill="#FBFBFB"/>
<path d="M402.782 281.324C402.782 284.25 404.294 286.084 406.506 286.084C408.704 286.084 410.216 284.25 410.216 281.324V280.876C410.216 278.09 408.704 276.116 406.506 276.116C404.294 276.116 402.782 278.09 402.782 280.876V281.324ZM409.026 281.282C409.026 283.606 408.018 285.006 406.506 285.006C404.98 285.006 403.972 283.606 403.972 281.282V280.918C403.972 278.594 404.98 277.194 406.506 277.194C408.018 277.194 409.026 278.594 409.026 280.918V281.282Z" fill="#FBFBFB"/>
<path d="M199.23 257H200.448V253.234H202.996C204.956 253.234 206.244 252.044 206.244 250.21C206.244 248.376 204.956 247.2 202.996 247.2H199.23V257ZM202.898 248.32C204.186 248.32 204.998 249.048 204.998 250.21C204.998 251.372 204.172 252.114 202.884 252.114H200.448V248.32H202.898ZM210.856 257.084C212.942 257.084 214.398 255.6 214.398 253.43C214.398 251.26 212.942 249.776 210.856 249.776C208.77 249.776 207.314 251.26 207.314 253.43C207.314 255.6 208.77 257.084 210.856 257.084ZM210.856 256.062C209.442 256.062 208.49 254.956 208.49 253.43C208.49 251.904 209.442 250.798 210.856 250.798C212.27 250.798 213.222 251.904 213.222 253.43C213.222 254.956 212.27 256.062 210.856 256.062ZM215.953 254.648C215.981 256.216 217.255 257.084 219.103 257.084C220.685 257.084 221.959 256.258 221.959 254.928C221.959 253.346 220.657 253.038 219.033 252.842C217.997 252.716 217.241 252.618 217.241 251.834C217.241 251.176 217.913 250.756 218.907 250.756C219.887 250.756 220.559 251.302 220.643 252.03H221.819C221.707 250.546 220.531 249.79 218.907 249.776C217.297 249.762 216.107 250.616 216.107 251.918C216.107 253.402 217.381 253.724 218.977 253.92C220.041 254.046 220.825 254.116 220.825 255.012C220.825 255.67 220.111 256.104 219.103 256.104C217.913 256.104 217.171 255.488 217.129 254.648H215.953ZM224.381 248.656C224.801 248.656 225.123 248.348 225.123 247.914C225.123 247.48 224.801 247.172 224.381 247.172C223.961 247.172 223.639 247.48 223.639 247.914C223.639 248.348 223.961 248.656 224.381 248.656ZM223.793 257H224.941V249.86H223.793V257ZM227.606 255.138C227.606 256.398 228.096 257 229.468 257H230.714V255.95H229.58C228.964 255.95 228.754 255.726 228.754 255.124V250.91H230.602V249.86H228.754V247.858H227.606V249.86H226.318V250.91H227.606V255.138ZM232.857 248.656C233.277 248.656 233.599 248.348 233.599 247.914C233.599 247.48 233.277 247.172 232.857 247.172C232.437 247.172 232.115 247.48 232.115 247.914C232.115 248.348 232.437 248.656 232.857 248.656ZM232.269 257H233.417V249.86H232.269V257ZM237.509 257H238.895L241.569 249.86H240.365L238.223 255.698L236.067 249.86H234.835L237.509 257ZM245.962 257.084C247.614 257.084 248.79 256.034 249.07 254.606H247.908C247.67 255.53 246.886 256.062 245.878 256.062C244.52 256.062 243.666 255.11 243.624 253.752V253.654H249.168C249.182 253.486 249.196 253.318 249.196 253.164C249.14 251.05 247.824 249.776 245.808 249.776C243.792 249.776 242.42 251.26 242.42 253.43C242.42 255.614 243.82 257.084 245.962 257.084ZM243.694 252.702C243.806 251.54 244.772 250.784 245.822 250.784C247.012 250.784 247.852 251.47 247.964 252.702H243.694Z" fill="#FBFBFB"/>
<path d="M406.609 249.264C406.609 249.754 406.385 250.104 405.923 250.104H404.327V251.154H405.909C406.217 251.154 406.441 251.098 406.581 250.972V258H407.757V248.2H406.609V249.264Z" fill="#FBFBFB"/>
<path d="M94.216 256.084C95.896 256.084 96.946 255.286 97.394 254.572L97.478 256H98.528V250.694H94.398V251.814H97.338V252.15C97.338 253.886 96.036 254.964 94.23 254.964C92.2 254.964 90.856 253.368 90.856 251.1C90.856 248.832 92.2 247.236 94.258 247.236C95.742 247.236 96.792 248.034 97.128 249.392H98.43C98.094 247.376 96.456 246.116 94.286 246.116C91.444 246.116 89.61 248.132 89.61 251.1C89.61 254.068 91.5 256.084 94.216 256.084ZM104.129 248.86C102.855 248.86 102.309 249.392 101.973 249.938L101.819 248.86H100.825V256H101.973V252.36C101.973 251.226 102.379 249.98 103.877 249.98H104.451V248.86H104.129ZM108.886 256.084C110.538 256.084 111.714 255.034 111.994 253.606H110.832C110.594 254.53 109.81 255.062 108.802 255.062C107.444 255.062 106.59 254.11 106.548 252.752V252.654H112.092C112.106 252.486 112.12 252.318 112.12 252.164C112.064 250.05 110.748 248.776 108.732 248.776C106.716 248.776 105.344 250.26 105.344 252.43C105.344 254.614 106.744 256.084 108.886 256.084ZM106.618 251.702C106.73 250.54 107.696 249.784 108.746 249.784C109.936 249.784 110.776 250.47 110.888 251.702H106.618ZM120.304 254.95C119.982 254.95 119.842 254.852 119.842 254.474V251.352C119.842 249.686 118.792 248.776 116.972 248.776C115.25 248.776 114.116 249.602 113.948 251.002H115.096C115.236 250.274 115.908 249.798 116.916 249.798C118.036 249.798 118.694 250.358 118.694 251.282V251.772H116.594C114.718 251.772 113.724 252.57 113.724 253.998C113.724 255.3 114.788 256.084 116.356 256.084C117.588 256.084 118.302 255.538 118.75 254.894C118.764 255.594 119.086 256 120.038 256H120.668V254.95H120.304ZM118.694 253.088C118.694 254.278 117.868 255.104 116.44 255.104C115.488 255.104 114.886 254.628 114.886 253.928C114.886 253.116 115.46 252.738 116.482 252.738H118.694V253.088ZM122.642 254.138C122.642 255.398 123.132 256 124.504 256H125.75V254.95H124.616C124 254.95 123.79 254.726 123.79 254.124V249.91H125.638V248.86H123.79V246.858H122.642V248.86H121.354V249.91H122.642V254.138ZM136.597 247.656C137.017 247.656 137.339 247.348 137.339 246.914C137.339 246.48 137.017 246.172 136.597 246.172C136.177 246.172 135.855 246.48 135.855 246.914C135.855 247.348 136.177 247.656 136.597 247.656ZM133.209 248.86V248.034C133.209 247.488 133.419 247.25 133.993 247.25H135.099V246.2H133.923C132.593 246.2 132.061 246.802 132.061 248.062V248.86H130.773V249.91H132.061V256H133.209V249.91H136.009V256H137.157V248.86H133.209ZM139.281 256H140.429V246.2H139.281V256ZM150.527 248.776C149.253 248.776 148.483 249.364 148.049 250.134C147.643 249.224 146.789 248.776 145.795 248.776C144.689 248.776 144.087 249.322 143.709 249.84L143.555 248.86H142.561V256H143.709V252.234C143.709 250.806 144.423 249.826 145.599 249.826C146.691 249.826 147.321 250.554 147.321 251.954V256H148.469V252.178C148.469 250.722 149.197 249.826 150.387 249.826C151.465 249.826 152.081 250.554 152.081 251.954V256H153.229V251.884C153.229 249.63 152.011 248.776 150.527 248.776ZM156.676 253.074L156.844 246.2H155.612L155.794 253.074H156.676ZM155.43 255.3C155.43 255.776 155.766 256.084 156.228 256.084C156.69 256.084 157.026 255.776 157.026 255.3C157.026 254.824 156.69 254.516 156.228 254.516C155.766 254.516 155.43 254.824 155.43 255.3Z" fill="#333293"/>
<path d="M93.3838 285C96.4498 285 98.3118 283.026 98.3118 280.1C98.3118 277.16 96.4498 275.2 93.3838 275.2H90.2478V285H93.3838ZM91.4658 276.32H93.3838C95.7638 276.32 97.0658 277.804 97.0658 280.1C97.0658 282.382 95.7638 283.88 93.3838 283.88H91.4658V276.32ZM100.825 276.656C101.245 276.656 101.567 276.348 101.567 275.914C101.567 275.48 101.245 275.172 100.825 275.172C100.405 275.172 100.083 275.48 100.083 275.914C100.083 276.348 100.405 276.656 100.825 276.656ZM100.237 285H101.385V277.86H100.237V285ZM109.146 278.952C108.712 278.266 107.9 277.776 106.696 277.776C104.722 277.776 103.266 279.246 103.266 281.43C103.266 283.754 104.722 285.084 106.696 285.084C107.9 285.084 108.67 284.51 109.146 283.852L109.3 285H110.294V275.2H109.146V278.952ZM106.808 284.062C105.394 284.062 104.442 282.984 104.442 281.43C104.442 279.876 105.394 278.798 106.808 278.798C108.208 278.798 109.16 279.89 109.16 281.458C109.16 282.984 108.208 284.062 106.808 284.062ZM115.918 277.776C114.714 277.776 113.986 278.28 113.566 278.826L113.412 277.86H112.418V285H113.566V281.43C113.566 279.82 114.378 278.826 115.722 278.826C116.968 278.826 117.654 279.61 117.654 281.094V285H118.802V281.024C118.802 278.658 117.528 277.776 115.918 277.776ZM120.975 275.116C120.387 275.116 120.051 275.466 120.051 275.928C120.051 276.432 120.373 276.684 120.793 276.684C120.961 276.684 121.157 276.628 121.269 276.516C121.283 276.572 121.283 276.628 121.283 276.698C121.283 277.174 121.003 277.804 120.107 277.818V278.476C121.339 278.448 122.081 277.734 122.081 276.544C122.081 275.774 121.661 275.116 120.975 275.116ZM124.707 283.138C124.707 284.398 125.197 285 126.569 285H127.815V283.95H126.681C126.065 283.95 125.855 283.726 125.855 283.124V278.91H127.703V277.86H125.855V275.858H124.707V277.86H123.419V278.91H124.707V283.138ZM133.594 285H134.742V275.2H133.594V285ZM137.462 276.656C137.882 276.656 138.204 276.348 138.204 275.914C138.204 275.48 137.882 275.172 137.462 275.172C137.042 275.172 136.72 275.48 136.72 275.914C136.72 276.348 137.042 276.656 137.462 276.656ZM136.874 285H138.022V277.86H136.874V285ZM140.155 285H141.303V283.124L142.745 281.64L145.111 285H146.497L143.515 280.814L146.301 277.86H144.887L141.303 281.654V275.2H140.155V285ZM150.745 285.084C152.397 285.084 153.573 284.034 153.853 282.606H152.691C152.453 283.53 151.669 284.062 150.661 284.062C149.303 284.062 148.449 283.11 148.407 281.752V281.654H153.951C153.965 281.486 153.979 281.318 153.979 281.164C153.923 279.05 152.607 277.776 150.591 277.776C148.575 277.776 147.203 279.26 147.203 281.43C147.203 283.614 148.603 285.084 150.745 285.084ZM148.477 280.702C148.589 279.54 149.555 278.784 150.605 278.784C151.795 278.784 152.635 279.47 152.747 280.702H148.477ZM160.661 276.656C161.081 276.656 161.403 276.348 161.403 275.914C161.403 275.48 161.081 275.172 160.661 275.172C160.241 275.172 159.919 275.48 159.919 275.914C159.919 276.348 160.241 276.656 160.661 276.656ZM160.073 285H161.221V277.86H160.073V285ZM163.886 283.138C163.886 284.398 164.376 285 165.748 285H166.994V283.95H165.86C165.244 283.95 165.034 283.726 165.034 283.124V278.91H166.882V277.86H165.034V275.858H163.886V277.86H162.598V278.91H163.886V283.138ZM168.463 284.3C168.463 284.776 168.799 285.084 169.261 285.084C169.723 285.084 170.059 284.776 170.059 284.3C170.059 283.824 169.723 283.516 169.261 283.516C168.799 283.516 168.463 283.824 168.463 284.3Z" fill="#333293"/>
<path d="M193.166 230.084C195.378 230.084 197.002 228.824 197.366 226.794H196.078C195.714 228.166 194.664 228.964 193.152 228.964C191.094 228.964 189.834 227.354 189.834 225.1C189.834 222.832 191.15 221.236 193.208 221.236C194.678 221.236 195.714 222.048 196.092 223.406H197.38C197.016 221.376 195.434 220.116 193.264 220.116C190.422 220.116 188.588 222.132 188.588 225.1C188.588 228.096 190.352 230.084 193.166 230.084ZM199.229 230H200.377V220.2H199.229V230ZM208.823 228.95C208.501 228.95 208.361 228.852 208.361 228.474V225.352C208.361 223.686 207.311 222.776 205.491 222.776C203.769 222.776 202.635 223.602 202.467 225.002H203.615C203.755 224.274 204.427 223.798 205.435 223.798C206.555 223.798 207.213 224.358 207.213 225.282V225.772H205.113C203.237 225.772 202.243 226.57 202.243 227.998C202.243 229.3 203.307 230.084 204.875 230.084C206.107 230.084 206.821 229.538 207.269 228.894C207.283 229.594 207.605 230 208.557 230H209.187V228.95H208.823ZM207.213 227.088C207.213 228.278 206.387 229.104 204.959 229.104C204.007 229.104 203.405 228.628 203.405 227.928C203.405 227.116 203.979 226.738 205.001 226.738H207.213V227.088ZM210.336 227.648C210.364 229.216 211.638 230.084 213.486 230.084C215.068 230.084 216.342 229.258 216.342 227.928C216.342 226.346 215.04 226.038 213.416 225.842C212.38 225.716 211.624 225.618 211.624 224.834C211.624 224.176 212.296 223.756 213.29 223.756C214.27 223.756 214.942 224.302 215.026 225.03H216.202C216.09 223.546 214.914 222.79 213.29 222.776C211.68 222.762 210.49 223.616 210.49 224.918C210.49 226.402 211.764 226.724 213.36 226.92C214.424 227.046 215.208 227.116 215.208 228.012C215.208 228.67 214.494 229.104 213.486 229.104C212.296 229.104 211.554 228.488 211.512 227.648H210.336ZM217.746 227.648C217.774 229.216 219.048 230.084 220.896 230.084C222.478 230.084 223.752 229.258 223.752 227.928C223.752 226.346 222.45 226.038 220.826 225.842C219.79 225.716 219.034 225.618 219.034 224.834C219.034 224.176 219.706 223.756 220.7 223.756C221.68 223.756 222.352 224.302 222.436 225.03H223.612C223.5 223.546 222.324 222.79 220.7 222.776C219.09 222.762 217.9 223.616 217.9 224.918C217.9 226.402 219.174 226.724 220.77 226.92C221.834 227.046 222.618 227.116 222.618 228.012C222.618 228.67 221.904 229.104 220.896 229.104C219.706 229.104 218.964 228.488 218.922 227.648H217.746Z" fill="#333293"/>
<path d="M401.166 232.084C403.378 232.084 405.002 230.824 405.366 228.794H404.078C403.714 230.166 402.664 230.964 401.152 230.964C399.094 230.964 397.834 229.354 397.834 227.1C397.834 224.832 399.15 223.236 401.208 223.236C402.678 223.236 403.714 224.048 404.092 225.406H405.38C405.016 223.376 403.434 222.116 401.264 222.116C398.422 222.116 396.588 224.132 396.588 227.1C396.588 230.096 398.352 232.084 401.166 232.084ZM407.229 232H408.377V222.2H407.229V232ZM416.823 230.95C416.501 230.95 416.361 230.852 416.361 230.474V227.352C416.361 225.686 415.311 224.776 413.491 224.776C411.769 224.776 410.635 225.602 410.467 227.002H411.615C411.755 226.274 412.427 225.798 413.435 225.798C414.555 225.798 415.213 226.358 415.213 227.282V227.772H413.113C411.237 227.772 410.243 228.57 410.243 229.998C410.243 231.3 411.307 232.084 412.875 232.084C414.107 232.084 414.821 231.538 415.269 230.894C415.283 231.594 415.605 232 416.557 232H417.187V230.95H416.823ZM415.213 229.088C415.213 230.278 414.387 231.104 412.959 231.104C412.007 231.104 411.405 230.628 411.405 229.928C411.405 229.116 411.979 228.738 413.001 228.738H415.213V229.088ZM418.336 229.648C418.364 231.216 419.638 232.084 421.486 232.084C423.068 232.084 424.342 231.258 424.342 229.928C424.342 228.346 423.04 228.038 421.416 227.842C420.38 227.716 419.624 227.618 419.624 226.834C419.624 226.176 420.296 225.756 421.29 225.756C422.27 225.756 422.942 226.302 423.026 227.03H424.202C424.09 225.546 422.914 224.79 421.29 224.776C419.68 224.762 418.49 225.616 418.49 226.918C418.49 228.402 419.764 228.724 421.36 228.92C422.424 229.046 423.208 229.116 423.208 230.012C423.208 230.67 422.494 231.104 421.486 231.104C420.296 231.104 419.554 230.488 419.512 229.648H418.336ZM425.746 229.648C425.774 231.216 427.048 232.084 428.896 232.084C430.478 232.084 431.752 231.258 431.752 229.928C431.752 228.346 430.45 228.038 428.826 227.842C427.79 227.716 427.034 227.618 427.034 226.834C427.034 226.176 427.706 225.756 428.7 225.756C429.68 225.756 430.352 226.302 430.436 227.03H431.612C431.5 225.546 430.324 224.79 428.7 224.776C427.09 224.762 425.9 225.616 425.9 226.918C425.9 228.402 427.174 228.724 428.77 228.92C429.834 229.046 430.618 229.116 430.618 230.012C430.618 230.67 429.904 231.104 428.896 231.104C427.706 231.104 426.964 230.488 426.922 229.648H425.746Z" fill="#333293"/>
<path d="M79.952 231H81.17V227.234H83.634L85.706 231H87.078L84.88 226.996C86.14 226.646 86.966 225.582 86.966 224.21C86.966 222.376 85.664 221.2 83.704 221.2H79.952V231ZM83.62 222.32C84.894 222.32 85.72 223.062 85.72 224.21C85.72 225.358 84.894 226.114 83.606 226.114H81.17V222.32H83.62ZM91.8235 231.084C93.4755 231.084 94.6515 230.034 94.9315 228.606H93.7695C93.5315 229.53 92.7475 230.062 91.7395 230.062C90.3815 230.062 89.5275 229.11 89.4855 227.752V227.654H95.0295C95.0435 227.486 95.0575 227.318 95.0575 227.164C95.0015 225.05 93.6855 223.776 91.6695 223.776C89.6535 223.776 88.2815 225.26 88.2815 227.43C88.2815 229.614 89.6815 231.084 91.8235 231.084ZM89.5555 226.702C89.6675 225.54 90.6335 224.784 91.6835 224.784C92.8735 224.784 93.7135 225.47 93.8255 226.702H89.5555ZM98.573 231H99.959L102.633 223.86H101.429L99.287 229.698L97.131 223.86H95.899L98.573 231ZM104.638 222.656C105.058 222.656 105.38 222.348 105.38 221.914C105.38 221.48 105.058 221.172 104.638 221.172C104.218 221.172 103.896 221.48 103.896 221.914C103.896 222.348 104.218 222.656 104.638 222.656ZM104.05 231H105.198V223.86H104.05V231ZM110.621 231.084C112.273 231.084 113.449 230.034 113.729 228.606H112.567C112.329 229.53 111.545 230.062 110.537 230.062C109.179 230.062 108.325 229.11 108.283 227.752V227.654H113.827C113.841 227.486 113.855 227.318 113.855 227.164C113.799 225.05 112.483 223.776 110.467 223.776C108.451 223.776 107.079 225.26 107.079 227.43C107.079 229.614 108.479 231.084 110.621 231.084ZM108.353 226.702C108.465 225.54 109.431 224.784 110.481 224.784C111.671 224.784 112.511 225.47 112.623 226.702H108.353ZM117.13 231H118.39L120.182 225.694L121.904 231H123.164L125.544 223.86H124.382L122.52 229.67L120.742 223.86H119.678L117.802 229.67L116.024 223.86H114.82L117.13 231Z" fill="#333293"/>
<path d="M303.952 232H310.378V230.88H305.17V227.576H309.356V226.456H305.17V223.32H310.196V222.2H303.952V232ZM320.103 224.776C318.829 224.776 318.059 225.364 317.625 226.134C317.219 225.224 316.365 224.776 315.371 224.776C314.265 224.776 313.663 225.322 313.285 225.84L313.131 224.86H312.137V232H313.285V228.234C313.285 226.806 313.999 225.826 315.175 225.826C316.267 225.826 316.897 226.554 316.897 227.954V232H318.045V228.178C318.045 226.722 318.773 225.826 319.963 225.826C321.041 225.826 321.657 226.554 321.657 227.954V232H322.805V227.884C322.805 225.63 321.587 224.776 320.103 224.776ZM328.436 224.776C327.232 224.776 326.462 225.35 325.986 226.008V222.2H324.838V232H325.832L325.986 230.908C326.42 231.594 327.232 232.084 328.436 232.084C330.41 232.084 331.866 230.614 331.866 228.43C331.866 226.106 330.41 224.776 328.436 224.776ZM328.324 231.062C326.924 231.062 325.972 229.97 325.972 228.402C325.972 226.876 326.924 225.798 328.324 225.798C329.738 225.798 330.69 226.876 330.69 228.43C330.69 229.984 329.738 231.062 328.324 231.062ZM337.027 232.084C338.679 232.084 339.855 231.034 340.135 229.606H338.973C338.735 230.53 337.951 231.062 336.943 231.062C335.585 231.062 334.731 230.11 334.689 228.752V228.654H340.233C340.247 228.486 340.261 228.318 340.261 228.164C340.205 226.05 338.889 224.776 336.873 224.776C334.857 224.776 333.485 226.26 333.485 228.43C333.485 230.614 334.885 232.084 337.027 232.084ZM334.759 227.702C334.871 226.54 335.837 225.784 336.887 225.784C338.077 225.784 338.917 226.47 339.029 227.702H334.759ZM347.759 225.952C347.325 225.266 346.513 224.776 345.309 224.776C343.335 224.776 341.879 226.246 341.879 228.43C341.879 230.754 343.335 232.084 345.309 232.084C346.513 232.084 347.283 231.51 347.759 230.852L347.913 232H348.907V222.2H347.759V225.952ZM345.421 231.062C344.007 231.062 343.055 229.984 343.055 228.43C343.055 226.876 344.007 225.798 345.421 225.798C346.821 225.798 347.773 226.89 347.773 228.458C347.773 229.984 346.821 231.062 345.421 231.062ZM356.659 225.952C356.225 225.266 355.413 224.776 354.209 224.776C352.235 224.776 350.779 226.246 350.779 228.43C350.779 230.754 352.235 232.084 354.209 232.084C355.413 232.084 356.183 231.51 356.659 230.852L356.813 232H357.807V222.2H356.659V225.952ZM354.321 231.062C352.907 231.062 351.955 229.984 351.955 228.43C351.955 226.876 352.907 225.798 354.321 225.798C355.721 225.798 356.673 226.89 356.673 228.458C356.673 229.984 355.721 231.062 354.321 231.062ZM360.519 223.656C360.939 223.656 361.261 223.348 361.261 222.914C361.261 222.48 360.939 222.172 360.519 222.172C360.099 222.172 359.777 222.48 359.777 222.914C359.777 223.348 360.099 223.656 360.519 223.656ZM359.931 232H361.079V224.86H359.931V232ZM366.712 224.776C365.508 224.776 364.78 225.28 364.36 225.826L364.206 224.86H363.212V232H364.36V228.43C364.36 226.82 365.172 225.826 366.516 225.826C367.762 225.826 368.448 226.61 368.448 228.094V232H369.596V228.024C369.596 225.658 368.322 224.776 366.712 224.776ZM377.247 226.092C376.799 225.294 376.001 224.776 374.797 224.776C372.823 224.776 371.367 226.246 371.367 228.43C371.367 230.754 372.823 232.084 374.797 232.084C376.001 232.084 376.771 231.58 377.247 230.768V231.608C377.247 233.162 376.435 233.862 374.937 233.862C373.747 233.862 372.949 233.358 372.753 232.462H371.577C371.759 234.03 373.033 234.884 374.853 234.884C377.303 234.884 378.395 233.708 378.395 231.65V224.86H377.401L377.247 226.092ZM374.909 231.062C373.495 231.062 372.543 229.984 372.543 228.43C372.543 226.876 373.495 225.798 374.909 225.798C376.309 225.798 377.261 226.89 377.261 228.458C377.261 229.984 376.309 231.062 374.909 231.062Z" fill="#333293"/>
<rect x="303" y="243" width="20" height="20" rx="4" fill="#EBEBF8"/>
<rect x="303.5" y="243.5" width="19" height="19" rx="3.5" stroke="#917EF3" stroke-opacity="0.25"/>
<rect x="303" y="271" width="20" height="20" rx="4" fill="#EBEBF8"/>
<rect x="303.5" y="271.5" width="19" height="19" rx="3.5" stroke="#917EF3" stroke-opacity="0.25"/>
<rect x="322" y="243" width="20" height="20" rx="4" fill="#EBEBF8"/>
<rect x="322.5" y="243.5" width="19" height="19" rx="3.5" stroke="#917EF3" stroke-opacity="0.25"/>
<rect x="322" y="271" width="20" height="20" rx="4" fill="#EBEBF8"/>
<rect x="322.5" y="271.5" width="19" height="19" rx="3.5" stroke="#917EF3" stroke-opacity="0.25"/>
<rect x="341" y="243" width="20" height="20" rx="4" fill="#EBEBF8"/>
<rect x="341.5" y="243.5" width="19" height="19" rx="3.5" stroke="#917EF3" stroke-opacity="0.25"/>
<rect x="341" y="271" width="20" height="20" rx="4" fill="#EBEBF8"/>
<rect x="341.5" y="271.5" width="19" height="19" rx="3.5" stroke="#917EF3" stroke-opacity="0.25"/>
<path d="M171 216L171 172" stroke="black" stroke-width="1.5" stroke-linecap="round" stroke-dasharray="0.5 8"/>
<path d="M604.471 266.946C604.471 266.862 604.454 266.784 604.422 266.712C604.389 266.64 604.34 266.572 604.275 266.507L600.472 262.786C600.364 262.679 600.231 262.625 600.071 262.625C599.967 262.625 599.871 262.651 599.783 262.703C599.695 262.752 599.625 262.819 599.573 262.903C599.524 262.988 599.5 263.084 599.5 263.191C599.5 263.344 599.559 263.481 599.676 263.602L603.104 266.946L599.676 270.291C599.559 270.411 599.5 270.55 599.5 270.706C599.5 270.81 599.524 270.905 599.573 270.989C599.625 271.077 599.695 271.146 599.783 271.194C599.871 271.246 599.967 271.272 600.071 271.272C600.231 271.272 600.364 271.217 600.472 271.106L604.275 267.386C604.34 267.321 604.389 267.252 604.422 267.181C604.454 267.109 604.471 267.031 604.471 266.946Z" fill="#FBFBFB"/>
</svg>
