<svg width="975" height="208" viewBox="0 0 975 208" fill="none" xmlns="http://www.w3.org/2000/svg">
<rect width="975" height="208" fill="#F7F7F7"/>
<rect x="531.5" y="40.5" width="303" height="127" rx="3.5" stroke="#2B2649"/>
<path d="M547 52C547 49.7909 548.791 48 551 48H563V64H551C548.791 64 547 62.2091 547 60V52Z" fill="#917EF3" fill-opacity="0.25"/>
<path d="M547.25 52C547.25 49.9289 548.929 48.25 551 48.25H562.75V63.75H551C548.929 63.75 547.25 62.0711 547.25 60V52Z" stroke="#917EF3" stroke-opacity="0.25" stroke-width="0.5"/>
<rect x="563" y="48" width="16" height="16" fill="#917EF3" fill-opacity="0.5"/>
<rect x="563.25" y="48.25" width="15.5" height="15.5" stroke="#917EF3" stroke-opacity="0.25" stroke-width="0.5"/>
<rect x="579" y="48" width="16" height="16" fill="#917EF3"/>
<rect x="579.25" y="48.25" width="15.5" height="15.5" stroke="#917EF3" stroke-opacity="0.25" stroke-width="0.5"/>
<rect x="595" y="48" width="16" height="16" fill="#917EF3" fill-opacity="0.5"/>
<rect x="595.25" y="48.25" width="15.5" height="15.5" stroke="#917EF3" stroke-opacity="0.25" stroke-width="0.5"/>
<rect x="611" y="48" width="16" height="16" fill="#917EF3" fill-opacity="0.5"/>
<rect x="611.25" y="48.25" width="15.5" height="15.5" stroke="#917EF3" stroke-opacity="0.25" stroke-width="0.5"/>
<rect x="627" y="48" width="16" height="16" fill="#917EF3" fill-opacity="0.5"/>
<rect x="627.25" y="48.25" width="15.5" height="15.5" stroke="#917EF3" stroke-opacity="0.25" stroke-width="0.5"/>
<rect x="643" y="48" width="16" height="16" fill="#917EF3" fill-opacity="0.5"/>
<rect x="643.25" y="48.25" width="15.5" height="15.5" stroke="#917EF3" stroke-opacity="0.25" stroke-width="0.5"/>
<rect x="659" y="48" width="16" height="16" fill="#917EF3" fill-opacity="0.25"/>
<rect x="659.25" y="48.25" width="15.5" height="15.5" stroke="#917EF3" stroke-opacity="0.25" stroke-width="0.5"/>
<rect x="675" y="48" width="16" height="16" fill="#917EF3" fill-opacity="0.25"/>
<rect x="675.25" y="48.25" width="15.5" height="15.5" stroke="#917EF3" stroke-opacity="0.25" stroke-width="0.5"/>
<rect x="691" y="48" width="16" height="16" fill="#917EF3" fill-opacity="0.25"/>
<rect x="691.25" y="48.25" width="15.5" height="15.5" stroke="#917EF3" stroke-opacity="0.25" stroke-width="0.5"/>
<rect x="707" y="48" width="16" height="16" fill="#917EF3" fill-opacity="0.25"/>
<rect x="707.25" y="48.25" width="15.5" height="15.5" stroke="#917EF3" stroke-opacity="0.25" stroke-width="0.5"/>
<rect x="723" y="48" width="16" height="16" fill="#917EF3" fill-opacity="0.5"/>
<rect x="723.25" y="48.25" width="15.5" height="15.5" stroke="#917EF3" stroke-opacity="0.25" stroke-width="0.5"/>
<rect x="739" y="48" width="16" height="16" fill="#917EF3"/>
<rect x="739.25" y="48.25" width="15.5" height="15.5" stroke="#917EF3" stroke-opacity="0.25" stroke-width="0.5"/>
<rect x="755" y="48" width="16" height="16" fill="#917EF3" fill-opacity="0.5"/>
<rect x="755.25" y="48.25" width="15.5" height="15.5" stroke="#917EF3" stroke-opacity="0.25" stroke-width="0.5"/>
<rect x="771" y="48" width="16" height="16" fill="#917EF3" fill-opacity="0.25"/>
<rect x="771.25" y="48.25" width="15.5" height="15.5" stroke="#917EF3" stroke-opacity="0.25" stroke-width="0.5"/>
<rect x="787" y="48" width="16" height="16" fill="#917EF3" fill-opacity="0.25"/>
<rect x="787.25" y="48.25" width="15.5" height="15.5" stroke="#917EF3" stroke-opacity="0.25" stroke-width="0.5"/>
<path d="M803 48H815C817.209 48 819 49.7909 819 52V60C819 62.2091 817.209 64 815 64H803V48Z" fill="#FBFBFB"/>
<path d="M803.25 48.25H815C817.071 48.25 818.75 49.9289 818.75 52V60C818.75 62.0711 817.071 63.75 815 63.75H803.25V48.25Z" stroke="#917EF3" stroke-opacity="0.25" stroke-width="0.5"/>
<path d="M547 76C547 73.7909 548.791 72 551 72H563V88H551C548.791 88 547 86.2091 547 84V76Z" fill="#FBFBFB"/>
<path d="M547.25 76C547.25 73.9289 548.929 72.25 551 72.25H562.75V87.75H551C548.929 87.75 547.25 86.0711 547.25 84V76Z" stroke="#917EF3" stroke-opacity="0.25" stroke-width="0.5"/>
<rect x="563" y="72" width="16" height="16" fill="#FBFBFB"/>
<rect x="563.25" y="72.25" width="15.5" height="15.5" stroke="#917EF3" stroke-opacity="0.25" stroke-width="0.5"/>
<rect x="579" y="72" width="16" height="16" fill="#917EF3" fill-opacity="0.25"/>
<rect x="579.25" y="72.25" width="15.5" height="15.5" stroke="#917EF3" stroke-opacity="0.25" stroke-width="0.5"/>
<rect x="595" y="72" width="16" height="16" fill="#917EF3" fill-opacity="0.25"/>
<rect x="595.25" y="72.25" width="15.5" height="15.5" stroke="#917EF3" stroke-opacity="0.25" stroke-width="0.5"/>
<rect x="611" y="72" width="16" height="16" fill="#917EF3" fill-opacity="0.5"/>
<rect x="611.25" y="72.25" width="15.5" height="15.5" stroke="#917EF3" stroke-opacity="0.25" stroke-width="0.5"/>
<rect x="627" y="72" width="16" height="16" fill="#917EF3" fill-opacity="0.5"/>
<rect x="627.25" y="72.25" width="15.5" height="15.5" stroke="#917EF3" stroke-opacity="0.25" stroke-width="0.5"/>
<rect x="643" y="72" width="16" height="16" fill="#917EF3" fill-opacity="0.5"/>
<rect x="643.25" y="72.25" width="15.5" height="15.5" stroke="#917EF3" stroke-opacity="0.25" stroke-width="0.5"/>
<rect x="659" y="72" width="16" height="16" fill="#917EF3"/>
<rect x="659.25" y="72.25" width="15.5" height="15.5" stroke="#917EF3" stroke-opacity="0.25" stroke-width="0.5"/>
<rect x="675" y="72" width="16" height="16" fill="#917EF3"/>
<rect x="675.25" y="72.25" width="15.5" height="15.5" stroke="#917EF3" stroke-opacity="0.25" stroke-width="0.5"/>
<rect x="691" y="72" width="16" height="16" fill="#917EF3" fill-opacity="0.5"/>
<rect x="691.25" y="72.25" width="15.5" height="15.5" stroke="#917EF3" stroke-opacity="0.25" stroke-width="0.5"/>
<rect x="707" y="72" width="16" height="16" fill="#917EF3" fill-opacity="0.25"/>
<rect x="707.25" y="72.25" width="15.5" height="15.5" stroke="#917EF3" stroke-opacity="0.25" stroke-width="0.5"/>
<rect x="723" y="72" width="16" height="16" fill="#917EF3" fill-opacity="0.25"/>
<rect x="723.25" y="72.25" width="15.5" height="15.5" stroke="#917EF3" stroke-opacity="0.25" stroke-width="0.5"/>
<rect x="739" y="72" width="16" height="16" fill="#917EF3" fill-opacity="0.25"/>
<rect x="739.25" y="72.25" width="15.5" height="15.5" stroke="#917EF3" stroke-opacity="0.25" stroke-width="0.5"/>
<rect x="755" y="72" width="16" height="16" fill="#917EF3" fill-opacity="0.5"/>
<rect x="755.25" y="72.25" width="15.5" height="15.5" stroke="#917EF3" stroke-opacity="0.25" stroke-width="0.5"/>
<rect x="771" y="72" width="16" height="16" fill="#917EF3" fill-opacity="0.5"/>
<rect x="771.25" y="72.25" width="15.5" height="15.5" stroke="#917EF3" stroke-opacity="0.25" stroke-width="0.5"/>
<rect x="787" y="72" width="16" height="16" fill="#917EF3"/>
<rect x="787.25" y="72.25" width="15.5" height="15.5" stroke="#917EF3" stroke-opacity="0.25" stroke-width="0.5"/>
<path d="M803 72H815C817.209 72 819 73.7909 819 76V84C819 86.2091 817.209 88 815 88H803V72Z" fill="#917EF3"/>
<path d="M803.25 72.25H815C817.071 72.25 818.75 73.9289 818.75 76V84C818.75 86.0711 817.071 87.75 815 87.75H803.25V72.25Z" stroke="#917EF3" stroke-opacity="0.25" stroke-width="0.5"/>
<path d="M547 100C547 97.7909 548.791 96 551 96H563V112H551C548.791 112 547 110.209 547 108V100Z" fill="#917EF3" fill-opacity="0.5"/>
<path d="M547.25 100C547.25 97.9289 548.929 96.25 551 96.25H562.75V111.75H551C548.929 111.75 547.25 110.071 547.25 108V100Z" stroke="#917EF3" stroke-opacity="0.25" stroke-width="0.5"/>
<rect x="563" y="96" width="16" height="16" fill="#917EF3"/>
<rect x="563.25" y="96.25" width="15.5" height="15.5" stroke="#917EF3" stroke-opacity="0.25" stroke-width="0.5"/>
<rect x="579" y="96" width="16" height="16" fill="#917EF3"/>
<rect x="579.25" y="96.25" width="15.5" height="15.5" stroke="#917EF3" stroke-opacity="0.25" stroke-width="0.5"/>
<rect x="595" y="96" width="16" height="16" fill="#917EF3" fill-opacity="0.5"/>
<rect x="595.25" y="96.25" width="15.5" height="15.5" stroke="#917EF3" stroke-opacity="0.25" stroke-width="0.5"/>
<rect x="611" y="96" width="16" height="16" fill="#917EF3" fill-opacity="0.5"/>
<rect x="611.25" y="96.25" width="15.5" height="15.5" stroke="#917EF3" stroke-opacity="0.25" stroke-width="0.5"/>
<rect x="627" y="96" width="16" height="16" fill="#917EF3"/>
<rect x="627.25" y="96.25" width="15.5" height="15.5" stroke="#917EF3" stroke-opacity="0.25" stroke-width="0.5"/>
<rect x="643" y="96" width="16" height="16" fill="#917EF3" fill-opacity="0.5"/>
<rect x="643.25" y="96.25" width="15.5" height="15.5" stroke="#917EF3" stroke-opacity="0.25" stroke-width="0.5"/>
<rect x="659" y="96" width="16" height="16" fill="#917EF3" fill-opacity="0.5"/>
<rect x="659.25" y="96.25" width="15.5" height="15.5" stroke="#917EF3" stroke-opacity="0.25" stroke-width="0.5"/>
<rect x="675" y="96" width="16" height="16" fill="#917EF3" fill-opacity="0.25"/>
<rect x="675.25" y="96.25" width="15.5" height="15.5" stroke="#917EF3" stroke-opacity="0.25" stroke-width="0.5"/>
<rect x="691" y="96" width="16" height="16" fill="#917EF3" fill-opacity="0.25"/>
<rect x="691.25" y="96.25" width="15.5" height="15.5" stroke="#917EF3" stroke-opacity="0.25" stroke-width="0.5"/>
<rect x="707" y="96" width="16" height="16" fill="#FBFBFB"/>
<rect x="707.25" y="96.25" width="15.5" height="15.5" stroke="#917EF3" stroke-opacity="0.25" stroke-width="0.5"/>
<rect x="723" y="96" width="16" height="16" fill="#FBFBFB"/>
<rect x="723.25" y="96.25" width="15.5" height="15.5" stroke="#917EF3" stroke-opacity="0.25" stroke-width="0.5"/>
<rect x="739" y="96" width="16" height="16" fill="#FBFBFB"/>
<rect x="739.25" y="96.25" width="15.5" height="15.5" stroke="#917EF3" stroke-opacity="0.25" stroke-width="0.5"/>
<rect x="755" y="96" width="16" height="16" fill="#917EF3" fill-opacity="0.25"/>
<rect x="755.25" y="96.25" width="15.5" height="15.5" stroke="#917EF3" stroke-opacity="0.25" stroke-width="0.5"/>
<rect x="771" y="96" width="16" height="16" fill="#917EF3" fill-opacity="0.25"/>
<rect x="771.25" y="96.25" width="15.5" height="15.5" stroke="#917EF3" stroke-opacity="0.25" stroke-width="0.5"/>
<rect x="787" y="96" width="16" height="16" fill="#917EF3" fill-opacity="0.5"/>
<rect x="787.25" y="96.25" width="15.5" height="15.5" stroke="#917EF3" stroke-opacity="0.25" stroke-width="0.5"/>
<path d="M803 96H815C817.209 96 819 97.7909 819 100V108C819 110.209 817.209 112 815 112H803V96Z" fill="#917EF3" fill-opacity="0.5"/>
<path d="M803.25 96.25H815C817.071 96.25 818.75 97.9289 818.75 100V108C818.75 110.071 817.071 111.75 815 111.75H803.25V96.25Z" stroke="#917EF3" stroke-opacity="0.25" stroke-width="0.5"/>
<path d="M547 124C547 121.791 548.791 120 551 120H563V136H551C548.791 136 547 134.209 547 132V124Z" fill="#917EF3" fill-opacity="0.25"/>
<path d="M547.25 124C547.25 121.929 548.929 120.25 551 120.25H562.75V135.75H551C548.929 135.75 547.25 134.071 547.25 132V124Z" stroke="#917EF3" stroke-opacity="0.25" stroke-width="0.5"/>
<rect x="563" y="120" width="16" height="16" fill="#917EF3" fill-opacity="0.25"/>
<rect x="563.25" y="120.25" width="15.5" height="15.5" stroke="#917EF3" stroke-opacity="0.25" stroke-width="0.5"/>
<rect x="579" y="120" width="16" height="16" fill="#917EF3" fill-opacity="0.25"/>
<rect x="579.25" y="120.25" width="15.5" height="15.5" stroke="#917EF3" stroke-opacity="0.25" stroke-width="0.5"/>
<rect x="595" y="120" width="16" height="16" fill="#917EF3" fill-opacity="0.5"/>
<rect x="595.25" y="120.25" width="15.5" height="15.5" stroke="#917EF3" stroke-opacity="0.25" stroke-width="0.5"/>
<rect x="611" y="120" width="16" height="16" fill="#917EF3" fill-opacity="0.5"/>
<rect x="611.25" y="120.25" width="15.5" height="15.5" stroke="#917EF3" stroke-opacity="0.25" stroke-width="0.5"/>
<rect x="627" y="120" width="16" height="16" fill="#FBFBFB"/>
<rect x="627.25" y="120.25" width="15.5" height="15.5" stroke="#917EF3" stroke-opacity="0.25" stroke-width="0.5"/>
<rect x="643" y="120" width="16" height="16" fill="#FBFBFB"/>
<rect x="643.25" y="120.25" width="15.5" height="15.5" stroke="#917EF3" stroke-opacity="0.25" stroke-width="0.5"/>
<rect x="659" y="120" width="16" height="16" fill="#917EF3" fill-opacity="0.25"/>
<rect x="659.25" y="120.25" width="15.5" height="15.5" stroke="#917EF3" stroke-opacity="0.25" stroke-width="0.5"/>
<rect x="675" y="120" width="16" height="16" fill="#917EF3" fill-opacity="0.5"/>
<rect x="675.25" y="120.25" width="15.5" height="15.5" stroke="#917EF3" stroke-opacity="0.25" stroke-width="0.5"/>
<rect x="691" y="120" width="16" height="16" fill="#917EF3" fill-opacity="0.5"/>
<rect x="691.25" y="120.25" width="15.5" height="15.5" stroke="#917EF3" stroke-opacity="0.25" stroke-width="0.5"/>
<rect x="707" y="120" width="16" height="16" fill="#917EF3" fill-opacity="0.5"/>
<rect x="707.25" y="120.25" width="15.5" height="15.5" stroke="#917EF3" stroke-opacity="0.25" stroke-width="0.5"/>
<rect x="723" y="120" width="16" height="16" fill="#917EF3"/>
<rect x="723.25" y="120.25" width="15.5" height="15.5" stroke="#917EF3" stroke-opacity="0.25" stroke-width="0.5"/>
<rect x="739" y="120" width="16" height="16" fill="#917EF3"/>
<rect x="739.25" y="120.25" width="15.5" height="15.5" stroke="#917EF3" stroke-opacity="0.25" stroke-width="0.5"/>
<rect x="755" y="120" width="16" height="16" fill="#917EF3" fill-opacity="0.5"/>
<rect x="755.25" y="120.25" width="15.5" height="15.5" stroke="#917EF3" stroke-opacity="0.25" stroke-width="0.5"/>
<rect x="771" y="120" width="16" height="16" fill="#917EF3" fill-opacity="0.25"/>
<rect x="771.25" y="120.25" width="15.5" height="15.5" stroke="#917EF3" stroke-opacity="0.25" stroke-width="0.5"/>
<rect x="787" y="120" width="16" height="16" fill="#917EF3" fill-opacity="0.25"/>
<rect x="787.25" y="120.25" width="15.5" height="15.5" stroke="#917EF3" stroke-opacity="0.25" stroke-width="0.5"/>
<path d="M803 120H815C817.209 120 819 121.791 819 124V132C819 134.209 817.209 136 815 136H803V120Z" fill="#917EF3" fill-opacity="0.25"/>
<path d="M803.25 120.25H815C817.071 120.25 818.75 121.929 818.75 124V132C818.75 134.071 817.071 135.75 815 135.75H803.25V120.25Z" stroke="#917EF3" stroke-opacity="0.25" stroke-width="0.5"/>
<path d="M547 148C547 145.791 548.791 144 551 144H563V160H551C548.791 160 547 158.209 547 156V148Z" fill="#917EF3" fill-opacity="0.25"/>
<path d="M547.25 148C547.25 145.929 548.929 144.25 551 144.25H562.75V159.75H551C548.929 159.75 547.25 158.071 547.25 156V148Z" stroke="#917EF3" stroke-opacity="0.25" stroke-width="0.5"/>
<rect x="563" y="144" width="16" height="16" fill="#917EF3" fill-opacity="0.25"/>
<rect x="563.25" y="144.25" width="15.5" height="15.5" stroke="#917EF3" stroke-opacity="0.25" stroke-width="0.5"/>
<rect x="579" y="144" width="16" height="16" fill="#917EF3" fill-opacity="0.5"/>
<rect x="579.25" y="144.25" width="15.5" height="15.5" stroke="#917EF3" stroke-opacity="0.25" stroke-width="0.5"/>
<rect x="595" y="144" width="16" height="16" fill="#917EF3"/>
<rect x="595.25" y="144.25" width="15.5" height="15.5" stroke="#917EF3" stroke-opacity="0.25" stroke-width="0.5"/>
<rect x="611" y="144" width="16" height="16" fill="#917EF3"/>
<rect x="611.25" y="144.25" width="15.5" height="15.5" stroke="#917EF3" stroke-opacity="0.25" stroke-width="0.5"/>
<rect x="627" y="144" width="16" height="16" fill="#917EF3" fill-opacity="0.5"/>
<rect x="627.25" y="144.25" width="15.5" height="15.5" stroke="#917EF3" stroke-opacity="0.25" stroke-width="0.5"/>
<rect x="643" y="144" width="16" height="16" fill="#917EF3" fill-opacity="0.5"/>
<rect x="643.25" y="144.25" width="15.5" height="15.5" stroke="#917EF3" stroke-opacity="0.25" stroke-width="0.5"/>
<rect x="659" y="144" width="16" height="16" fill="#917EF3" fill-opacity="0.25"/>
<rect x="659.25" y="144.25" width="15.5" height="15.5" stroke="#917EF3" stroke-opacity="0.25" stroke-width="0.5"/>
<rect x="675" y="144" width="16" height="16" fill="#917EF3" fill-opacity="0.25"/>
<rect x="675.25" y="144.25" width="15.5" height="15.5" stroke="#917EF3" stroke-opacity="0.25" stroke-width="0.5"/>
<rect x="691" y="144" width="16" height="16" fill="#917EF3" fill-opacity="0.25"/>
<rect x="691.25" y="144.25" width="15.5" height="15.5" stroke="#917EF3" stroke-opacity="0.25" stroke-width="0.5"/>
<rect x="707" y="144" width="16" height="16" fill="#FBFBFB"/>
<rect x="707.25" y="144.25" width="15.5" height="15.5" stroke="#917EF3" stroke-opacity="0.25" stroke-width="0.5"/>
<rect x="723" y="144" width="16" height="16" fill="#917EF3" fill-opacity="0.25"/>
<rect x="723.25" y="144.25" width="15.5" height="15.5" stroke="#917EF3" stroke-opacity="0.25" stroke-width="0.5"/>
<rect x="739" y="144" width="16" height="16" fill="#917EF3" fill-opacity="0.5"/>
<rect x="739.25" y="144.25" width="15.5" height="15.5" stroke="#917EF3" stroke-opacity="0.25" stroke-width="0.5"/>
<rect x="755" y="144" width="16" height="16" fill="#917EF3" fill-opacity="0.5"/>
<rect x="755.25" y="144.25" width="15.5" height="15.5" stroke="#917EF3" stroke-opacity="0.25" stroke-width="0.5"/>
<rect x="771" y="144" width="16" height="16" fill="#917EF3"/>
<rect x="771.25" y="144.25" width="15.5" height="15.5" stroke="#917EF3" stroke-opacity="0.25" stroke-width="0.5"/>
<rect x="787" y="144" width="16" height="16" fill="#917EF3"/>
<rect x="787.25" y="144.25" width="15.5" height="15.5" stroke="#917EF3" stroke-opacity="0.25" stroke-width="0.5"/>
<path d="M803 144H815C817.209 144 819 145.791 819 148V156C819 158.209 817.209 160 815 160H803V144Z" fill="#917EF3"/>
<path d="M803.25 144.25H815C817.071 144.25 818.75 145.929 818.75 148V156C818.75 158.071 817.071 159.75 815 159.75H803.25V144.25Z" stroke="#917EF3" stroke-opacity="0.25" stroke-width="0.5"/>
<path d="M531 106L447 106" stroke="black" stroke-width="1.5" stroke-linecap="round" stroke-dasharray="0.5 8"/>
<ellipse cx="531" cy="105" rx="7" ry="7" fill="#333293"/>
<rect x="140.5" y="40.5" width="299" height="127" rx="3.5" stroke="#2B2649"/>
<rect x="259.98" y="60.1875" width="107.98" height="8" rx="4" transform="rotate(-179.901 259.98 60.1875)" fill="#917EF3"/>
<rect x="344.965" y="84.3359" width="192.965" height="8" rx="4" transform="rotate(-179.901 344.965 84.3359)" fill="#917EF3"/>
<rect x="422.234" y="108.469" width="270.234" height="8" rx="4" transform="rotate(-179.901 422.234 108.469)" fill="#917EF3"/>
<rect x="400.02" y="132.43" width="248.021" height="8" rx="4" transform="rotate(-179.901 400.02 132.43)" fill="#917EF3"/>
<rect x="313.105" y="156.32" width="161.108" height="8" rx="4" transform="rotate(-179.859 313.105 156.32)" fill="#917EF3"/>
<line x1="146" y1="67.5" x2="434" y2="67.5" stroke="#EBEBF8"/>
<line x1="146" y1="91.5" x2="434" y2="91.5" stroke="#EBEBF8"/>
<line x1="146" y1="115.5" x2="434" y2="115.5" stroke="#EBEBF8"/>
<line x1="146" y1="139.5" x2="434" y2="139.5" stroke="#EBEBF8"/>
<line x1="539" y1="67.5" x2="826" y2="67.5" stroke="#EBEBF8"/>
<line x1="539" y1="91.5" x2="826" y2="91.5" stroke="#EBEBF8"/>
<line x1="539" y1="115.5" x2="826" y2="115.5" stroke="#EBEBF8"/>
<line x1="539" y1="139.5" x2="826" y2="139.5" stroke="#EBEBF8"/>
<path d="M534.471 104.946C534.471 104.862 534.454 104.784 534.422 104.712C534.389 104.64 534.34 104.572 534.275 104.507L530.472 100.786C530.364 100.679 530.231 100.625 530.071 100.625C529.967 100.625 529.871 100.651 529.783 100.703C529.695 100.752 529.625 100.819 529.573 100.903C529.524 100.988 529.5 101.084 529.5 101.191C529.5 101.344 529.559 101.481 529.676 101.602L533.104 104.946L529.676 108.291C529.559 108.411 529.5 108.55 529.5 108.706C529.5 108.81 529.524 108.905 529.573 108.989C529.625 109.077 529.695 109.146 529.783 109.194C529.871 109.246 529.967 109.272 530.071 109.272C530.231 109.272 530.364 109.217 530.472 109.106L534.275 105.386C534.34 105.321 534.389 105.252 534.422 105.181C534.454 105.109 534.471 105.031 534.471 104.946Z" fill="#FBFBFB"/>
</svg>
